G04 Layer: TopSilkLayer*
G04 EasyEDA v6.4.5, 2020-09-09T00:36:17+08:00*
G04 436c0c316ad34c3b9159c99bcd304625,98eef565fa774a6b8f51c3c50c7f61d6,10*
G04 Gerber Generator version 0.2*
G04 Scale: 100 percent, Rotated: No, Reflected: No *
G04 Dimensions in millimeters *
G04 leading zeros omitted , absolute positions ,3 integer and 3 decimal *
%FSLAX33Y33*%
%MOMM*%
G90*
G71D02*

%ADD10C,0.254000*%

%LPD*%
G54D10*
G01X52983Y1507D02*
G01X51459Y1507D01*
G01X51459Y3031D01*
G01X67208Y3031D02*
G01X67208Y1507D01*
G01X65684Y1507D01*
G01X65683Y17255D02*
G01X67207Y17255D01*
G01X67207Y15731D01*
G01X51459Y15731D02*
G01X51459Y17255D01*
G01X52983Y17255D01*
G01X29173Y1507D02*
G01X27649Y1507D01*
G01X27649Y3031D01*
G01X43398Y3031D02*
G01X43398Y1507D01*
G01X41874Y1507D01*
G01X41873Y17255D02*
G01X43397Y17255D01*
G01X43397Y15731D01*
G01X27649Y15731D02*
G01X27649Y17255D01*
G01X29173Y17255D01*
G01X5363Y1507D02*
G01X3839Y1507D01*
G01X3839Y3031D01*
G01X19588Y3031D02*
G01X19588Y1507D01*
G01X18064Y1507D01*
G01X18063Y17255D02*
G01X19587Y17255D01*
G01X19587Y15731D01*
G01X3839Y15731D02*
G01X3839Y17255D01*
G01X5363Y17255D01*
G01X10123Y39607D02*
G01X8599Y39607D01*
G01X8599Y41131D01*
G01X24348Y41131D02*
G01X24348Y39607D01*
G01X22824Y39607D01*
G01X22823Y55355D02*
G01X24347Y55355D01*
G01X24347Y53831D01*
G01X8599Y53831D02*
G01X8599Y55355D01*
G01X10123Y55355D01*
G01X12503Y20557D02*
G01X10979Y20557D01*
G01X10979Y22081D01*
G01X26728Y22081D02*
G01X26728Y20557D01*
G01X25204Y20557D01*
G01X25203Y36305D02*
G01X26727Y36305D01*
G01X26727Y34781D01*
G01X10979Y34781D02*
G01X10979Y36305D01*
G01X12503Y36305D01*
G01X260153Y77707D02*
G01X258629Y77707D01*
G01X258629Y79231D01*
G01X274378Y79231D02*
G01X274378Y77707D01*
G01X272854Y77707D01*
G01X272853Y93455D02*
G01X274377Y93455D01*
G01X274377Y91931D01*
G01X258629Y91931D02*
G01X258629Y93455D01*
G01X260153Y93455D01*
G01X257773Y39607D02*
G01X256249Y39607D01*
G01X256249Y41131D01*
G01X271998Y41131D02*
G01X271998Y39607D01*
G01X270474Y39607D01*
G01X270473Y55355D02*
G01X271997Y55355D01*
G01X271997Y53831D01*
G01X256249Y53831D02*
G01X256249Y55355D01*
G01X257773Y55355D01*
G01X269673Y1507D02*
G01X268149Y1507D01*
G01X268149Y3031D01*
G01X283898Y3031D02*
G01X283898Y1507D01*
G01X282374Y1507D01*
G01X282373Y17255D02*
G01X283897Y17255D01*
G01X283897Y15731D01*
G01X268149Y15731D02*
G01X268149Y17255D01*
G01X269673Y17255D01*
G01X250623Y1507D02*
G01X249099Y1507D01*
G01X249099Y3031D01*
G01X264848Y3031D02*
G01X264848Y1507D01*
G01X263324Y1507D01*
G01X263323Y17255D02*
G01X264847Y17255D01*
G01X264847Y15731D01*
G01X249099Y15731D02*
G01X249099Y17255D01*
G01X250623Y17255D01*
G01X231573Y1507D02*
G01X230049Y1507D01*
G01X230049Y3031D01*
G01X245798Y3031D02*
G01X245798Y1507D01*
G01X244274Y1507D01*
G01X244273Y17255D02*
G01X245797Y17255D01*
G01X245797Y15731D01*
G01X230049Y15731D02*
G01X230049Y17255D01*
G01X231573Y17255D01*
G01X212533Y1507D02*
G01X211009Y1507D01*
G01X211009Y3031D01*
G01X226758Y3031D02*
G01X226758Y1507D01*
G01X225234Y1507D01*
G01X225233Y17255D02*
G01X226757Y17255D01*
G01X226757Y15731D01*
G01X211009Y15731D02*
G01X211009Y17255D01*
G01X212533Y17255D01*
G01X193473Y1507D02*
G01X191949Y1507D01*
G01X191949Y3031D01*
G01X207698Y3031D02*
G01X207698Y1507D01*
G01X206174Y1507D01*
G01X206173Y17255D02*
G01X207697Y17255D01*
G01X207697Y15731D01*
G01X191949Y15731D02*
G01X191949Y17255D01*
G01X193473Y17255D01*
G01X269673Y20557D02*
G01X268149Y20557D01*
G01X268149Y22081D01*
G01X283898Y22081D02*
G01X283898Y20557D01*
G01X282374Y20557D01*
G01X282373Y36305D02*
G01X283897Y36305D01*
G01X283897Y34781D01*
G01X268149Y34781D02*
G01X268149Y36305D01*
G01X269673Y36305D01*
G01X250623Y20557D02*
G01X249099Y20557D01*
G01X249099Y22081D01*
G01X264848Y22081D02*
G01X264848Y20557D01*
G01X263324Y20557D01*
G01X263323Y36305D02*
G01X264847Y36305D01*
G01X264847Y34781D01*
G01X249099Y34781D02*
G01X249099Y36305D01*
G01X250623Y36305D01*
G01X231573Y20557D02*
G01X230049Y20557D01*
G01X230049Y22081D01*
G01X245798Y22081D02*
G01X245798Y20557D01*
G01X244274Y20557D01*
G01X244273Y36305D02*
G01X245797Y36305D01*
G01X245797Y34781D01*
G01X230049Y34781D02*
G01X230049Y36305D01*
G01X231573Y36305D01*
G01X212533Y20557D02*
G01X211009Y20557D01*
G01X211009Y22081D01*
G01X226758Y22081D02*
G01X226758Y20557D01*
G01X225234Y20557D01*
G01X225233Y36305D02*
G01X226757Y36305D01*
G01X226757Y34781D01*
G01X211009Y34781D02*
G01X211009Y36305D01*
G01X212533Y36305D01*
G01X193473Y20557D02*
G01X191949Y20557D01*
G01X191949Y22081D01*
G01X207698Y22081D02*
G01X207698Y20557D01*
G01X206174Y20557D01*
G01X206173Y36305D02*
G01X207697Y36305D01*
G01X207697Y34781D01*
G01X191949Y34781D02*
G01X191949Y36305D01*
G01X193473Y36305D01*
G01X174433Y20557D02*
G01X172909Y20557D01*
G01X172909Y22081D01*
G01X188658Y22081D02*
G01X188658Y20557D01*
G01X187134Y20557D01*
G01X187133Y36305D02*
G01X188657Y36305D01*
G01X188657Y34781D01*
G01X172909Y34781D02*
G01X172909Y36305D01*
G01X174433Y36305D01*
G01X155373Y20557D02*
G01X153849Y20557D01*
G01X153849Y22081D01*
G01X169598Y22081D02*
G01X169598Y20557D01*
G01X168074Y20557D01*
G01X168073Y36305D02*
G01X169597Y36305D01*
G01X169597Y34781D01*
G01X153849Y34781D02*
G01X153849Y36305D01*
G01X155373Y36305D01*
G01X136323Y20557D02*
G01X134799Y20557D01*
G01X134799Y22081D01*
G01X150548Y22081D02*
G01X150548Y20557D01*
G01X149024Y20557D01*
G01X149023Y36305D02*
G01X150547Y36305D01*
G01X150547Y34781D01*
G01X134799Y34781D02*
G01X134799Y36305D01*
G01X136323Y36305D01*
G01X117283Y20557D02*
G01X115759Y20557D01*
G01X115759Y22081D01*
G01X131508Y22081D02*
G01X131508Y20557D01*
G01X129984Y20557D01*
G01X129983Y36305D02*
G01X131507Y36305D01*
G01X131507Y34781D01*
G01X115759Y34781D02*
G01X115759Y36305D01*
G01X117283Y36305D01*
G01X98233Y20557D02*
G01X96709Y20557D01*
G01X96709Y22081D01*
G01X112458Y22081D02*
G01X112458Y20557D01*
G01X110934Y20557D01*
G01X110933Y36305D02*
G01X112457Y36305D01*
G01X112457Y34781D01*
G01X96709Y34781D02*
G01X96709Y36305D01*
G01X98233Y36305D01*
G01X79183Y20557D02*
G01X77659Y20557D01*
G01X77659Y22081D01*
G01X93408Y22081D02*
G01X93408Y20557D01*
G01X91884Y20557D01*
G01X91883Y36305D02*
G01X93407Y36305D01*
G01X93407Y34781D01*
G01X77659Y34781D02*
G01X77659Y36305D01*
G01X79183Y36305D01*
G01X60123Y20557D02*
G01X58599Y20557D01*
G01X58599Y22081D01*
G01X74348Y22081D02*
G01X74348Y20557D01*
G01X72824Y20557D01*
G01X72823Y36305D02*
G01X74347Y36305D01*
G01X74347Y34781D01*
G01X58599Y34781D02*
G01X58599Y36305D01*
G01X60123Y36305D01*
G01X41073Y20557D02*
G01X39549Y20557D01*
G01X39549Y22081D01*
G01X55298Y22081D02*
G01X55298Y20557D01*
G01X53774Y20557D01*
G01X53773Y36305D02*
G01X55297Y36305D01*
G01X55297Y34781D01*
G01X39549Y34781D02*
G01X39549Y36305D01*
G01X41073Y36305D01*
G01X226813Y39607D02*
G01X225289Y39607D01*
G01X225289Y41131D01*
G01X241038Y41131D02*
G01X241038Y39607D01*
G01X239514Y39607D01*
G01X239513Y55355D02*
G01X241037Y55355D01*
G01X241037Y53831D01*
G01X225289Y53831D02*
G01X225289Y55355D01*
G01X226813Y55355D01*
G01X207763Y39607D02*
G01X206239Y39607D01*
G01X206239Y41131D01*
G01X221988Y41131D02*
G01X221988Y39607D01*
G01X220464Y39607D01*
G01X220463Y55355D02*
G01X221987Y55355D01*
G01X221987Y53831D01*
G01X206239Y53831D02*
G01X206239Y55355D01*
G01X207763Y55355D01*
G01X188713Y39607D02*
G01X187189Y39607D01*
G01X187189Y41131D01*
G01X202938Y41131D02*
G01X202938Y39607D01*
G01X201414Y39607D01*
G01X201413Y55355D02*
G01X202937Y55355D01*
G01X202937Y53831D01*
G01X187189Y53831D02*
G01X187189Y55355D01*
G01X188713Y55355D01*
G01X169663Y39607D02*
G01X168139Y39607D01*
G01X168139Y41131D01*
G01X183888Y41131D02*
G01X183888Y39607D01*
G01X182364Y39607D01*
G01X182363Y55355D02*
G01X183887Y55355D01*
G01X183887Y53831D01*
G01X168139Y53831D02*
G01X168139Y55355D01*
G01X169663Y55355D01*
G01X150613Y39607D02*
G01X149089Y39607D01*
G01X149089Y41131D01*
G01X164838Y41131D02*
G01X164838Y39607D01*
G01X163314Y39607D01*
G01X163313Y55355D02*
G01X164837Y55355D01*
G01X164837Y53831D01*
G01X149089Y53831D02*
G01X149089Y55355D01*
G01X150613Y55355D01*
G01X131563Y39607D02*
G01X130039Y39607D01*
G01X130039Y41131D01*
G01X145788Y41131D02*
G01X145788Y39607D01*
G01X144264Y39607D01*
G01X144263Y55355D02*
G01X145787Y55355D01*
G01X145787Y53831D01*
G01X130039Y53831D02*
G01X130039Y55355D01*
G01X131563Y55355D01*
G01X112513Y39607D02*
G01X110989Y39607D01*
G01X110989Y41131D01*
G01X126738Y41131D02*
G01X126738Y39607D01*
G01X125214Y39607D01*
G01X125213Y55355D02*
G01X126737Y55355D01*
G01X126737Y53831D01*
G01X110989Y53831D02*
G01X110989Y55355D01*
G01X112513Y55355D01*
G01X93463Y39607D02*
G01X91939Y39607D01*
G01X91939Y41131D01*
G01X107688Y41131D02*
G01X107688Y39607D01*
G01X106164Y39607D01*
G01X106163Y55355D02*
G01X107687Y55355D01*
G01X107687Y53831D01*
G01X91939Y53831D02*
G01X91939Y55355D01*
G01X93463Y55355D01*
G01X74413Y39607D02*
G01X72889Y39607D01*
G01X72889Y41131D01*
G01X88638Y41131D02*
G01X88638Y39607D01*
G01X87114Y39607D01*
G01X87113Y55355D02*
G01X88637Y55355D01*
G01X88637Y53831D01*
G01X72889Y53831D02*
G01X72889Y55355D01*
G01X74413Y55355D01*
G01X55363Y39607D02*
G01X53839Y39607D01*
G01X53839Y41131D01*
G01X69588Y41131D02*
G01X69588Y39607D01*
G01X68064Y39607D01*
G01X68063Y55355D02*
G01X69587Y55355D01*
G01X69587Y53831D01*
G01X53839Y53831D02*
G01X53839Y55355D01*
G01X55363Y55355D01*
G01X36313Y39607D02*
G01X34789Y39607D01*
G01X34789Y41131D01*
G01X50538Y41131D02*
G01X50538Y39607D01*
G01X49014Y39607D01*
G01X49013Y55355D02*
G01X50537Y55355D01*
G01X50537Y53831D01*
G01X34789Y53831D02*
G01X34789Y55355D01*
G01X36313Y55355D01*
G01X241103Y58657D02*
G01X239579Y58657D01*
G01X239579Y60181D01*
G01X255328Y60181D02*
G01X255328Y58657D01*
G01X253804Y58657D01*
G01X253803Y74405D02*
G01X255327Y74405D01*
G01X255327Y72881D01*
G01X239579Y72881D02*
G01X239579Y74405D01*
G01X241103Y74405D01*
G01X222053Y58657D02*
G01X220529Y58657D01*
G01X220529Y60181D01*
G01X236278Y60181D02*
G01X236278Y58657D01*
G01X234754Y58657D01*
G01X234753Y74405D02*
G01X236277Y74405D01*
G01X236277Y72881D01*
G01X220529Y72881D02*
G01X220529Y74405D01*
G01X222053Y74405D01*
G01X203003Y58657D02*
G01X201479Y58657D01*
G01X201479Y60181D01*
G01X217228Y60181D02*
G01X217228Y58657D01*
G01X215704Y58657D01*
G01X215703Y74405D02*
G01X217227Y74405D01*
G01X217227Y72881D01*
G01X201479Y72881D02*
G01X201479Y74405D01*
G01X203003Y74405D01*
G01X183953Y58657D02*
G01X182429Y58657D01*
G01X182429Y60181D01*
G01X198178Y60181D02*
G01X198178Y58657D01*
G01X196654Y58657D01*
G01X196653Y74405D02*
G01X198177Y74405D01*
G01X198177Y72881D01*
G01X182429Y72881D02*
G01X182429Y74405D01*
G01X183953Y74405D01*
G01X164903Y58657D02*
G01X163379Y58657D01*
G01X163379Y60181D01*
G01X179128Y60181D02*
G01X179128Y58657D01*
G01X177604Y58657D01*
G01X177603Y74405D02*
G01X179127Y74405D01*
G01X179127Y72881D01*
G01X163379Y72881D02*
G01X163379Y74405D01*
G01X164903Y74405D01*
G01X145853Y58657D02*
G01X144329Y58657D01*
G01X144329Y60181D01*
G01X160078Y60181D02*
G01X160078Y58657D01*
G01X158554Y58657D01*
G01X158553Y74405D02*
G01X160077Y74405D01*
G01X160077Y72881D01*
G01X144329Y72881D02*
G01X144329Y74405D01*
G01X145853Y74405D01*
G01X126803Y58657D02*
G01X125279Y58657D01*
G01X125279Y60181D01*
G01X141028Y60181D02*
G01X141028Y58657D01*
G01X139504Y58657D01*
G01X139503Y74405D02*
G01X141027Y74405D01*
G01X141027Y72881D01*
G01X125279Y72881D02*
G01X125279Y74405D01*
G01X126803Y74405D01*
G01X107753Y58657D02*
G01X106229Y58657D01*
G01X106229Y60181D01*
G01X121978Y60181D02*
G01X121978Y58657D01*
G01X120454Y58657D01*
G01X120453Y74405D02*
G01X121977Y74405D01*
G01X121977Y72881D01*
G01X106229Y72881D02*
G01X106229Y74405D01*
G01X107753Y74405D01*
G01X88703Y58657D02*
G01X87179Y58657D01*
G01X87179Y60181D01*
G01X102928Y60181D02*
G01X102928Y58657D01*
G01X101404Y58657D01*
G01X101403Y74405D02*
G01X102927Y74405D01*
G01X102927Y72881D01*
G01X87179Y72881D02*
G01X87179Y74405D01*
G01X88703Y74405D01*
G01X69653Y58657D02*
G01X68129Y58657D01*
G01X68129Y60181D01*
G01X83878Y60181D02*
G01X83878Y58657D01*
G01X82354Y58657D01*
G01X82353Y74405D02*
G01X83877Y74405D01*
G01X83877Y72881D01*
G01X68129Y72881D02*
G01X68129Y74405D01*
G01X69653Y74405D01*
G01X50603Y58657D02*
G01X49079Y58657D01*
G01X49079Y60181D01*
G01X64828Y60181D02*
G01X64828Y58657D01*
G01X63304Y58657D01*
G01X63303Y74405D02*
G01X64827Y74405D01*
G01X64827Y72881D01*
G01X49079Y72881D02*
G01X49079Y74405D01*
G01X50603Y74405D01*
G01X31553Y58657D02*
G01X30029Y58657D01*
G01X30029Y60181D01*
G01X45778Y60181D02*
G01X45778Y58657D01*
G01X44254Y58657D01*
G01X44253Y74405D02*
G01X45777Y74405D01*
G01X45777Y72881D01*
G01X30029Y72881D02*
G01X30029Y74405D01*
G01X31553Y74405D01*
G01X231583Y77707D02*
G01X230059Y77707D01*
G01X230059Y79231D01*
G01X245808Y79231D02*
G01X245808Y77707D01*
G01X244284Y77707D01*
G01X244283Y93455D02*
G01X245807Y93455D01*
G01X245807Y91931D01*
G01X230059Y91931D02*
G01X230059Y93455D01*
G01X231583Y93455D01*
G01X212533Y77707D02*
G01X211009Y77707D01*
G01X211009Y79231D01*
G01X226758Y79231D02*
G01X226758Y77707D01*
G01X225234Y77707D01*
G01X225233Y93455D02*
G01X226757Y93455D01*
G01X226757Y91931D01*
G01X211009Y91931D02*
G01X211009Y93455D01*
G01X212533Y93455D01*
G01X193483Y77707D02*
G01X191959Y77707D01*
G01X191959Y79231D01*
G01X207708Y79231D02*
G01X207708Y77707D01*
G01X206184Y77707D01*
G01X206183Y93455D02*
G01X207707Y93455D01*
G01X207707Y91931D01*
G01X191959Y91931D02*
G01X191959Y93455D01*
G01X193483Y93455D01*
G01X174423Y77707D02*
G01X172899Y77707D01*
G01X172899Y79231D01*
G01X188648Y79231D02*
G01X188648Y77707D01*
G01X187124Y77707D01*
G01X187123Y93455D02*
G01X188647Y93455D01*
G01X188647Y91931D01*
G01X172899Y91931D02*
G01X172899Y93455D01*
G01X174423Y93455D01*
G01X155373Y77707D02*
G01X153849Y77707D01*
G01X153849Y79231D01*
G01X169598Y79231D02*
G01X169598Y77707D01*
G01X168074Y77707D01*
G01X168073Y93455D02*
G01X169597Y93455D01*
G01X169597Y91931D01*
G01X153849Y91931D02*
G01X153849Y93455D01*
G01X155373Y93455D01*
G01X136333Y77707D02*
G01X134809Y77707D01*
G01X134809Y79231D01*
G01X150558Y79231D02*
G01X150558Y77707D01*
G01X149034Y77707D01*
G01X149033Y93455D02*
G01X150557Y93455D01*
G01X150557Y91931D01*
G01X134809Y91931D02*
G01X134809Y93455D01*
G01X136333Y93455D01*
G01X117283Y77707D02*
G01X115759Y77707D01*
G01X115759Y79231D01*
G01X131508Y79231D02*
G01X131508Y77707D01*
G01X129984Y77707D01*
G01X129983Y93455D02*
G01X131507Y93455D01*
G01X131507Y91931D01*
G01X115759Y91931D02*
G01X115759Y93455D01*
G01X117283Y93455D01*
G01X98223Y77707D02*
G01X96699Y77707D01*
G01X96699Y79231D01*
G01X112448Y79231D02*
G01X112448Y77707D01*
G01X110924Y77707D01*
G01X110923Y93455D02*
G01X112447Y93455D01*
G01X112447Y91931D01*
G01X96699Y91931D02*
G01X96699Y93455D01*
G01X98223Y93455D01*
G01X79173Y77707D02*
G01X77649Y77707D01*
G01X77649Y79231D01*
G01X93398Y79231D02*
G01X93398Y77707D01*
G01X91874Y77707D01*
G01X91873Y93455D02*
G01X93397Y93455D01*
G01X93397Y91931D01*
G01X77649Y91931D02*
G01X77649Y93455D01*
G01X79173Y93455D01*
G01X60123Y77707D02*
G01X58599Y77707D01*
G01X58599Y79231D01*
G01X74348Y79231D02*
G01X74348Y77707D01*
G01X72824Y77707D01*
G01X72823Y93455D02*
G01X74347Y93455D01*
G01X74347Y91931D01*
G01X58599Y91931D02*
G01X58599Y93455D01*
G01X60123Y93455D01*
G01X41083Y77707D02*
G01X39559Y77707D01*
G01X39559Y79231D01*
G01X55308Y79231D02*
G01X55308Y77707D01*
G01X53784Y77707D01*
G01X53783Y93455D02*
G01X55307Y93455D01*
G01X55307Y91931D01*
G01X39559Y91931D02*
G01X39559Y93455D01*
G01X41083Y93455D01*
G01X22023Y77707D02*
G01X20499Y77707D01*
G01X20499Y79231D01*
G01X36248Y79231D02*
G01X36248Y77707D01*
G01X34724Y77707D01*
G01X34723Y93455D02*
G01X36247Y93455D01*
G01X36247Y91931D01*
G01X20499Y91931D02*
G01X20499Y93455D01*
G01X22023Y93455D01*
G01X2983Y77707D02*
G01X1459Y77707D01*
G01X1459Y79231D01*
G01X17208Y79231D02*
G01X17208Y77707D01*
G01X15684Y77707D01*
G01X15683Y93455D02*
G01X17207Y93455D01*
G01X17207Y91931D01*
G01X1459Y91931D02*
G01X1459Y93455D01*
G01X2983Y93455D01*
G01X264913Y58657D02*
G01X263389Y58657D01*
G01X263389Y60181D01*
G01X279138Y60181D02*
G01X279138Y58657D01*
G01X277614Y58657D01*
G01X277613Y74405D02*
G01X279137Y74405D01*
G01X279137Y72881D01*
G01X263389Y72881D02*
G01X263389Y74405D01*
G01X264913Y74405D01*
G01X7743Y58657D02*
G01X6219Y58657D01*
G01X6219Y60181D01*
G01X21968Y60181D02*
G01X21968Y58657D01*
G01X20444Y58657D01*
G01X20443Y74405D02*
G01X21967Y74405D01*
G01X21967Y72881D01*
G01X6219Y72881D02*
G01X6219Y74405D01*
G01X7743Y74405D01*
G01X124423Y1507D02*
G01X122899Y1507D01*
G01X122899Y3031D01*
G01X138648Y3031D02*
G01X138648Y1507D01*
G01X137124Y1507D01*
G01X137123Y17255D02*
G01X138647Y17255D01*
G01X138647Y15731D01*
G01X122899Y15731D02*
G01X122899Y17255D01*
G01X124423Y17255D01*
M00*
M02*
