G04 Layer: BoardOutline*
G04 EasyEDA v6.4.5, 2020-09-09T00:36:17+08:00*
G04 436c0c316ad34c3b9159c99bcd304625,98eef565fa774a6b8f51c3c50c7f61d6,10*
G04 Gerber Generator version 0.2*
G04 Scale: 100 percent, Rotated: No, Reflected: No *
G04 Dimensions in millimeters *
G04 leading zeros omitted , absolute positions ,3 integer and 3 decimal *
%FSLAX33Y33*%
%MOMM*%
G90*
G71D02*

%ADD10C,0.254000*%
G54D10*
G01X285385Y92891D02*
G01X285385Y2037D01*
G01X13843Y95731D02*
G01X22919Y95735D01*
G01X283343Y2D02*
G01X1990Y2D01*
G01X23813Y94931D02*
G01X283353Y94931D01*
G01X2020Y94927D02*
G01X12954Y94927D01*
G01X6Y92913D02*
G01X6Y1985D01*
G75*
G01X7534Y91912D02*
G02X7684Y92062I150J0D01*
G01*
G01X7684Y92061D02*
G01X10884Y92061D01*
G75*
G01X10884Y92062D02*
G02X11034Y91912I0J-150D01*
G01*
G01X11034Y91911D02*
G01X11034Y89211D01*
G75*
G01X11034Y89212D02*
G02X10884Y89062I-150J0D01*
G01*
G01X10884Y89061D02*
G01X7684Y89061D01*
G75*
G01X7684Y89062D02*
G02X7534Y89212I0J150D01*
G01*
G01X7533Y89211D02*
G01X7533Y91911D01*
G75*
G01X26687Y91909D02*
G02X26837Y92059I150J0D01*
G01*
G01X26837Y92058D02*
G01X30037Y92058D01*
G75*
G01X30037Y92059D02*
G02X30187Y91909I0J-150D01*
G01*
G01X30187Y91908D02*
G01X30187Y89208D01*
G75*
G01X30187Y89209D02*
G02X30037Y89059I-150J0D01*
G01*
G01X30037Y89058D02*
G01X26837Y89058D01*
G75*
G01X26837Y89059D02*
G02X26687Y89209I0J150D01*
G01*
G01X26687Y89208D02*
G01X26687Y91908D01*
G75*
G01X45747Y91909D02*
G02X45897Y92059I150J0D01*
G01*
G01X45897Y92058D02*
G01X49097Y92058D01*
G75*
G01X49097Y92059D02*
G02X49247Y91909I0J-150D01*
G01*
G01X49247Y91908D02*
G01X49247Y89208D01*
G75*
G01X49247Y89209D02*
G02X49097Y89059I-150J0D01*
G01*
G01X49097Y89058D02*
G01X45897Y89058D01*
G75*
G01X45897Y89059D02*
G02X45747Y89209I0J150D01*
G01*
G01X45747Y89208D02*
G01X45747Y91908D01*
G75*
G01X64787Y91909D02*
G02X64937Y92059I150J0D01*
G01*
G01X64937Y92058D02*
G01X68137Y92058D01*
G75*
G01X68137Y92059D02*
G02X68287Y91909I0J-150D01*
G01*
G01X68287Y91908D02*
G01X68287Y89208D01*
G75*
G01X68287Y89209D02*
G02X68137Y89059I-150J0D01*
G01*
G01X68137Y89058D02*
G01X64937Y89058D01*
G75*
G01X64937Y89059D02*
G02X64787Y89209I0J150D01*
G01*
G01X64787Y89208D02*
G01X64787Y91908D01*
G75*
G01X83837Y91909D02*
G02X83987Y92059I150J0D01*
G01*
G01X83987Y92058D02*
G01X87187Y92058D01*
G75*
G01X87187Y92059D02*
G02X87337Y91909I0J-150D01*
G01*
G01X87337Y91908D02*
G01X87337Y89208D01*
G75*
G01X87337Y89209D02*
G02X87187Y89059I-150J0D01*
G01*
G01X87187Y89058D02*
G01X83987Y89058D01*
G75*
G01X83987Y89059D02*
G02X83837Y89209I0J150D01*
G01*
G01X83837Y89208D02*
G01X83837Y91908D01*
G75*
G01X102887Y91909D02*
G02X103037Y92059I150J0D01*
G01*
G01X103037Y92058D02*
G01X106237Y92058D01*
G75*
G01X106237Y92059D02*
G02X106387Y91909I0J-150D01*
G01*
G01X106387Y91908D02*
G01X106387Y89208D01*
G75*
G01X106387Y89209D02*
G02X106237Y89059I-150J0D01*
G01*
G01X106237Y89058D02*
G01X103037Y89058D01*
G75*
G01X103037Y89059D02*
G02X102887Y89209I0J150D01*
G01*
G01X102887Y89208D02*
G01X102887Y91908D01*
G75*
G01X121947Y91909D02*
G02X122097Y92059I150J0D01*
G01*
G01X122097Y92058D02*
G01X125297Y92058D01*
G75*
G01X125297Y92059D02*
G02X125447Y91909I0J-150D01*
G01*
G01X125447Y91908D02*
G01X125447Y89208D01*
G75*
G01X125447Y89209D02*
G02X125297Y89059I-150J0D01*
G01*
G01X125297Y89058D02*
G01X122097Y89058D01*
G75*
G01X122097Y89059D02*
G02X121947Y89209I0J150D01*
G01*
G01X121947Y89208D02*
G01X121947Y91908D01*
G75*
G01X140997Y91909D02*
G02X141147Y92059I150J0D01*
G01*
G01X141147Y92058D02*
G01X144347Y92058D01*
G75*
G01X144347Y92059D02*
G02X144497Y91909I0J-150D01*
G01*
G01X144497Y91908D02*
G01X144497Y89208D01*
G75*
G01X144497Y89209D02*
G02X144347Y89059I-150J0D01*
G01*
G01X144347Y89058D02*
G01X141147Y89058D01*
G75*
G01X141147Y89059D02*
G02X140997Y89209I0J150D01*
G01*
G01X140997Y89208D02*
G01X140997Y91908D01*
G75*
G01X160037Y91909D02*
G02X160187Y92059I150J0D01*
G01*
G01X160186Y92058D02*
G01X163386Y92058D01*
G75*
G01X163387Y92059D02*
G02X163537Y91909I0J-150D01*
G01*
G01X163536Y91908D02*
G01X163536Y89208D01*
G75*
G01X163537Y89209D02*
G02X163387Y89059I-150J0D01*
G01*
G01X163386Y89058D02*
G01X160186Y89058D01*
G75*
G01X160187Y89059D02*
G02X160037Y89209I0J150D01*
G01*
G01X160036Y89208D02*
G01X160036Y91908D01*
G75*
G01X179087Y91909D02*
G02X179237Y92059I150J0D01*
G01*
G01X179237Y92058D02*
G01X182437Y92058D01*
G75*
G01X182437Y92059D02*
G02X182587Y91909I0J-150D01*
G01*
G01X182587Y91908D02*
G01X182587Y89208D01*
G75*
G01X182587Y89209D02*
G02X182437Y89059I-150J0D01*
G01*
G01X182437Y89058D02*
G01X179237Y89058D01*
G75*
G01X179237Y89059D02*
G02X179087Y89209I0J150D01*
G01*
G01X179087Y89208D02*
G01X179087Y91908D01*
G75*
G01X198147Y91909D02*
G02X198297Y92059I150J0D01*
G01*
G01X198297Y92058D02*
G01X201497Y92058D01*
G75*
G01X201497Y92059D02*
G02X201647Y91909I0J-150D01*
G01*
G01X201647Y91908D02*
G01X201647Y89208D01*
G75*
G01X201647Y89209D02*
G02X201497Y89059I-150J0D01*
G01*
G01X201497Y89058D02*
G01X198297Y89058D01*
G75*
G01X198297Y89059D02*
G02X198147Y89209I0J150D01*
G01*
G01X198147Y89208D02*
G01X198147Y91908D01*
G75*
G01X217197Y91909D02*
G02X217347Y92059I150J0D01*
G01*
G01X217346Y92058D02*
G01X220546Y92058D01*
G75*
G01X220547Y92059D02*
G02X220697Y91909I0J-150D01*
G01*
G01X220696Y91908D02*
G01X220696Y89208D01*
G75*
G01X220697Y89209D02*
G02X220547Y89059I-150J0D01*
G01*
G01X220546Y89058D02*
G01X217346Y89058D01*
G75*
G01X217347Y89059D02*
G02X217197Y89209I0J150D01*
G01*
G01X217196Y89208D02*
G01X217196Y91908D01*
G75*
G01X236247Y91909D02*
G02X236397Y92059I150J0D01*
G01*
G01X236396Y92058D02*
G01X239596Y92058D01*
G75*
G01X239597Y92059D02*
G02X239747Y91909I0J-150D01*
G01*
G01X239746Y91908D02*
G01X239746Y89208D01*
G75*
G01X239747Y89209D02*
G02X239597Y89059I-150J0D01*
G01*
G01X239596Y89058D02*
G01X236396Y89058D01*
G75*
G01X236397Y89059D02*
G02X236247Y89209I0J150D01*
G01*
G01X236246Y89208D02*
G01X236246Y91908D01*
G75*
G01X264733Y91909D02*
G02X264883Y92059I150J0D01*
G01*
G01X264883Y92058D02*
G01X268083Y92058D01*
G75*
G01X268083Y92059D02*
G02X268233Y91909I0J-150D01*
G01*
G01X268233Y91908D02*
G01X268233Y89208D01*
G75*
G01X268233Y89209D02*
G02X268083Y89059I-150J0D01*
G01*
G01X268083Y89058D02*
G01X264883Y89058D01*
G75*
G01X264883Y89059D02*
G02X264733Y89209I0J150D01*
G01*
G01X264733Y89208D02*
G01X264733Y91908D01*
G75*
G01X12324Y72862D02*
G02X12474Y73012I150J0D01*
G01*
G01X12474Y73011D02*
G01X15674Y73011D01*
G75*
G01X15674Y73012D02*
G02X15824Y72862I0J-150D01*
G01*
G01X15824Y72861D02*
G01X15824Y70161D01*
G75*
G01X15824Y70162D02*
G02X15674Y70012I-150J0D01*
G01*
G01X15674Y70011D02*
G01X12474Y70011D01*
G75*
G01X12474Y70012D02*
G02X12324Y70162I0J150D01*
G01*
G01X12324Y70161D02*
G01X12324Y72861D01*
G75*
G01X36217Y72862D02*
G02X36367Y73012I150J0D01*
G01*
G01X36367Y73011D02*
G01X39567Y73011D01*
G75*
G01X39567Y73012D02*
G02X39717Y72862I0J-150D01*
G01*
G01X39717Y72861D02*
G01X39717Y70161D01*
G75*
G01X39717Y70162D02*
G02X39567Y70012I-150J0D01*
G01*
G01X39567Y70011D02*
G01X36367Y70011D01*
G75*
G01X36367Y70012D02*
G02X36217Y70162I0J150D01*
G01*
G01X36217Y70161D02*
G01X36217Y72861D01*
G75*
G01X55267Y72862D02*
G02X55417Y73012I150J0D01*
G01*
G01X55417Y73011D02*
G01X58617Y73011D01*
G75*
G01X58617Y73012D02*
G02X58767Y72862I0J-150D01*
G01*
G01X58767Y72861D02*
G01X58767Y70161D01*
G75*
G01X58767Y70162D02*
G02X58617Y70012I-150J0D01*
G01*
G01X58617Y70011D02*
G01X55417Y70011D01*
G75*
G01X55417Y70012D02*
G02X55267Y70162I0J150D01*
G01*
G01X55267Y70161D02*
G01X55267Y72861D01*
G75*
G01X74317Y72862D02*
G02X74467Y73012I150J0D01*
G01*
G01X74467Y73011D02*
G01X77667Y73011D01*
G75*
G01X77667Y73012D02*
G02X77817Y72862I0J-150D01*
G01*
G01X77817Y72861D02*
G01X77817Y70161D01*
G75*
G01X77817Y70162D02*
G02X77667Y70012I-150J0D01*
G01*
G01X77667Y70011D02*
G01X74467Y70011D01*
G75*
G01X74467Y70012D02*
G02X74317Y70162I0J150D01*
G01*
G01X74317Y70161D02*
G01X74317Y72861D01*
G75*
G01X93367Y72862D02*
G02X93517Y73012I150J0D01*
G01*
G01X93517Y73011D02*
G01X96717Y73011D01*
G75*
G01X96717Y73012D02*
G02X96867Y72862I0J-150D01*
G01*
G01X96867Y72861D02*
G01X96867Y70161D01*
G75*
G01X96867Y70162D02*
G02X96717Y70012I-150J0D01*
G01*
G01X96717Y70011D02*
G01X93517Y70011D01*
G75*
G01X93517Y70012D02*
G02X93367Y70162I0J150D01*
G01*
G01X93367Y70161D02*
G01X93367Y72861D01*
G75*
G01X112417Y72862D02*
G02X112567Y73012I150J0D01*
G01*
G01X112567Y73011D02*
G01X115767Y73011D01*
G75*
G01X115767Y73012D02*
G02X115917Y72862I0J-150D01*
G01*
G01X115917Y72861D02*
G01X115917Y70161D01*
G75*
G01X115917Y70162D02*
G02X115767Y70012I-150J0D01*
G01*
G01X115767Y70011D02*
G01X112567Y70011D01*
G75*
G01X112567Y70012D02*
G02X112417Y70162I0J150D01*
G01*
G01X112417Y70161D02*
G01X112417Y72861D01*
G75*
G01X131467Y72862D02*
G02X131617Y73012I150J0D01*
G01*
G01X131617Y73011D02*
G01X134817Y73011D01*
G75*
G01X134817Y73012D02*
G02X134967Y72862I0J-150D01*
G01*
G01X134967Y72861D02*
G01X134967Y70161D01*
G75*
G01X134967Y70162D02*
G02X134817Y70012I-150J0D01*
G01*
G01X134817Y70011D02*
G01X131617Y70011D01*
G75*
G01X131617Y70012D02*
G02X131467Y70162I0J150D01*
G01*
G01X131467Y70161D02*
G01X131467Y72861D01*
G75*
G01X150517Y72862D02*
G02X150667Y73012I150J0D01*
G01*
G01X150667Y73011D02*
G01X153867Y73011D01*
G75*
G01X153867Y73012D02*
G02X154017Y72862I0J-150D01*
G01*
G01X154017Y72861D02*
G01X154017Y70161D01*
G75*
G01X154017Y70162D02*
G02X153867Y70012I-150J0D01*
G01*
G01X153867Y70011D02*
G01X150667Y70011D01*
G75*
G01X150667Y70012D02*
G02X150517Y70162I0J150D01*
G01*
G01X150517Y70161D02*
G01X150517Y72861D01*
G75*
G01X169567Y72862D02*
G02X169717Y73012I150J0D01*
G01*
G01X169717Y73011D02*
G01X172917Y73011D01*
G75*
G01X172917Y73012D02*
G02X173067Y72862I0J-150D01*
G01*
G01X173067Y72861D02*
G01X173067Y70161D01*
G75*
G01X173067Y70162D02*
G02X172917Y70012I-150J0D01*
G01*
G01X172917Y70011D02*
G01X169717Y70011D01*
G75*
G01X169717Y70012D02*
G02X169567Y70162I0J150D01*
G01*
G01X169567Y70161D02*
G01X169567Y72861D01*
G75*
G01X188617Y72862D02*
G02X188767Y73012I150J0D01*
G01*
G01X188766Y73011D02*
G01X191966Y73011D01*
G75*
G01X191967Y73012D02*
G02X192117Y72862I0J-150D01*
G01*
G01X192116Y72861D02*
G01X192116Y70161D01*
G75*
G01X192117Y70162D02*
G02X191967Y70012I-150J0D01*
G01*
G01X191966Y70011D02*
G01X188766Y70011D01*
G75*
G01X188767Y70012D02*
G02X188617Y70162I0J150D01*
G01*
G01X188616Y70161D02*
G01X188616Y72861D01*
G75*
G01X207667Y72862D02*
G02X207817Y73012I150J0D01*
G01*
G01X207816Y73011D02*
G01X211016Y73011D01*
G75*
G01X211017Y73012D02*
G02X211167Y72862I0J-150D01*
G01*
G01X211166Y72861D02*
G01X211166Y70161D01*
G75*
G01X211167Y70162D02*
G02X211017Y70012I-150J0D01*
G01*
G01X211016Y70011D02*
G01X207816Y70011D01*
G75*
G01X207817Y70012D02*
G02X207667Y70162I0J150D01*
G01*
G01X207666Y70161D02*
G01X207666Y72861D01*
G75*
G01X226717Y72862D02*
G02X226867Y73012I150J0D01*
G01*
G01X226866Y73011D02*
G01X230066Y73011D01*
G75*
G01X230067Y73012D02*
G02X230217Y72862I0J-150D01*
G01*
G01X230216Y72861D02*
G01X230216Y70161D01*
G75*
G01X230217Y70162D02*
G02X230067Y70012I-150J0D01*
G01*
G01X230066Y70011D02*
G01X226866Y70011D01*
G75*
G01X226867Y70012D02*
G02X226717Y70162I0J150D01*
G01*
G01X226716Y70161D02*
G01X226716Y72861D01*
G75*
G01X245767Y72862D02*
G02X245917Y73012I150J0D01*
G01*
G01X245916Y73011D02*
G01X249116Y73011D01*
G75*
G01X249117Y73012D02*
G02X249267Y72862I0J-150D01*
G01*
G01X249266Y72861D02*
G01X249266Y70161D01*
G75*
G01X249267Y70162D02*
G02X249117Y70012I-150J0D01*
G01*
G01X249116Y70011D02*
G01X245916Y70011D01*
G75*
G01X245917Y70012D02*
G02X245767Y70162I0J150D01*
G01*
G01X245766Y70161D02*
G01X245766Y72861D01*
G75*
G01X269493Y72862D02*
G02X269643Y73012I150J0D01*
G01*
G01X269643Y73011D02*
G01X272843Y73011D01*
G75*
G01X272843Y73012D02*
G02X272993Y72862I0J-150D01*
G01*
G01X272993Y72861D02*
G01X272993Y70161D01*
G75*
G01X272993Y70162D02*
G02X272843Y70012I-150J0D01*
G01*
G01X272843Y70011D02*
G01X269643Y70011D01*
G75*
G01X269643Y70012D02*
G02X269493Y70162I0J150D01*
G01*
G01X269493Y70161D02*
G01X269493Y72861D01*
G75*
G01X14703Y53809D02*
G02X14853Y53959I150J0D01*
G01*
G01X14852Y53958D02*
G01X18052Y53958D01*
G75*
G01X18053Y53959D02*
G02X18203Y53809I0J-150D01*
G01*
G01X18202Y53808D02*
G01X18202Y51108D01*
G75*
G01X18203Y51109D02*
G02X18053Y50959I-150J0D01*
G01*
G01X18052Y50958D02*
G01X14852Y50958D01*
G75*
G01X14853Y50959D02*
G02X14703Y51109I0J150D01*
G01*
G01X14702Y51108D02*
G01X14702Y53808D01*
G75*
G01X40977Y53809D02*
G02X41127Y53959I150J0D01*
G01*
G01X41127Y53958D02*
G01X44327Y53958D01*
G75*
G01X44327Y53959D02*
G02X44477Y53809I0J-150D01*
G01*
G01X44477Y53808D02*
G01X44477Y51108D01*
G75*
G01X44477Y51109D02*
G02X44327Y50959I-150J0D01*
G01*
G01X44327Y50958D02*
G01X41127Y50958D01*
G75*
G01X41127Y50959D02*
G02X40977Y51109I0J150D01*
G01*
G01X40977Y51108D02*
G01X40977Y53808D01*
G75*
G01X60027Y53809D02*
G02X60177Y53959I150J0D01*
G01*
G01X60177Y53958D02*
G01X63377Y53958D01*
G75*
G01X63377Y53959D02*
G02X63527Y53809I0J-150D01*
G01*
G01X63527Y53808D02*
G01X63527Y51108D01*
G75*
G01X63527Y51109D02*
G02X63377Y50959I-150J0D01*
G01*
G01X63377Y50958D02*
G01X60177Y50958D01*
G75*
G01X60177Y50959D02*
G02X60027Y51109I0J150D01*
G01*
G01X60027Y51108D02*
G01X60027Y53808D01*
G75*
G01X79077Y53809D02*
G02X79227Y53959I150J0D01*
G01*
G01X79227Y53958D02*
G01X82427Y53958D01*
G75*
G01X82427Y53959D02*
G02X82577Y53809I0J-150D01*
G01*
G01X82577Y53808D02*
G01X82577Y51108D01*
G75*
G01X82577Y51109D02*
G02X82427Y50959I-150J0D01*
G01*
G01X82427Y50958D02*
G01X79227Y50958D01*
G75*
G01X79227Y50959D02*
G02X79077Y51109I0J150D01*
G01*
G01X79077Y51108D02*
G01X79077Y53808D01*
G75*
G01X98127Y53809D02*
G02X98277Y53959I150J0D01*
G01*
G01X98277Y53958D02*
G01X101477Y53958D01*
G75*
G01X101477Y53959D02*
G02X101627Y53809I0J-150D01*
G01*
G01X101627Y53808D02*
G01X101627Y51108D01*
G75*
G01X101627Y51109D02*
G02X101477Y50959I-150J0D01*
G01*
G01X101477Y50958D02*
G01X98277Y50958D01*
G75*
G01X98277Y50959D02*
G02X98127Y51109I0J150D01*
G01*
G01X98127Y51108D02*
G01X98127Y53808D01*
G75*
G01X117177Y53809D02*
G02X117327Y53959I150J0D01*
G01*
G01X117327Y53958D02*
G01X120527Y53958D01*
G75*
G01X120527Y53959D02*
G02X120677Y53809I0J-150D01*
G01*
G01X120677Y53808D02*
G01X120677Y51108D01*
G75*
G01X120677Y51109D02*
G02X120527Y50959I-150J0D01*
G01*
G01X120527Y50958D02*
G01X117327Y50958D01*
G75*
G01X117327Y50959D02*
G02X117177Y51109I0J150D01*
G01*
G01X117177Y51108D02*
G01X117177Y53808D01*
G75*
G01X136227Y53809D02*
G02X136377Y53959I150J0D01*
G01*
G01X136377Y53958D02*
G01X139577Y53958D01*
G75*
G01X139577Y53959D02*
G02X139727Y53809I0J-150D01*
G01*
G01X139727Y53808D02*
G01X139727Y51108D01*
G75*
G01X139727Y51109D02*
G02X139577Y50959I-150J0D01*
G01*
G01X139577Y50958D02*
G01X136377Y50958D01*
G75*
G01X136377Y50959D02*
G02X136227Y51109I0J150D01*
G01*
G01X136227Y51108D02*
G01X136227Y53808D01*
G75*
G01X155277Y53809D02*
G02X155427Y53959I150J0D01*
G01*
G01X155427Y53958D02*
G01X158627Y53958D01*
G75*
G01X158627Y53959D02*
G02X158777Y53809I0J-150D01*
G01*
G01X158777Y53808D02*
G01X158777Y51108D01*
G75*
G01X158777Y51109D02*
G02X158627Y50959I-150J0D01*
G01*
G01X158627Y50958D02*
G01X155427Y50958D01*
G75*
G01X155427Y50959D02*
G02X155277Y51109I0J150D01*
G01*
G01X155277Y51108D02*
G01X155277Y53808D01*
G75*
G01X174327Y53809D02*
G02X174477Y53959I150J0D01*
G01*
G01X174477Y53958D02*
G01X177677Y53958D01*
G75*
G01X177677Y53959D02*
G02X177827Y53809I0J-150D01*
G01*
G01X177827Y53808D02*
G01X177827Y51108D01*
G75*
G01X177827Y51109D02*
G02X177677Y50959I-150J0D01*
G01*
G01X177677Y50958D02*
G01X174477Y50958D01*
G75*
G01X174477Y50959D02*
G02X174327Y51109I0J150D01*
G01*
G01X174327Y51108D02*
G01X174327Y53808D01*
G75*
G01X193377Y53809D02*
G02X193527Y53959I150J0D01*
G01*
G01X193526Y53958D02*
G01X196726Y53958D01*
G75*
G01X196727Y53959D02*
G02X196877Y53809I0J-150D01*
G01*
G01X196876Y53808D02*
G01X196876Y51108D01*
G75*
G01X196877Y51109D02*
G02X196727Y50959I-150J0D01*
G01*
G01X196726Y50958D02*
G01X193526Y50958D01*
G75*
G01X193527Y50959D02*
G02X193377Y51109I0J150D01*
G01*
G01X193376Y51108D02*
G01X193376Y53808D01*
G75*
G01X212427Y53809D02*
G02X212577Y53959I150J0D01*
G01*
G01X212576Y53958D02*
G01X215776Y53958D01*
G75*
G01X215777Y53959D02*
G02X215927Y53809I0J-150D01*
G01*
G01X215926Y53808D02*
G01X215926Y51108D01*
G75*
G01X215927Y51109D02*
G02X215777Y50959I-150J0D01*
G01*
G01X215776Y50958D02*
G01X212576Y50958D01*
G75*
G01X212577Y50959D02*
G02X212427Y51109I0J150D01*
G01*
G01X212426Y51108D02*
G01X212426Y53808D01*
G75*
G01X231477Y53809D02*
G02X231627Y53959I150J0D01*
G01*
G01X231626Y53958D02*
G01X234826Y53958D01*
G75*
G01X234827Y53959D02*
G02X234977Y53809I0J-150D01*
G01*
G01X234976Y53808D02*
G01X234976Y51108D01*
G75*
G01X234977Y51109D02*
G02X234827Y50959I-150J0D01*
G01*
G01X234826Y50958D02*
G01X231626Y50958D01*
G75*
G01X231627Y50959D02*
G02X231477Y51109I0J150D01*
G01*
G01X231476Y51108D02*
G01X231476Y53808D01*
G75*
G01X262354Y53809D02*
G02X262504Y53959I150J0D01*
G01*
G01X262503Y53958D02*
G01X265703Y53958D01*
G75*
G01X265704Y53959D02*
G02X265854Y53809I0J-150D01*
G01*
G01X265853Y53808D02*
G01X265853Y51108D01*
G75*
G01X265854Y51109D02*
G02X265704Y50959I-150J0D01*
G01*
G01X265703Y50958D02*
G01X262503Y50958D01*
G75*
G01X262504Y50959D02*
G02X262354Y51109I0J150D01*
G01*
G01X262353Y51108D02*
G01X262353Y53808D01*
G75*
G01X17084Y34752D02*
G02X17234Y34902I150J0D01*
G01*
G01X17234Y34901D02*
G01X20433Y34901D01*
G75*
G01X20434Y34902D02*
G02X20584Y34752I0J-150D01*
G01*
G01X20584Y34751D02*
G01X20584Y32051D01*
G75*
G01X20584Y32052D02*
G02X20434Y31902I-150J0D01*
G01*
G01X20433Y31901D02*
G01X17234Y31901D01*
G75*
G01X17234Y31902D02*
G02X17084Y32052I0J150D01*
G01*
G01X17083Y32051D02*
G01X17083Y34751D01*
G75*
G01X45737Y34752D02*
G02X45887Y34902I150J0D01*
G01*
G01X45887Y34901D02*
G01X49087Y34901D01*
G75*
G01X49087Y34902D02*
G02X49237Y34752I0J-150D01*
G01*
G01X49237Y34751D02*
G01X49237Y32051D01*
G75*
G01X49237Y32052D02*
G02X49087Y31902I-150J0D01*
G01*
G01X49087Y31901D02*
G01X45887Y31901D01*
G75*
G01X45887Y31902D02*
G02X45737Y32052I0J150D01*
G01*
G01X45737Y32051D02*
G01X45737Y34751D01*
G75*
G01X64787Y34752D02*
G02X64937Y34902I150J0D01*
G01*
G01X64937Y34901D02*
G01X68137Y34901D01*
G75*
G01X68137Y34902D02*
G02X68287Y34752I0J-150D01*
G01*
G01X68287Y34751D02*
G01X68287Y32051D01*
G75*
G01X68287Y32052D02*
G02X68137Y31902I-150J0D01*
G01*
G01X68137Y31901D02*
G01X64937Y31901D01*
G75*
G01X64937Y31902D02*
G02X64787Y32052I0J150D01*
G01*
G01X64787Y32051D02*
G01X64787Y34751D01*
G75*
G01X83847Y34752D02*
G02X83997Y34902I150J0D01*
G01*
G01X83997Y34901D02*
G01X87197Y34901D01*
G75*
G01X87197Y34902D02*
G02X87347Y34752I0J-150D01*
G01*
G01X87347Y34751D02*
G01X87347Y32051D01*
G75*
G01X87347Y32052D02*
G02X87197Y31902I-150J0D01*
G01*
G01X87197Y31901D02*
G01X83997Y31901D01*
G75*
G01X83997Y31902D02*
G02X83847Y32052I0J150D01*
G01*
G01X83847Y32051D02*
G01X83847Y34751D01*
G75*
G01X102897Y34752D02*
G02X103047Y34902I150J0D01*
G01*
G01X103047Y34901D02*
G01X106247Y34901D01*
G75*
G01X106247Y34902D02*
G02X106397Y34752I0J-150D01*
G01*
G01X106397Y34751D02*
G01X106397Y32051D01*
G75*
G01X106397Y32052D02*
G02X106247Y31902I-150J0D01*
G01*
G01X106247Y31901D02*
G01X103047Y31901D01*
G75*
G01X103047Y31902D02*
G02X102897Y32052I0J150D01*
G01*
G01X102897Y32051D02*
G01X102897Y34751D01*
G75*
G01X121947Y34752D02*
G02X122097Y34902I150J0D01*
G01*
G01X122097Y34901D02*
G01X125297Y34901D01*
G75*
G01X125297Y34902D02*
G02X125447Y34752I0J-150D01*
G01*
G01X125447Y34751D02*
G01X125447Y32051D01*
G75*
G01X125447Y32052D02*
G02X125297Y31902I-150J0D01*
G01*
G01X125297Y31901D02*
G01X122097Y31901D01*
G75*
G01X122097Y31902D02*
G02X121947Y32052I0J150D01*
G01*
G01X121947Y32051D02*
G01X121947Y34751D01*
G75*
G01X140987Y34752D02*
G02X141137Y34902I150J0D01*
G01*
G01X141137Y34901D02*
G01X144337Y34901D01*
G75*
G01X144337Y34902D02*
G02X144487Y34752I0J-150D01*
G01*
G01X144487Y34751D02*
G01X144487Y32051D01*
G75*
G01X144487Y32052D02*
G02X144337Y31902I-150J0D01*
G01*
G01X144337Y31901D02*
G01X141137Y31901D01*
G75*
G01X141137Y31902D02*
G02X140987Y32052I0J150D01*
G01*
G01X140987Y32051D02*
G01X140987Y34751D01*
G75*
G01X160037Y34752D02*
G02X160187Y34902I150J0D01*
G01*
G01X160187Y34901D02*
G01X163386Y34901D01*
G75*
G01X163387Y34902D02*
G02X163537Y34752I0J-150D01*
G01*
G01X163537Y34751D02*
G01X163537Y32051D01*
G75*
G01X163537Y32052D02*
G02X163387Y31902I-150J0D01*
G01*
G01X163386Y31901D02*
G01X160187Y31901D01*
G75*
G01X160187Y31902D02*
G02X160037Y32052I0J150D01*
G01*
G01X160036Y32051D02*
G01X160036Y34751D01*
G75*
G01X179097Y34752D02*
G02X179247Y34902I150J0D01*
G01*
G01X179246Y34901D02*
G01X182446Y34901D01*
G75*
G01X182447Y34902D02*
G02X182597Y34752I0J-150D01*
G01*
G01X182596Y34751D02*
G01X182596Y32051D01*
G75*
G01X182597Y32052D02*
G02X182447Y31902I-150J0D01*
G01*
G01X182446Y31901D02*
G01X179246Y31901D01*
G75*
G01X179247Y31902D02*
G02X179097Y32052I0J150D01*
G01*
G01X179096Y32051D02*
G01X179096Y34751D01*
G75*
G01X198137Y34752D02*
G02X198287Y34902I150J0D01*
G01*
G01X198286Y34901D02*
G01X201486Y34901D01*
G75*
G01X201487Y34902D02*
G02X201637Y34752I0J-150D01*
G01*
G01X201636Y34751D02*
G01X201636Y32051D01*
G75*
G01X201637Y32052D02*
G02X201487Y31902I-150J0D01*
G01*
G01X201486Y31901D02*
G01X198286Y31901D01*
G75*
G01X198287Y31902D02*
G02X198137Y32052I0J150D01*
G01*
G01X198136Y32051D02*
G01X198136Y34751D01*
G75*
G01X217197Y34752D02*
G02X217347Y34902I150J0D01*
G01*
G01X217346Y34901D02*
G01X220546Y34901D01*
G75*
G01X220547Y34902D02*
G02X220697Y34752I0J-150D01*
G01*
G01X220696Y34751D02*
G01X220696Y32051D01*
G75*
G01X220697Y32052D02*
G02X220547Y31902I-150J0D01*
G01*
G01X220546Y31901D02*
G01X217346Y31901D01*
G75*
G01X217347Y31902D02*
G02X217197Y32052I0J150D01*
G01*
G01X217196Y32051D02*
G01X217196Y34751D01*
G75*
G01X236237Y34752D02*
G02X236387Y34902I150J0D01*
G01*
G01X236386Y34901D02*
G01X239586Y34901D01*
G75*
G01X239587Y34902D02*
G02X239737Y34752I0J-150D01*
G01*
G01X239736Y34751D02*
G01X239736Y32051D01*
G75*
G01X239737Y32052D02*
G02X239587Y31902I-150J0D01*
G01*
G01X239586Y31901D02*
G01X236386Y31901D01*
G75*
G01X236387Y31902D02*
G02X236237Y32052I0J150D01*
G01*
G01X236236Y32051D02*
G01X236236Y34751D01*
G75*
G01X255287Y34752D02*
G02X255437Y34902I150J0D01*
G01*
G01X255436Y34901D02*
G01X258636Y34901D01*
G75*
G01X258637Y34902D02*
G02X258787Y34752I0J-150D01*
G01*
G01X258786Y34751D02*
G01X258786Y32051D01*
G75*
G01X258787Y32052D02*
G02X258637Y31902I-150J0D01*
G01*
G01X258636Y31901D02*
G01X255436Y31901D01*
G75*
G01X255437Y31902D02*
G02X255287Y32052I0J150D01*
G01*
G01X255286Y32051D02*
G01X255286Y34751D01*
G75*
G01X274337Y34752D02*
G02X274487Y34902I150J0D01*
G01*
G01X274486Y34901D02*
G01X277686Y34901D01*
G75*
G01X277687Y34902D02*
G02X277837Y34752I0J-150D01*
G01*
G01X277836Y34751D02*
G01X277836Y32051D01*
G75*
G01X277837Y32052D02*
G02X277687Y31902I-150J0D01*
G01*
G01X277686Y31901D02*
G01X274486Y31901D01*
G75*
G01X274487Y31902D02*
G02X274337Y32052I0J150D01*
G01*
G01X274336Y32051D02*
G01X274336Y34751D01*
G75*
G01X9943Y15712D02*
G02X10093Y15862I150J0D01*
G01*
G01X10092Y15861D02*
G01X13292Y15861D01*
G75*
G01X13293Y15862D02*
G02X13443Y15712I0J-150D01*
G01*
G01X13442Y15711D02*
G01X13442Y13011D01*
G75*
G01X13443Y13012D02*
G02X13293Y12862I-150J0D01*
G01*
G01X13292Y12861D02*
G01X10092Y12861D01*
G75*
G01X10093Y12862D02*
G02X9943Y13012I0J150D01*
G01*
G01X9942Y13011D02*
G01X9942Y15711D01*
G75*
G01X33753Y15712D02*
G02X33903Y15862I150J0D01*
G01*
G01X33902Y15861D02*
G01X37102Y15861D01*
G75*
G01X37103Y15862D02*
G02X37253Y15712I0J-150D01*
G01*
G01X37252Y15711D02*
G01X37252Y13011D01*
G75*
G01X37253Y13012D02*
G02X37103Y12862I-150J0D01*
G01*
G01X37102Y12861D02*
G01X33902Y12861D01*
G75*
G01X33903Y12862D02*
G02X33753Y13012I0J150D01*
G01*
G01X33752Y13011D02*
G01X33752Y15711D01*
G75*
G01X57563Y15712D02*
G02X57713Y15862I150J0D01*
G01*
G01X57712Y15861D02*
G01X60912Y15861D01*
G75*
G01X60913Y15862D02*
G02X61063Y15712I0J-150D01*
G01*
G01X61062Y15711D02*
G01X61062Y13011D01*
G75*
G01X61063Y13012D02*
G02X60913Y12862I-150J0D01*
G01*
G01X60912Y12861D02*
G01X57712Y12861D01*
G75*
G01X57713Y12862D02*
G02X57563Y13012I0J150D01*
G01*
G01X57562Y13011D02*
G01X57562Y15711D01*
G75*
G01X129004Y15712D02*
G02X129154Y15862I150J0D01*
G01*
G01X129153Y15861D02*
G01X132353Y15861D01*
G75*
G01X132354Y15862D02*
G02X132504Y15712I0J-150D01*
G01*
G01X132503Y15711D02*
G01X132503Y13011D01*
G75*
G01X132504Y13012D02*
G02X132354Y12862I-150J0D01*
G01*
G01X132353Y12861D02*
G01X129153Y12861D01*
G75*
G01X129154Y12862D02*
G02X129004Y13012I0J150D01*
G01*
G01X129003Y13011D02*
G01X129003Y15711D01*
G75*
G01X198137Y15712D02*
G02X198287Y15862I150J0D01*
G01*
G01X198286Y15861D02*
G01X201486Y15861D01*
G75*
G01X201487Y15862D02*
G02X201637Y15712I0J-150D01*
G01*
G01X201636Y15711D02*
G01X201636Y13011D01*
G75*
G01X201637Y13012D02*
G02X201487Y12862I-150J0D01*
G01*
G01X201486Y12861D02*
G01X198286Y12861D01*
G75*
G01X198287Y12862D02*
G02X198137Y13012I0J150D01*
G01*
G01X198136Y13011D02*
G01X198136Y15711D01*
G75*
G01X217197Y15712D02*
G02X217347Y15862I150J0D01*
G01*
G01X217346Y15861D02*
G01X220546Y15861D01*
G75*
G01X220547Y15862D02*
G02X220697Y15712I0J-150D01*
G01*
G01X220696Y15712D02*
G01X220696Y13011D01*
G75*
G01X220697Y13012D02*
G02X220547Y12862I-150J0D01*
G01*
G01X220546Y12862D02*
G01X217346Y12862D01*
G75*
G01X217347Y12862D02*
G02X217197Y13012I0J150D01*
G01*
G01X217196Y13011D02*
G01X217196Y15712D01*
G75*
G01X236237Y15712D02*
G02X236387Y15862I150J0D01*
G01*
G01X236386Y15861D02*
G01X239586Y15861D01*
G75*
G01X239587Y15862D02*
G02X239737Y15712I0J-150D01*
G01*
G01X239736Y15711D02*
G01X239736Y13011D01*
G75*
G01X239737Y13012D02*
G02X239587Y12862I-150J0D01*
G01*
G01X239586Y12861D02*
G01X236386Y12861D01*
G75*
G01X236387Y12862D02*
G02X236237Y13012I0J150D01*
G01*
G01X236236Y13011D02*
G01X236236Y15711D01*
G75*
G01X255287Y15712D02*
G02X255437Y15862I150J0D01*
G01*
G01X255436Y15861D02*
G01X258636Y15861D01*
G75*
G01X258637Y15862D02*
G02X258787Y15712I0J-150D01*
G01*
G01X258786Y15711D02*
G01X258786Y13011D01*
G75*
G01X258787Y13012D02*
G02X258637Y12862I-150J0D01*
G01*
G01X258636Y12861D02*
G01X255436Y12861D01*
G75*
G01X255437Y12862D02*
G02X255287Y13012I0J150D01*
G01*
G01X255286Y13011D02*
G01X255286Y15711D01*
G75*
G01X274337Y15712D02*
G02X274487Y15862I150J0D01*
G01*
G01X274486Y15861D02*
G01X277686Y15861D01*
G75*
G01X277687Y15862D02*
G02X277837Y15712I0J-150D01*
G01*
G01X277836Y15711D02*
G01X277836Y13011D01*
G75*
G01X277837Y13012D02*
G02X277687Y12862I-150J0D01*
G01*
G01X277686Y12861D02*
G01X274486Y12861D01*
G75*
G01X274487Y12862D02*
G02X274337Y13012I0J150D01*
G01*
G01X274336Y13011D02*
G01X274336Y15711D01*
G75*
G01X4Y92912D02*
G02X2020Y94928I1984J31D01*
G01*
G75*
G01X1984Y2D02*
G02X0Y1986I0J1984D01*
G01*
G75*
G01X285383Y2032D02*
G02X283351Y0I-2032J0D01*
G01*
G75*
G01X283353Y94932D02*
G02X285386Y92900I1J-2032D01*
G01*
G75*
G01X12954Y94932D02*
G03X13335Y95313I0J381D01*
G01*
G75*
G01X13324Y95222D02*
G02X13832Y95730I508J0D01*
G01*
G75*
G01X23434Y95222D02*
G03X22926Y95730I-508J0D01*
G01*
G75*
G01X23814Y94932D02*
G02X23433Y95313I0J381D01*
G01*

%LPD*%
M00*
M02*
