;Layer: Drill PTH
;EasyEDA v6.4.5, 2020-09-09T00:36:17+08:00
;436c0c316ad34c3b9159c99bcd304625,98eef565fa774a6b8f51c3c50c7f61d6,10
;Gerber Generator version 0.2
M48
METRIC,LZ,000.000
;Holesize 1 = 0.306 METRIC
T01C0.306
;Holesize 2 = 0.600 METRIC
T02C0.600
;Holesize 3 = 0.611 METRIC
T03C0.611
;Holesize 4 = 1.499 METRIC
T04C1.499
;Holesize 5 = 3.000 METRIC
T05C3.000
%
G05
G90
T01
X+036203Y+037961
X+034743Y+041951
X+089383Y+056861
X+089383Y+057770
X+013513Y+075891
X+013513Y+076711
X+019124Y+086948
X+017633Y+086949
X+084245Y+008553
X+084245Y+009360
X+084245Y+010143
X+101263Y+002511
X+099943Y+002511
X+098873Y+002511
X+097663Y+002511
X+111513Y+021391
X+092463Y+021391
X+065023Y+015111
X+125003Y+013612
X+025587Y+089808
X+101273Y+020161
X+069216Y+059491
X+075273Y+018031
X+050264Y+017971
X+094364Y+023732
X+095763Y+023732
X+094483Y+022352
X+197282Y+020496
X+154770Y+018941
X+173002Y+018111
X+113354Y+040441
X+115283Y+018811
X+113383Y+037971
X+115403Y+025122
X+119873Y+019670
X+123623Y+019681
X+136452Y+019670
X+012134Y+091311
X+114874Y+003272
X+033638Y+089057
X+033638Y+089681
X+033014Y+089681
X+033014Y+089057
X+052688Y+089037
X+052688Y+089661
X+052064Y+089661
X+052064Y+089037
X+071777Y+089037
X+071777Y+089661
X+071153Y+089661
X+071153Y+089037
X+090928Y+089067
X+090928Y+089691
X+090303Y+089691
X+090303Y+089067
X+110008Y+089017
X+110008Y+089641
X+109383Y+089641
X+109383Y+089017
X+129097Y+089057
X+129097Y+089681
X+128473Y+089681
X+128473Y+089057
X+148147Y+089017
X+148147Y+089641
X+147523Y+089641
X+147523Y+089017
X+167127Y+089017
X+167127Y+089641
X+166503Y+089641
X+166503Y+089017
X+186127Y+089017
X+186127Y+089641
X+185503Y+089641
X+185503Y+089017
X+205177Y+089037
X+205177Y+089661
X+204553Y+089661
X+204553Y+089037
X+224277Y+089017
X+224277Y+089641
X+223653Y+089641
X+223653Y+089017
X+243327Y+089017
X+243327Y+089641
X+242703Y+089641
X+242703Y+089017
X+272007Y+089457
X+272007Y+090081
X+271383Y+090081
X+271383Y+089457
X+019418Y+069997
X+019418Y+070621
X+018794Y+070621
X+018794Y+069997
X+043347Y+069997
X+043347Y+070621
X+042723Y+070621
X+042723Y+069997
X+062288Y+070017
X+062288Y+070641
X+061663Y+070641
X+061663Y+070017
X+081338Y+069997
X+081338Y+070621
X+080713Y+070621
X+080713Y+069997
X+100337Y+069997
X+100337Y+070621
X+099713Y+070621
X+099713Y+069997
X+119517Y+069997
X+119517Y+070621
X+118893Y+070621
X+118893Y+069997
X+138517Y+069997
X+138517Y+070621
X+137893Y+070621
X+137893Y+069997
X+157597Y+069997
X+157597Y+070621
X+156973Y+070621
X+156973Y+069997
X+176567Y+069997
X+176567Y+070621
X+175943Y+070621
X+175943Y+069997
X+195717Y+070017
X+195717Y+070641
X+195093Y+070641
X+195093Y+070017
X+214747Y+069997
X+214747Y+070621
X+214123Y+070621
X+214123Y+069997
X+233917Y+070017
X+233917Y+070641
X+233293Y+070641
X+233293Y+070017
X+252917Y+069997
X+252917Y+070621
X+252293Y+070621
X+252293Y+069997
X+276747Y+070297
X+276747Y+070921
X+276123Y+070921
X+276123Y+070297
X+269687Y+051097
X+269687Y+051721
X+269063Y+051721
X+269063Y+051097
X+238647Y+050947
X+238647Y+051571
X+238023Y+051571
X+238023Y+050947
X+219547Y+050947
X+219547Y+051571
X+218923Y+051571
X+218923Y+050947
X+200417Y+050947
X+200417Y+051571
X+199793Y+051571
X+199793Y+050947
X+181447Y+050947
X+181447Y+051571
X+180823Y+051571
X+180823Y+050947
X+162347Y+050947
X+162347Y+051571
X+161723Y+051571
X+161723Y+050947
X+143317Y+050947
X+143317Y+051571
X+142693Y+051571
X+142693Y+050947
X+124397Y+050967
X+124397Y+051591
X+123773Y+051591
X+123773Y+050967
X+105297Y+050947
X+105297Y+051571
X+104673Y+051571
X+104673Y+050947
X+086297Y+050947
X+086297Y+051571
X+085673Y+051571
X+085673Y+050947
X+067167Y+050947
X+067167Y+051571
X+066543Y+051571
X+066543Y+050947
X+047988Y+050967
X+047988Y+051591
X+047363Y+051591
X+047363Y+050967
X+021698Y+050947
X+021698Y+051571
X+021073Y+051571
X+021073Y+050947
X+024217Y+032177
X+024217Y+032801
X+023593Y+032801
X+023593Y+032177
X+052917Y+032147
X+052917Y+032772
X+052293Y+032772
X+052293Y+032147
X+071997Y+032147
X+071997Y+032772
X+071373Y+032772
X+071373Y+032147
X+090887Y+031997
X+090263Y+032621
X+090263Y+031997
X+110047Y+032127
X+110047Y+032751
X+109423Y+032751
X+109423Y+032127
X+129097Y+032097
X+129097Y+032721
X+128473Y+032721
X+128473Y+032097
X+148197Y+032147
X+148197Y+032772
X+147573Y+032772
X+147573Y+032147
X+167087Y+032147
X+167087Y+032772
X+166463Y+032772
X+166463Y+032147
X+186247Y+032127
X+186247Y+032751
X+185623Y+032751
X+185623Y+032127
X+205347Y+032127
X+205347Y+032751
X+204723Y+032751
X+204723Y+032127
X+224347Y+032147
X+224347Y+032772
X+223723Y+032772
X+223723Y+032147
X+243417Y+032177
X+243417Y+032801
X+242793Y+032801
X+242793Y+032177
X+262267Y+032197
X+262267Y+032821
X+261643Y+032821
X+261643Y+032197
X+280563Y+033001
X+280563Y+032377
X+280693Y+013901
X+280693Y+013277
X+262367Y+013127
X+262367Y+013751
X+261743Y+013751
X+261743Y+013127
X+243267Y+013147
X+243267Y+013772
X+242643Y+013772
X+242643Y+013147
X+224187Y+013127
X+224187Y+013751
X+223563Y+013751
X+223563Y+013127
X+205137Y+013147
X+205137Y+013772
X+204513Y+013772
X+204513Y+013147
X+136007Y+013127
X+136007Y+013751
X+135383Y+013751
X+135383Y+013127
X+064658Y+013027
X+064658Y+013651
X+064034Y+013651
X+064034Y+013027
X+040908Y+013127
X+040908Y+013751
X+040283Y+013751
X+040283Y+013127
X+017008Y+013127
X+017008Y+013751
X+016384Y+013751
X+016384Y+013127
X+001764Y+073621
X+001764Y+074245
X+001140Y+074245
X+001140Y+073621
X+041224Y+079821
X+041224Y+080445
X+040599Y+080445
X+040599Y+079821
X+029398Y+093697
X+029398Y+094321
X+028773Y+094321
X+028773Y+093697
X+002248Y+092831
X+002248Y+093455
X+001623Y+093455
X+001623Y+092831
X+038247Y+090927
X+038247Y+091551
X+037623Y+091551
X+037623Y+090927
X+057128Y+090967
X+057128Y+091591
X+056503Y+091591
X+056503Y+090967
X+076283Y+090951
X+076283Y+091576
X+075659Y+091576
X+075659Y+090951
X+095207Y+090967
X+095207Y+091591
X+094583Y+091591
X+094583Y+090967
X+114297Y+090897
X+114297Y+091521
X+113673Y+091521
X+113673Y+090897
X+133407Y+090947
X+133407Y+091571
X+132783Y+091571
X+132783Y+090947
X+152437Y+090947
X+152437Y+091571
X+151813Y+091571
X+151813Y+090947
X+171507Y+090987
X+171507Y+091611
X+170883Y+091611
X+170883Y+090987
X+190607Y+090967
X+190607Y+091591
X+189983Y+091591
X+189983Y+090967
X+209757Y+090947
X+209757Y+091571
X+209133Y+091571
X+209133Y+090947
X+228617Y+090967
X+228617Y+091591
X+227993Y+091591
X+227993Y+090967
X+257953Y+090531
X+261827Y+071907
X+261827Y+072531
X+261203Y+072531
X+261203Y+071907
X+238227Y+071877
X+238227Y+072501
X+237603Y+072501
X+237603Y+071877
X+219207Y+071937
X+219207Y+072561
X+218583Y+072561
X+218583Y+071937
X+200077Y+071937
X+200077Y+072561
X+199453Y+072561
X+199453Y+071937
X+181107Y+071937
X+181107Y+072561
X+180483Y+072561
X+180483Y+071937
X+162027Y+071907
X+162027Y+072531
X+161403Y+072531
X+161403Y+071907
X+143007Y+071937
X+143007Y+072561
X+142383Y+072561
X+142383Y+071937
X+123757Y+071937
X+123757Y+072561
X+123133Y+072561
X+123133Y+071937
X+104907Y+071937
X+104907Y+072561
X+104283Y+072561
X+104283Y+071937
X+085658Y+071907
X+085658Y+072531
X+085033Y+072531
X+085033Y+071907
X+066917Y+071907
X+066917Y+072531
X+066293Y+072531
X+066293Y+071907
X+047787Y+071937
X+047787Y+072561
X+047163Y+072561
X+047163Y+071937
X+028288Y+071907
X+028288Y+072531
X+027664Y+072531
X+027664Y+071907
X+007483Y+073802
X+006859Y+073802
X+019874Y+091241
X+016943Y+091241
X+009798Y+054857
X+009174Y+054857
X+033578Y+052857
X+033578Y+053481
X+032954Y+053481
X+032954Y+052857
X+032308Y+042937
X+032308Y+043561
X+031684Y+043561
X+031684Y+042937
X+052688Y+052877
X+052688Y+053501
X+052064Y+053501
X+052064Y+052877
X+072123Y+052847
X+072123Y+053472
X+090907Y+052877
X+090907Y+053501
X+090283Y+053501
X+090283Y+052877
X+109957Y+052827
X+109957Y+053451
X+109333Y+053451
X+109333Y+052827
X+128827Y+052847
X+128827Y+053471
X+128203Y+053471
X+128203Y+052847
X+147717Y+052857
X+147717Y+053481
X+147093Y+053481
X+147093Y+052857
X+166887Y+052847
X+166887Y+053471
X+166263Y+053471
X+166263Y+052847
X+185817Y+052857
X+185817Y+053481
X+185193Y+053481
X+185193Y+052857
X+204987Y+052847
X+204987Y+053471
X+204363Y+053471
X+204363Y+052847
X+223967Y+052847
X+223967Y+053471
X+223343Y+053471
X+223343Y+052847
X+255247Y+052827
X+255247Y+053451
X+254623Y+053451
X+254623Y+052827
X+266817Y+033797
X+266817Y+034422
X+266193Y+034422
X+266193Y+033797
X+247897Y+033807
X+247897Y+034431
X+247273Y+034431
X+247273Y+033807
X+228697Y+033777
X+228697Y+034401
X+228073Y+034401
X+228073Y+033777
X+209627Y+033777
X+209627Y+034401
X+209003Y+034401
X+209003Y+033777
X+190557Y+033797
X+190557Y+034422
X+189933Y+034422
X+189933Y+033797
X+171447Y+033777
X+171447Y+034401
X+170823Y+034401
X+170823Y+033777
X+152457Y+033777
X+152457Y+034401
X+151833Y+034401
X+151833Y+033777
X+133397Y+033777
X+133397Y+034401
X+132773Y+034401
X+132773Y+033777
X+116883Y+035371
X+116259Y+035371
X+095347Y+033797
X+095347Y+034422
X+094723Y+034422
X+094723Y+033797
X+076327Y+033777
X+076327Y+034401
X+075703Y+034401
X+075703Y+033777
X+057247Y+033757
X+057247Y+034381
X+056623Y+034381
X+056623Y+033757
X+038208Y+033797
X+038208Y+034422
X+037583Y+034422
X+037583Y+033797
X+012128Y+035741
X+011504Y+035741
X+005125Y+016631
X+004500Y+016631
X+026698Y+014727
X+026698Y+015351
X+026073Y+015351
X+026073Y+014727
X+050537Y+014757
X+050537Y+015381
X+049913Y+015381
X+049913Y+014757
X+088027Y+017127
X+088027Y+017751
X+087403Y+017751
X+087403Y+017127
X+084787Y+004838
X+084787Y+005462
X+084163Y+005462
X+084163Y+004838
X+089677Y+002247
X+089677Y+002871
X+089053Y+002871
X+089053Y+002247
X+114037Y+004928
X+114037Y+005551
X+113413Y+005551
X+113413Y+004928
X+119947Y+012847
X+119947Y+013471
X+119323Y+013471
X+119323Y+012847
X+119877Y+017077
X+119877Y+017701
X+119253Y+017701
X+119253Y+017077
X+111013Y+018012
X+111013Y+017388
X+097377Y+028017
X+097377Y+028641
X+096753Y+028641
X+096753Y+028017
X+124301Y+016631
X+123677Y+016631
X+190937Y+014757
X+190937Y+015381
X+190313Y+015381
X+190313Y+014757
X+209917Y+014747
X+209917Y+015372
X+209293Y+015372
X+209293Y+014747
X+228797Y+014747
X+228797Y+015372
X+228173Y+015372
X+228173Y+014747
X+247777Y+014747
X+247777Y+015372
X+247153Y+015372
X+247153Y+014747
X+266977Y+014747
X+266977Y+015372
X+266353Y+015372
X+266353Y+014747
X+006373Y+068011
X+006373Y+067387
X+109193Y+023052
X+108569Y+023052
X+096883Y+008462
X+096883Y+007838
X+096863Y+013402
X+096863Y+012778
X+099523Y+014981
X+098899Y+014981
X+101777Y+007362
X+101153Y+007362
X+104003Y+010722
X+104003Y+011346
T02
X+022703Y+094984G85X+022703Y+094184
X+014063Y+094984G85X+014063Y+094184
X+022704Y+090984G85X+022704Y+089884
X+014064Y+090984G85X+014064Y+089884
T03
X+068954Y+014951
X+091384Y+014951
X+029863Y+050422
X+029873Y+053391
X+004234Y+068961
X+009601Y+072272
X+091383Y+013361
X+091384Y+006173
X+092914Y+018992
X+105979Y+018992
X+113298Y+036152
X+104803Y+020242
X+107633Y+005281
T04
X+056792Y+004302
X+063142Y+006842
X+032982Y+004302
X+039332Y+006842
X+009172Y+004302
X+015522Y+006842
X+013932Y+042402
X+020282Y+044942
X+016312Y+023352
X+022662Y+025892
X+263962Y+080502
X+270312Y+083042
X+261582Y+042402
X+267932Y+044942
X+279832Y+006842
X+273482Y+004302
X+260782Y+006842
X+254432Y+004302
X+241732Y+006842
X+235382Y+004302
X+222692Y+006842
X+216342Y+004302
X+203632Y+006842
X+197282Y+004302
X+279832Y+025892
X+273482Y+023352
X+260782Y+025892
X+254432Y+023352
X+241732Y+025892
X+235382Y+023352
X+222692Y+025892
X+216342Y+023352
X+203632Y+025892
X+197282Y+023352
X+184592Y+025892
X+178242Y+023352
X+165532Y+025892
X+159182Y+023352
X+146482Y+025892
X+140132Y+023352
X+127442Y+025892
X+121092Y+023352
X+108392Y+025892
X+102042Y+023352
X+089342Y+025892
X+082992Y+023352
X+070282Y+025892
X+063932Y+023352
X+051232Y+025892
X+044882Y+023352
X+236972Y+044942
X+230622Y+042402
X+217922Y+044942
X+211572Y+042402
X+198872Y+044942
X+192522Y+042402
X+179822Y+044942
X+173472Y+042402
X+160772Y+044942
X+154422Y+042402
X+141722Y+044942
X+135372Y+042402
X+122672Y+044942
X+116322Y+042402
X+103622Y+044942
X+097272Y+042402
X+084572Y+044942
X+078222Y+042402
X+065522Y+044943
X+059172Y+042403
X+046472Y+044943
X+040122Y+042403
X+251262Y+063992
X+244912Y+061452
X+232212Y+063992
X+225862Y+061452
X+213162Y+063992
X+206812Y+061452
X+194112Y+063992
X+187762Y+061452
X+175062Y+063992
X+168712Y+061452
X+156012Y+063992
X+149662Y+061452
X+136962Y+063992
X+130612Y+061452
X+117912Y+063992
X+111562Y+061452
X+098862Y+063992
X+092512Y+061452
X+079812Y+063992
X+073462Y+061452
X+060762Y+063992
X+054412Y+061452
X+041712Y+063992
X+035362Y+061452
X+241742Y+083042
X+235392Y+080502
X+222692Y+083042
X+216342Y+080502
X+203642Y+083042
X+197292Y+080502
X+184582Y+083042
X+178232Y+080502
X+165532Y+083042
X+159182Y+080502
X+146492Y+083042
X+140142Y+080502
X+127442Y+083042
X+121092Y+080502
X+108382Y+083042
X+102032Y+080502
X+089332Y+083042
X+082982Y+080502
X+070282Y+083042
X+063932Y+080502
X+051242Y+083042
X+044892Y+080502
X+032182Y+083042
X+025832Y+080502
X+013142Y+083042
X+006792Y+080502
X+268722Y+061452
X+275072Y+063992
X+011552Y+061452
X+017902Y+063992
X+128232Y+004302
X+134582Y+006842
T05
X+023883Y+066841G85X+026883Y+066841
X+258763Y+066841G85X+261763Y+066841
X+126873Y+047431G85X+129873Y+047431
X+188513Y+009522G85X+191513Y+009522
M30
