;Layer: Drill NPTH
;EasyEDA v6.4.7, 2020-11-18T11:17:11+08:00
;fbb30233ba194d4b9104cbe7c287d4b3,98eef565fa774a6b8f51c3c50c7f61d6,10
;Gerber Generator version 0.2
M48
METRIC,LZ,000.000
;Holesize 1 = 1.701 METRIC
T01C1.701
;Holesize 2 = 3.000 METRIC
T02C3.000
;Holesize 3 = 3.048 METRIC
T03C3.048
;Holesize 4 = 3.988 METRIC
T04C3.988
;Holesize 5 = 4.000 METRIC
T05C4.000
;Holesize 6 = 4.064 METRIC
T06C4.064
%
G05
G90
T01
X+054233Y+009381
X+064393Y+009381
X+030423Y+009381
X+040583Y+009381
X+006614Y+009381
X+016774Y+009381
X+011373Y+047481
X+021533Y+047481
X+013753Y+028431
X+023913Y+028431
X+261403Y+085581
X+271563Y+085581
X+259023Y+047481
X+269183Y+047481
X+281083Y+009381
X+270923Y+009381
X+262033Y+009381
X+251873Y+009381
X+242983Y+009381
X+232823Y+009381
X+223943Y+009381
X+213783Y+009381
X+204883Y+009381
X+194723Y+009381
X+281083Y+028431
X+270923Y+028431
X+262033Y+028431
X+251873Y+028431
X+242983Y+028431
X+232823Y+028431
X+223943Y+028431
X+213783Y+028431
X+204883Y+028431
X+194723Y+028431
X+185843Y+028431
X+175683Y+028431
X+166783Y+028431
X+156623Y+028431
X+147733Y+028431
X+137573Y+028431
X+128693Y+028431
X+118533Y+028431
X+109643Y+028431
X+099483Y+028431
X+090593Y+028431
X+080433Y+028431
X+071533Y+028431
X+061373Y+028431
X+052483Y+028431
X+042323Y+028431
X+238223Y+047481
X+228063Y+047481
X+219173Y+047481
X+209013Y+047481
X+200123Y+047481
X+189963Y+047481
X+181073Y+047481
X+170913Y+047481
X+162023Y+047481
X+151863Y+047481
X+142973Y+047481
X+132813Y+047481
X+123923Y+047481
X+113763Y+047481
X+104873Y+047481
X+094713Y+047481
X+085823Y+047481
X+075663Y+047481
X+066773Y+047481
X+056613Y+047481
X+047723Y+047481
X+037563Y+047481
X+252513Y+066531
X+242353Y+066531
X+233463Y+066531
X+223303Y+066531
X+214413Y+066531
X+204253Y+066531
X+195363Y+066531
X+185203Y+066531
X+176313Y+066531
X+166153Y+066531
X+157263Y+066531
X+147103Y+066531
X+138213Y+066531
X+128053Y+066531
X+119163Y+066531
X+109003Y+066531
X+100113Y+066531
X+089953Y+066531
X+081063Y+066531
X+070903Y+066531
X+062013Y+066531
X+051853Y+066531
X+042963Y+066531
X+032803Y+066531
X+242993Y+085581
X+232833Y+085581
X+223943Y+085581
X+213783Y+085581
X+204893Y+085581
X+194733Y+085581
X+185833Y+085581
X+175673Y+085581
X+166783Y+085581
X+156623Y+085581
X+147743Y+085581
X+137583Y+085581
X+128693Y+085581
X+118533Y+085581
X+109633Y+085581
X+099473Y+085581
X+090583Y+085581
X+080423Y+085581
X+071533Y+085581
X+061373Y+085581
X+052494Y+085581
X+042334Y+085581
X+033433Y+085581
X+023273Y+085581
X+014394Y+085581
X+004234Y+085581
X+266163Y+066531
X+276323Y+066531
X+008993Y+066531
X+019153Y+066531
X+125673Y+009381
X+135833Y+009381
T02
X-000666Y+038251G85X+004333Y+038251
X+281043Y+038251G85X+286043Y+038251
T03
X+006895Y+035416
X+030710Y+035416
X+254545Y+092566
X+278360Y+092566
X+252198Y+054466
X+276013Y+054466
X+180753Y+002396
X+080753Y+002396
T04
X+006895Y+020176
X+030710Y+020176
X+254545Y+077326
X+278360Y+077326
X+252198Y+039226
X+276013Y+039226
T05
X+059313Y+009381
X+035503Y+009381
X+011694Y+009381
X+016453Y+047481
X+018833Y+028431
X+266483Y+085581
X+264103Y+047481
X+276003Y+009381
X+256953Y+009381
X+237903Y+009381
X+218863Y+009381
X+199803Y+009381
X+276003Y+028431
X+256953Y+028431
X+237903Y+028431
X+218863Y+028431
X+199803Y+028431
X+180763Y+028431
X+161703Y+028431
X+142653Y+028431
X+123613Y+028431
X+104563Y+028431
X+085513Y+028431
X+066453Y+028431
X+047403Y+028431
X+233143Y+047481
X+214093Y+047481
X+195043Y+047481
X+175993Y+047481
X+156943Y+047481
X+137893Y+047481
X+118843Y+047481
X+099793Y+047481
X+080743Y+047481
X+061693Y+047481
X+042643Y+047481
X+247433Y+066531
X+228383Y+066531
X+209333Y+066531
X+190283Y+066531
X+171233Y+066531
X+152183Y+066531
X+133133Y+066531
X+114083Y+066531
X+095033Y+066531
X+075983Y+066531
X+056933Y+066531
X+037883Y+066531
X+237913Y+085581
X+218863Y+085581
X+199813Y+085581
X+180753Y+085581
X+161703Y+085581
X+142663Y+085581
X+123613Y+085581
X+104553Y+085581
X+085503Y+085581
X+066453Y+085581
X+047414Y+085581
X+028353Y+085581
X+009314Y+085581
X+271243Y+066531
X+014073Y+066531
X+130753Y+009381
T06
X+180753Y+017636
X+080753Y+017636
M30
