G04 Layer: BottomSolderMaskLayer*
G04 EasyEDA v6.4.7, 2020-11-18T11:17:11+08:00*
G04 fbb30233ba194d4b9104cbe7c287d4b3,98eef565fa774a6b8f51c3c50c7f61d6,10*
G04 Gerber Generator version 0.2*
G04 Scale: 100 percent, Rotated: No, Reflected: No *
G04 Dimensions in millimeters *
G04 leading zeros omitted , absolute positions ,3 integer and 3 decimal *
%FSLAX33Y33*%
%MOMM*%
G90*
D02*

%ADD15C,2.999994*%
%ADD16C,3.499993*%
%ADD37C,1.203198*%
%ADD38C,2.743200*%
%ADD39C,0.703199*%

%LPD*%
G54D15*
G01X-666Y38251D02*
G01X4334Y38251D01*
G54D16*
G01X23884Y66841D02*
G01X26884Y66841D01*
G01X258763Y66841D02*
G01X261763Y66841D01*
G01X126873Y47431D02*
G01X129873Y47431D01*
G01X188513Y9521D02*
G01X191513Y9521D01*
G54D15*
G01X281043Y38251D02*
G01X286043Y38251D01*
G54D39*
G01X96323Y17802D02*
G01X96323Y16502D01*
G01X97123Y17802D02*
G01X97123Y16502D01*
G01X97923Y17802D02*
G01X97923Y16502D01*
G01X98723Y17802D02*
G01X98723Y16502D01*
G01X99523Y17802D02*
G01X99523Y16502D01*
G01X100323Y17802D02*
G01X100323Y16502D01*
G01X101123Y17802D02*
G01X101123Y16502D01*
G01X101923Y17802D02*
G01X101923Y16502D01*
G01X102723Y17802D02*
G01X102723Y16502D01*
G01X103523Y17802D02*
G01X103523Y16502D01*
G01X104323Y17802D02*
G01X104323Y16502D01*
G01X105873Y14952D02*
G01X107173Y14952D01*
G01X105873Y14152D02*
G01X107173Y14152D01*
G01X105873Y13352D02*
G01X107173Y13352D01*
G01X105873Y12552D02*
G01X107173Y12552D01*
G01X105873Y11752D02*
G01X107173Y11752D01*
G01X105873Y10952D02*
G01X107173Y10952D01*
G01X105873Y10152D02*
G01X107173Y10152D01*
G01X105873Y9352D02*
G01X107173Y9352D01*
G01X105873Y8552D02*
G01X107173Y8552D01*
G01X105873Y7752D02*
G01X107173Y7752D01*
G01X105873Y6952D02*
G01X107173Y6952D01*
G01X104323Y5402D02*
G01X104323Y4102D01*
G01X103523Y5402D02*
G01X103523Y4102D01*
G01X102723Y5402D02*
G01X102723Y4102D01*
G01X101923Y5402D02*
G01X101923Y4102D01*
G01X101123Y5402D02*
G01X101123Y4102D01*
G01X100323Y5402D02*
G01X100323Y4102D01*
G01X99523Y5402D02*
G01X99523Y4102D01*
G01X98723Y5402D02*
G01X98723Y4102D01*
G01X97923Y5402D02*
G01X97923Y4102D01*
G01X97123Y5402D02*
G01X97123Y4102D01*
G01X96323Y5402D02*
G01X96323Y4102D01*
G01X93473Y6952D02*
G01X94773Y6952D01*
G01X93473Y7752D02*
G01X94773Y7752D01*
G01X93473Y8552D02*
G01X94773Y8552D01*
G01X93473Y9352D02*
G01X94773Y9352D01*
G01X93473Y10152D02*
G01X94773Y10152D01*
G01X93473Y10952D02*
G01X94773Y10952D01*
G01X93473Y11752D02*
G01X94773Y11752D01*
G01X93473Y12552D02*
G01X94773Y12552D01*
G01X93473Y13352D02*
G01X94773Y13352D01*
G01X93473Y14152D02*
G01X94773Y14152D01*
G01X93473Y14952D02*
G01X94773Y14952D01*
G54D37*
G01X22704Y94184D02*
G01X22704Y94984D01*
G01X14064Y94184D02*
G01X14064Y94984D01*
G01X22704Y89884D02*
G01X22704Y90984D01*
G01X14064Y89884D02*
G01X14064Y90984D01*
G36*
G01X27473Y42855D02*
G01X27473Y44407D01*
G01X29675Y44407D01*
G01X29675Y42855D01*
G01X27473Y42855D01*
G37*
G36*
G01X27473Y47354D02*
G01X27473Y48908D01*
G01X29675Y48908D01*
G01X29675Y47354D01*
G01X27473Y47354D01*
G37*
G36*
G01X86322Y4224D02*
G01X86322Y5977D01*
G01X87526Y5977D01*
G01X87526Y4224D01*
G01X86322Y4224D01*
G37*
G36*
G01X88321Y4224D02*
G01X88321Y5977D01*
G01X89525Y5977D01*
G01X89525Y4224D01*
G01X88321Y4224D01*
G37*
G36*
G01X110991Y4395D02*
G01X110991Y6147D01*
G01X112195Y6147D01*
G01X112195Y4395D01*
G01X110991Y4395D01*
G37*
G36*
G01X108992Y4395D02*
G01X108992Y6147D01*
G01X110196Y6147D01*
G01X110196Y4395D01*
G01X108992Y4395D01*
G37*
G36*
G01X109002Y16505D02*
G01X109002Y18258D01*
G01X110206Y18258D01*
G01X110206Y16505D01*
G01X109002Y16505D01*
G37*
G36*
G01X107003Y16505D02*
G01X107003Y18258D01*
G01X108204Y18258D01*
G01X108204Y16505D01*
G01X107003Y16505D01*
G37*
G36*
G01X108253Y20465D02*
G01X108253Y22218D01*
G01X109454Y22218D01*
G01X109454Y20465D01*
G01X108253Y20465D01*
G37*
G36*
G01X106251Y20465D02*
G01X106251Y22218D01*
G01X107455Y22218D01*
G01X107455Y20465D01*
G01X106251Y20465D01*
G37*
G36*
G01X676Y78761D02*
G01X676Y79962D01*
G01X2431Y79962D01*
G01X2431Y78761D01*
G01X676Y78761D01*
G37*
G36*
G01X676Y76759D02*
G01X676Y77963D01*
G01X2431Y77963D01*
G01X2431Y76759D01*
G01X676Y76759D01*
G37*
G36*
G01X37567Y81600D02*
G01X37567Y82802D01*
G01X39320Y82802D01*
G01X39320Y81600D01*
G01X37567Y81600D01*
G37*
G36*
G01X37567Y79599D02*
G01X37567Y80803D01*
G01X39320Y80803D01*
G01X39320Y79599D01*
G01X37567Y79599D01*
G37*
G36*
G01X32982Y49020D02*
G01X32982Y50023D01*
G01X34085Y50023D01*
G01X34085Y49020D01*
G01X32982Y49020D01*
G37*
G36*
G01X32982Y47620D02*
G01X32982Y48624D01*
G01X34085Y48624D01*
G01X34085Y47620D01*
G01X32982Y47620D01*
G37*
G36*
G01X92223Y2020D02*
G01X92223Y3122D01*
G01X93226Y3122D01*
G01X93226Y2020D01*
G01X92223Y2020D01*
G37*
G36*
G01X90821Y2020D02*
G01X90821Y3122D01*
G01X91824Y3122D01*
G01X91824Y2020D01*
G01X90821Y2020D01*
G37*
G36*
G01X15472Y77839D02*
G01X15472Y79243D01*
G01X17074Y79243D01*
G01X17074Y77839D01*
G01X15472Y77839D01*
G37*
G36*
G01X15472Y81240D02*
G01X15472Y82642D01*
G01X17074Y82642D01*
G01X17074Y81240D01*
G01X15472Y81240D01*
G37*
G36*
G01X34511Y77839D02*
G01X34511Y79243D01*
G01X36114Y79243D01*
G01X36114Y77839D01*
G01X34511Y77839D01*
G37*
G36*
G01X34511Y81240D02*
G01X34511Y82642D01*
G01X36114Y82642D01*
G01X36114Y81240D01*
G01X34511Y81240D01*
G37*
G36*
G01X53572Y77839D02*
G01X53572Y79243D01*
G01X55174Y79243D01*
G01X55174Y77839D01*
G01X53572Y77839D01*
G37*
G36*
G01X53572Y81240D02*
G01X53572Y82642D01*
G01X55174Y82642D01*
G01X55174Y81240D01*
G01X53572Y81240D01*
G37*
G36*
G01X72611Y77839D02*
G01X72611Y79243D01*
G01X74214Y79243D01*
G01X74214Y77839D01*
G01X72611Y77839D01*
G37*
G36*
G01X72611Y81240D02*
G01X72611Y82642D01*
G01X74214Y82642D01*
G01X74214Y81240D01*
G01X72611Y81240D01*
G37*
G36*
G01X91661Y77839D02*
G01X91661Y79243D01*
G01X93264Y79243D01*
G01X93264Y77839D01*
G01X91661Y77839D01*
G37*
G36*
G01X91661Y81240D02*
G01X91661Y82642D01*
G01X93264Y82642D01*
G01X93264Y81240D01*
G01X91661Y81240D01*
G37*
G36*
G01X110711Y77839D02*
G01X110711Y79243D01*
G01X112314Y79243D01*
G01X112314Y77839D01*
G01X110711Y77839D01*
G37*
G36*
G01X110711Y81240D02*
G01X110711Y82642D01*
G01X112314Y82642D01*
G01X112314Y81240D01*
G01X110711Y81240D01*
G37*
G36*
G01X129772Y77839D02*
G01X129772Y79243D01*
G01X131374Y79243D01*
G01X131374Y77839D01*
G01X129772Y77839D01*
G37*
G36*
G01X129772Y81240D02*
G01X129772Y82642D01*
G01X131374Y82642D01*
G01X131374Y81240D01*
G01X129772Y81240D01*
G37*
G36*
G01X148822Y77839D02*
G01X148822Y79243D01*
G01X150424Y79243D01*
G01X150424Y77839D01*
G01X148822Y77839D01*
G37*
G36*
G01X148822Y81240D02*
G01X148822Y82642D01*
G01X150424Y82642D01*
G01X150424Y81240D01*
G01X148822Y81240D01*
G37*
G36*
G01X167861Y77839D02*
G01X167861Y79243D01*
G01X169464Y79243D01*
G01X169464Y77839D01*
G01X167861Y77839D01*
G37*
G36*
G01X167861Y81240D02*
G01X167861Y82642D01*
G01X169464Y82642D01*
G01X169464Y81240D01*
G01X167861Y81240D01*
G37*
G36*
G01X186911Y77839D02*
G01X186911Y79243D01*
G01X188514Y79243D01*
G01X188514Y77839D01*
G01X186911Y77839D01*
G37*
G36*
G01X186911Y81240D02*
G01X186911Y82642D01*
G01X188514Y82642D01*
G01X188514Y81240D01*
G01X186911Y81240D01*
G37*
G36*
G01X205972Y77839D02*
G01X205972Y79243D01*
G01X207574Y79243D01*
G01X207574Y77839D01*
G01X205972Y77839D01*
G37*
G36*
G01X205972Y81240D02*
G01X205972Y82642D01*
G01X207574Y82642D01*
G01X207574Y81240D01*
G01X205972Y81240D01*
G37*
G36*
G01X225022Y77839D02*
G01X225022Y79243D01*
G01X226624Y79243D01*
G01X226624Y77839D01*
G01X225022Y77839D01*
G37*
G36*
G01X225022Y81240D02*
G01X225022Y82642D01*
G01X226624Y82642D01*
G01X226624Y81240D01*
G01X225022Y81240D01*
G37*
G36*
G01X244072Y77839D02*
G01X244072Y79243D01*
G01X245674Y79243D01*
G01X245674Y77839D01*
G01X244072Y77839D01*
G37*
G36*
G01X244072Y81240D02*
G01X244072Y82642D01*
G01X245674Y82642D01*
G01X245674Y81240D01*
G01X244072Y81240D01*
G37*
G36*
G01X272641Y77839D02*
G01X272641Y79243D01*
G01X274244Y79243D01*
G01X274244Y77839D01*
G01X272641Y77839D01*
G37*
G36*
G01X272641Y81240D02*
G01X272641Y82642D01*
G01X274244Y82642D01*
G01X274244Y81240D01*
G01X272641Y81240D01*
G37*
G36*
G01X20231Y58789D02*
G01X20231Y60193D01*
G01X21834Y60193D01*
G01X21834Y58789D01*
G01X20231Y58789D01*
G37*
G36*
G01X20231Y62190D02*
G01X20231Y63592D01*
G01X21834Y63592D01*
G01X21834Y62190D01*
G01X20231Y62190D01*
G37*
G36*
G01X44041Y58789D02*
G01X44041Y60193D01*
G01X45644Y60193D01*
G01X45644Y58789D01*
G01X44041Y58789D01*
G37*
G36*
G01X44041Y62190D02*
G01X44041Y63592D01*
G01X45644Y63592D01*
G01X45644Y62190D01*
G01X44041Y62190D01*
G37*
G36*
G01X63091Y58789D02*
G01X63091Y60193D01*
G01X64694Y60193D01*
G01X64694Y58789D01*
G01X63091Y58789D01*
G37*
G36*
G01X63091Y62190D02*
G01X63091Y63592D01*
G01X64694Y63592D01*
G01X64694Y62190D01*
G01X63091Y62190D01*
G37*
G36*
G01X82141Y58789D02*
G01X82141Y60193D01*
G01X83744Y60193D01*
G01X83744Y58789D01*
G01X82141Y58789D01*
G37*
G36*
G01X82141Y62190D02*
G01X82141Y63592D01*
G01X83744Y63592D01*
G01X83744Y62190D01*
G01X82141Y62190D01*
G37*
G36*
G01X101191Y58789D02*
G01X101191Y60193D01*
G01X102794Y60193D01*
G01X102794Y58789D01*
G01X101191Y58789D01*
G37*
G36*
G01X101191Y62190D02*
G01X101191Y63592D01*
G01X102794Y63592D01*
G01X102794Y62190D01*
G01X101191Y62190D01*
G37*
G36*
G01X120241Y58789D02*
G01X120241Y60193D01*
G01X121844Y60193D01*
G01X121844Y58789D01*
G01X120241Y58789D01*
G37*
G36*
G01X120241Y62190D02*
G01X120241Y63592D01*
G01X121844Y63592D01*
G01X121844Y62190D01*
G01X120241Y62190D01*
G37*
G36*
G01X139291Y58789D02*
G01X139291Y60193D01*
G01X140894Y60193D01*
G01X140894Y58789D01*
G01X139291Y58789D01*
G37*
G36*
G01X139291Y62190D02*
G01X139291Y63592D01*
G01X140894Y63592D01*
G01X140894Y62190D01*
G01X139291Y62190D01*
G37*
G36*
G01X158341Y58789D02*
G01X158341Y60193D01*
G01X159944Y60193D01*
G01X159944Y58789D01*
G01X158341Y58789D01*
G37*
G36*
G01X158341Y62190D02*
G01X158341Y63592D01*
G01X159944Y63592D01*
G01X159944Y62190D01*
G01X158341Y62190D01*
G37*
G36*
G01X177391Y58789D02*
G01X177391Y60193D01*
G01X178994Y60193D01*
G01X178994Y58789D01*
G01X177391Y58789D01*
G37*
G36*
G01X177391Y62190D02*
G01X177391Y63592D01*
G01X178994Y63592D01*
G01X178994Y62190D01*
G01X177391Y62190D01*
G37*
G36*
G01X196441Y58789D02*
G01X196441Y60193D01*
G01X198044Y60193D01*
G01X198044Y58789D01*
G01X196441Y58789D01*
G37*
G36*
G01X196441Y62190D02*
G01X196441Y63592D01*
G01X198044Y63592D01*
G01X198044Y62190D01*
G01X196441Y62190D01*
G37*
G36*
G01X215491Y58789D02*
G01X215491Y60193D01*
G01X217094Y60193D01*
G01X217094Y58789D01*
G01X215491Y58789D01*
G37*
G36*
G01X215491Y62190D02*
G01X215491Y63592D01*
G01X217094Y63592D01*
G01X217094Y62190D01*
G01X215491Y62190D01*
G37*
G36*
G01X234541Y58789D02*
G01X234541Y60193D01*
G01X236144Y60193D01*
G01X236144Y58789D01*
G01X234541Y58789D01*
G37*
G36*
G01X234541Y62190D02*
G01X234541Y63592D01*
G01X236144Y63592D01*
G01X236144Y62190D01*
G01X234541Y62190D01*
G37*
G36*
G01X253591Y58789D02*
G01X253591Y60193D01*
G01X255194Y60193D01*
G01X255194Y58789D01*
G01X253591Y58789D01*
G37*
G36*
G01X253591Y62190D02*
G01X253591Y63592D01*
G01X255194Y63592D01*
G01X255194Y62190D01*
G01X253591Y62190D01*
G37*
G36*
G01X277401Y58789D02*
G01X277401Y60193D01*
G01X279004Y60193D01*
G01X279004Y58789D01*
G01X277401Y58789D01*
G37*
G36*
G01X277401Y62190D02*
G01X277401Y63592D01*
G01X279004Y63592D01*
G01X279004Y62190D01*
G01X277401Y62190D01*
G37*
G36*
G01X22611Y39739D02*
G01X22611Y41143D01*
G01X24214Y41143D01*
G01X24214Y39739D01*
G01X22611Y39739D01*
G37*
G36*
G01X22611Y43140D02*
G01X22611Y44542D01*
G01X24214Y44542D01*
G01X24214Y43140D01*
G01X22611Y43140D01*
G37*
G36*
G01X48801Y39739D02*
G01X48801Y41143D01*
G01X50404Y41143D01*
G01X50404Y39739D01*
G01X48801Y39739D01*
G37*
G36*
G01X48801Y43140D02*
G01X48801Y44542D01*
G01X50404Y44542D01*
G01X50404Y43140D01*
G01X48801Y43140D01*
G37*
G36*
G01X67841Y39739D02*
G01X67841Y41143D01*
G01X69444Y41143D01*
G01X69444Y39739D01*
G01X67841Y39739D01*
G37*
G36*
G01X67841Y43140D02*
G01X67841Y44542D01*
G01X69444Y44542D01*
G01X69444Y43140D01*
G01X67841Y43140D01*
G37*
G36*
G01X86901Y39739D02*
G01X86901Y41143D01*
G01X88504Y41143D01*
G01X88504Y39739D01*
G01X86901Y39739D01*
G37*
G36*
G01X86901Y43140D02*
G01X86901Y44542D01*
G01X88504Y44542D01*
G01X88504Y43140D01*
G01X86901Y43140D01*
G37*
G36*
G01X105951Y39739D02*
G01X105951Y41143D01*
G01X107554Y41143D01*
G01X107554Y39739D01*
G01X105951Y39739D01*
G37*
G36*
G01X105951Y43140D02*
G01X105951Y44542D01*
G01X107554Y44542D01*
G01X107554Y43140D01*
G01X105951Y43140D01*
G37*
G36*
G01X125001Y39739D02*
G01X125001Y41143D01*
G01X126604Y41143D01*
G01X126604Y39739D01*
G01X125001Y39739D01*
G37*
G36*
G01X125001Y43140D02*
G01X125001Y44542D01*
G01X126604Y44542D01*
G01X126604Y43140D01*
G01X125001Y43140D01*
G37*
G36*
G01X144051Y39739D02*
G01X144051Y41143D01*
G01X145654Y41143D01*
G01X145654Y39739D01*
G01X144051Y39739D01*
G37*
G36*
G01X144051Y43140D02*
G01X144051Y44542D01*
G01X145654Y44542D01*
G01X145654Y43140D01*
G01X144051Y43140D01*
G37*
G36*
G01X163101Y39739D02*
G01X163101Y41143D01*
G01X164704Y41143D01*
G01X164704Y39739D01*
G01X163101Y39739D01*
G37*
G36*
G01X163101Y43140D02*
G01X163101Y44542D01*
G01X164704Y44542D01*
G01X164704Y43140D01*
G01X163101Y43140D01*
G37*
G36*
G01X182151Y39739D02*
G01X182151Y41143D01*
G01X183754Y41143D01*
G01X183754Y39739D01*
G01X182151Y39739D01*
G37*
G36*
G01X182151Y43140D02*
G01X182151Y44542D01*
G01X183754Y44542D01*
G01X183754Y43140D01*
G01X182151Y43140D01*
G37*
G36*
G01X201201Y39739D02*
G01X201201Y41143D01*
G01X202804Y41143D01*
G01X202804Y39739D01*
G01X201201Y39739D01*
G37*
G36*
G01X201201Y43140D02*
G01X201201Y44542D01*
G01X202804Y44542D01*
G01X202804Y43140D01*
G01X201201Y43140D01*
G37*
G36*
G01X220251Y39739D02*
G01X220251Y41143D01*
G01X221854Y41143D01*
G01X221854Y39739D01*
G01X220251Y39739D01*
G37*
G36*
G01X220251Y43140D02*
G01X220251Y44542D01*
G01X221854Y44542D01*
G01X221854Y43140D01*
G01X220251Y43140D01*
G37*
G36*
G01X239301Y39739D02*
G01X239301Y41143D01*
G01X240904Y41143D01*
G01X240904Y39739D01*
G01X239301Y39739D01*
G37*
G36*
G01X239301Y43140D02*
G01X239301Y44542D01*
G01X240904Y44542D01*
G01X240904Y43140D01*
G01X239301Y43140D01*
G37*
G36*
G01X270261Y39739D02*
G01X270261Y41143D01*
G01X271864Y41143D01*
G01X271864Y39739D01*
G01X270261Y39739D01*
G37*
G36*
G01X270261Y43140D02*
G01X270261Y44542D01*
G01X271864Y44542D01*
G01X271864Y43140D01*
G01X270261Y43140D01*
G37*
G36*
G01X24981Y20689D02*
G01X24981Y22093D01*
G01X26584Y22093D01*
G01X26584Y20689D01*
G01X24981Y20689D01*
G37*
G36*
G01X24981Y24090D02*
G01X24981Y25492D01*
G01X26584Y25492D01*
G01X26584Y24090D01*
G01X24981Y24090D01*
G37*
G36*
G01X53551Y20689D02*
G01X53551Y22093D01*
G01X55154Y22093D01*
G01X55154Y20689D01*
G01X53551Y20689D01*
G37*
G36*
G01X53551Y24090D02*
G01X53551Y25492D01*
G01X55154Y25492D01*
G01X55154Y24090D01*
G01X53551Y24090D01*
G37*
G36*
G01X72601Y20689D02*
G01X72601Y22093D01*
G01X74204Y22093D01*
G01X74204Y20689D01*
G01X72601Y20689D01*
G37*
G36*
G01X72601Y24090D02*
G01X72601Y25492D01*
G01X74204Y25492D01*
G01X74204Y24090D01*
G01X72601Y24090D01*
G37*
G36*
G01X91661Y20689D02*
G01X91661Y22093D01*
G01X93264Y22093D01*
G01X93264Y20689D01*
G01X91661Y20689D01*
G37*
G36*
G01X91661Y24090D02*
G01X91661Y25492D01*
G01X93264Y25492D01*
G01X93264Y24090D01*
G01X91661Y24090D01*
G37*
G36*
G01X110711Y20689D02*
G01X110711Y22093D01*
G01X112314Y22093D01*
G01X112314Y20689D01*
G01X110711Y20689D01*
G37*
G36*
G01X110711Y24090D02*
G01X110711Y25492D01*
G01X112314Y25492D01*
G01X112314Y24090D01*
G01X110711Y24090D01*
G37*
G36*
G01X129772Y20689D02*
G01X129772Y22093D01*
G01X131374Y22093D01*
G01X131374Y20689D01*
G01X129772Y20689D01*
G37*
G36*
G01X129772Y24090D02*
G01X129772Y25492D01*
G01X131374Y25492D01*
G01X131374Y24090D01*
G01X129772Y24090D01*
G37*
G36*
G01X148811Y20689D02*
G01X148811Y22093D01*
G01X150414Y22093D01*
G01X150414Y20689D01*
G01X148811Y20689D01*
G37*
G36*
G01X148811Y24090D02*
G01X148811Y25492D01*
G01X150414Y25492D01*
G01X150414Y24090D01*
G01X148811Y24090D01*
G37*
G36*
G01X167861Y20689D02*
G01X167861Y22093D01*
G01X169464Y22093D01*
G01X169464Y20689D01*
G01X167861Y20689D01*
G37*
G36*
G01X167861Y24090D02*
G01X167861Y25492D01*
G01X169464Y25492D01*
G01X169464Y24090D01*
G01X167861Y24090D01*
G37*
G36*
G01X186922Y20689D02*
G01X186922Y22093D01*
G01X188524Y22093D01*
G01X188524Y20689D01*
G01X186922Y20689D01*
G37*
G36*
G01X186922Y24090D02*
G01X186922Y25492D01*
G01X188524Y25492D01*
G01X188524Y24090D01*
G01X186922Y24090D01*
G37*
G36*
G01X205961Y20689D02*
G01X205961Y22093D01*
G01X207564Y22093D01*
G01X207564Y20689D01*
G01X205961Y20689D01*
G37*
G36*
G01X205961Y24090D02*
G01X205961Y25492D01*
G01X207564Y25492D01*
G01X207564Y24090D01*
G01X205961Y24090D01*
G37*
G36*
G01X225022Y20689D02*
G01X225022Y22093D01*
G01X226624Y22093D01*
G01X226624Y20689D01*
G01X225022Y20689D01*
G37*
G36*
G01X225022Y24090D02*
G01X225022Y25492D01*
G01X226624Y25492D01*
G01X226624Y24090D01*
G01X225022Y24090D01*
G37*
G36*
G01X244061Y20689D02*
G01X244061Y22093D01*
G01X245664Y22093D01*
G01X245664Y20689D01*
G01X244061Y20689D01*
G37*
G36*
G01X244061Y24090D02*
G01X244061Y25492D01*
G01X245664Y25492D01*
G01X245664Y24090D01*
G01X244061Y24090D01*
G37*
G36*
G01X263111Y20689D02*
G01X263111Y22093D01*
G01X264714Y22093D01*
G01X264714Y20689D01*
G01X263111Y20689D01*
G37*
G36*
G01X263111Y24090D02*
G01X263111Y25492D01*
G01X264714Y25492D01*
G01X264714Y24090D01*
G01X263111Y24090D01*
G37*
G36*
G01X282161Y20689D02*
G01X282161Y22093D01*
G01X283764Y22093D01*
G01X283764Y20689D01*
G01X282161Y20689D01*
G37*
G36*
G01X282161Y24090D02*
G01X282161Y25492D01*
G01X283764Y25492D01*
G01X283764Y24090D01*
G01X282161Y24090D01*
G37*
G36*
G01X17851Y1639D02*
G01X17851Y3043D01*
G01X19454Y3043D01*
G01X19454Y1639D01*
G01X17851Y1639D01*
G37*
G36*
G01X17851Y5040D02*
G01X17851Y6442D01*
G01X19454Y6442D01*
G01X19454Y5040D01*
G01X17851Y5040D01*
G37*
G36*
G01X41651Y1639D02*
G01X41651Y3043D01*
G01X43254Y3043D01*
G01X43254Y1639D01*
G01X41651Y1639D01*
G37*
G36*
G01X41651Y5040D02*
G01X41651Y6442D01*
G01X43254Y6442D01*
G01X43254Y5040D01*
G01X41651Y5040D01*
G37*
G36*
G01X65471Y1639D02*
G01X65471Y3043D01*
G01X67074Y3043D01*
G01X67074Y1639D01*
G01X65471Y1639D01*
G37*
G36*
G01X65471Y5040D02*
G01X65471Y6442D01*
G01X67074Y6442D01*
G01X67074Y5040D01*
G01X65471Y5040D01*
G37*
G36*
G01X136911Y1639D02*
G01X136911Y3043D01*
G01X138514Y3043D01*
G01X138514Y1639D01*
G01X136911Y1639D01*
G37*
G36*
G01X136911Y5040D02*
G01X136911Y6442D01*
G01X138514Y6442D01*
G01X138514Y5040D01*
G01X136911Y5040D01*
G37*
G36*
G01X205961Y1639D02*
G01X205961Y3043D01*
G01X207564Y3043D01*
G01X207564Y1639D01*
G01X205961Y1639D01*
G37*
G36*
G01X205961Y5040D02*
G01X205961Y6442D01*
G01X207564Y6442D01*
G01X207564Y5040D01*
G01X205961Y5040D01*
G37*
G36*
G01X225022Y1639D02*
G01X225022Y3043D01*
G01X226624Y3043D01*
G01X226624Y1639D01*
G01X225022Y1639D01*
G37*
G36*
G01X225022Y5040D02*
G01X225022Y6442D01*
G01X226624Y6442D01*
G01X226624Y5040D01*
G01X225022Y5040D01*
G37*
G36*
G01X244061Y1639D02*
G01X244061Y3043D01*
G01X245664Y3043D01*
G01X245664Y1639D01*
G01X244061Y1639D01*
G37*
G36*
G01X244061Y5040D02*
G01X244061Y6442D01*
G01X245664Y6442D01*
G01X245664Y5040D01*
G01X244061Y5040D01*
G37*
G36*
G01X263111Y1639D02*
G01X263111Y3043D01*
G01X264714Y3043D01*
G01X264714Y1639D01*
G01X263111Y1639D01*
G37*
G36*
G01X263111Y5040D02*
G01X263111Y6442D01*
G01X264714Y6442D01*
G01X264714Y5040D01*
G01X263111Y5040D01*
G37*
G36*
G01X282161Y1639D02*
G01X282161Y3043D01*
G01X283764Y3043D01*
G01X283764Y1639D01*
G01X282161Y1639D01*
G37*
G36*
G01X282161Y5040D02*
G01X282161Y6442D01*
G01X283764Y6442D01*
G01X283764Y5040D01*
G01X282161Y5040D01*
G37*
G36*
G01X113503Y10630D02*
G01X113503Y12533D01*
G01X116106Y12533D01*
G01X116106Y10630D01*
G01X113503Y10630D01*
G37*
G36*
G01X113500Y14550D02*
G01X113500Y16455D01*
G01X116104Y16455D01*
G01X116104Y14550D01*
G01X113500Y14550D01*
G37*
G36*
G01X4852Y60811D02*
G01X4852Y61814D01*
G01X5954Y61814D01*
G01X5954Y60811D01*
G01X4852Y60811D01*
G37*
G36*
G01X4852Y59408D02*
G01X4852Y60412D01*
G01X5954Y60412D01*
G01X5954Y59408D01*
G01X4852Y59408D01*
G37*
G36*
G01X2451Y60811D02*
G01X2451Y61814D01*
G01X3556Y61814D01*
G01X3556Y60811D01*
G01X2451Y60811D01*
G37*
G36*
G01X2451Y59408D02*
G01X2451Y60412D01*
G01X3556Y60412D01*
G01X3556Y59408D01*
G01X2451Y59408D01*
G37*
G36*
G01X1651Y90760D02*
G01X1651Y91862D01*
G01X2655Y91862D01*
G01X2655Y90760D01*
G01X1651Y90760D01*
G37*
G36*
G01X3051Y90760D02*
G01X3051Y91862D01*
G01X4054Y91862D01*
G01X4054Y90760D01*
G01X3051Y90760D01*
G37*
G36*
G01X26482Y93378D02*
G01X26482Y94483D01*
G01X27486Y94483D01*
G01X27486Y93378D01*
G01X26482Y93378D01*
G37*
G36*
G01X25083Y93378D02*
G01X25083Y94483D01*
G01X26086Y94483D01*
G01X26086Y93378D01*
G01X25083Y93378D01*
G37*
G36*
G01X39751Y90760D02*
G01X39751Y91862D01*
G01X40755Y91862D01*
G01X40755Y90760D01*
G01X39751Y90760D01*
G37*
G36*
G01X41151Y90760D02*
G01X41151Y91862D01*
G01X42154Y91862D01*
G01X42154Y90760D01*
G01X41151Y90760D01*
G37*
G36*
G01X58791Y90760D02*
G01X58791Y91862D01*
G01X59795Y91862D01*
G01X59795Y90760D01*
G01X58791Y90760D01*
G37*
G36*
G01X60191Y90760D02*
G01X60191Y91862D01*
G01X61194Y91862D01*
G01X61194Y90760D01*
G01X60191Y90760D01*
G37*
G36*
G01X77841Y90760D02*
G01X77841Y91862D01*
G01X78845Y91862D01*
G01X78845Y90760D01*
G01X77841Y90760D01*
G37*
G36*
G01X79241Y90760D02*
G01X79241Y91862D01*
G01X80244Y91862D01*
G01X80244Y90760D01*
G01X79241Y90760D01*
G37*
G36*
G01X96891Y90760D02*
G01X96891Y91862D01*
G01X97895Y91862D01*
G01X97895Y90760D01*
G01X96891Y90760D01*
G37*
G36*
G01X98291Y90760D02*
G01X98291Y91862D01*
G01X99294Y91862D01*
G01X99294Y90760D01*
G01X98291Y90760D01*
G37*
G36*
G01X115951Y90760D02*
G01X115951Y91862D01*
G01X116955Y91862D01*
G01X116955Y90760D01*
G01X115951Y90760D01*
G37*
G36*
G01X117351Y90760D02*
G01X117351Y91862D01*
G01X118354Y91862D01*
G01X118354Y90760D01*
G01X117351Y90760D01*
G37*
G36*
G01X135001Y90760D02*
G01X135001Y91862D01*
G01X136005Y91862D01*
G01X136005Y90760D01*
G01X135001Y90760D01*
G37*
G36*
G01X136401Y90760D02*
G01X136401Y91862D01*
G01X137404Y91862D01*
G01X137404Y90760D01*
G01X136401Y90760D01*
G37*
G36*
G01X154041Y90760D02*
G01X154041Y91862D01*
G01X155045Y91862D01*
G01X155045Y90760D01*
G01X154041Y90760D01*
G37*
G36*
G01X155441Y90760D02*
G01X155441Y91862D01*
G01X156444Y91862D01*
G01X156444Y90760D01*
G01X155441Y90760D01*
G37*
G36*
G01X173091Y90760D02*
G01X173091Y91862D01*
G01X174095Y91862D01*
G01X174095Y90760D01*
G01X173091Y90760D01*
G37*
G36*
G01X174491Y90760D02*
G01X174491Y91862D01*
G01X175494Y91862D01*
G01X175494Y90760D01*
G01X174491Y90760D01*
G37*
G36*
G01X192151Y90760D02*
G01X192151Y91862D01*
G01X193155Y91862D01*
G01X193155Y90760D01*
G01X192151Y90760D01*
G37*
G36*
G01X193551Y90760D02*
G01X193551Y91862D01*
G01X194554Y91862D01*
G01X194554Y90760D01*
G01X193551Y90760D01*
G37*
G36*
G01X211201Y90760D02*
G01X211201Y91862D01*
G01X212205Y91862D01*
G01X212205Y90760D01*
G01X211201Y90760D01*
G37*
G36*
G01X212601Y90760D02*
G01X212601Y91862D01*
G01X213604Y91862D01*
G01X213604Y90760D01*
G01X212601Y90760D01*
G37*
G36*
G01X230251Y90760D02*
G01X230251Y91862D01*
G01X231255Y91862D01*
G01X231255Y90760D01*
G01X230251Y90760D01*
G37*
G36*
G01X231651Y90760D02*
G01X231651Y91862D01*
G01X232654Y91862D01*
G01X232654Y90760D01*
G01X231651Y90760D01*
G37*
G36*
G01X258821Y90760D02*
G01X258821Y91862D01*
G01X259825Y91862D01*
G01X259825Y90760D01*
G01X258821Y90760D01*
G37*
G36*
G01X260221Y90760D02*
G01X260221Y91862D01*
G01X261224Y91862D01*
G01X261224Y90760D01*
G01X260221Y90760D01*
G37*
G36*
G01X6411Y71730D02*
G01X6411Y72832D01*
G01X7415Y72832D01*
G01X7415Y71730D01*
G01X6411Y71730D01*
G37*
G36*
G01X7811Y71730D02*
G01X7811Y72832D01*
G01X8814Y72832D01*
G01X8814Y71730D01*
G01X7811Y71730D01*
G37*
G36*
G01X30211Y71730D02*
G01X30211Y72832D01*
G01X31214Y72832D01*
G01X31214Y71730D01*
G01X30211Y71730D01*
G37*
G36*
G01X31611Y71730D02*
G01X31611Y72832D01*
G01X32614Y72832D01*
G01X32614Y71730D01*
G01X31611Y71730D01*
G37*
G36*
G01X49271Y71730D02*
G01X49271Y72832D01*
G01X50275Y72832D01*
G01X50275Y71730D01*
G01X49271Y71730D01*
G37*
G36*
G01X50671Y71730D02*
G01X50671Y72832D01*
G01X51674Y72832D01*
G01X51674Y71730D01*
G01X50671Y71730D01*
G37*
G36*
G01X68321Y71730D02*
G01X68321Y72832D01*
G01X69325Y72832D01*
G01X69325Y71730D01*
G01X68321Y71730D01*
G37*
G36*
G01X69721Y71730D02*
G01X69721Y72832D01*
G01X70724Y72832D01*
G01X70724Y71730D01*
G01X69721Y71730D01*
G37*
G36*
G01X87371Y71730D02*
G01X87371Y72832D01*
G01X88375Y72832D01*
G01X88375Y71730D01*
G01X87371Y71730D01*
G37*
G36*
G01X88771Y71730D02*
G01X88771Y72832D01*
G01X89774Y72832D01*
G01X89774Y71730D01*
G01X88771Y71730D01*
G37*
G36*
G01X106421Y71730D02*
G01X106421Y72832D01*
G01X107425Y72832D01*
G01X107425Y71730D01*
G01X106421Y71730D01*
G37*
G36*
G01X107821Y71730D02*
G01X107821Y72832D01*
G01X108824Y72832D01*
G01X108824Y71730D01*
G01X107821Y71730D01*
G37*
G36*
G01X125471Y71730D02*
G01X125471Y72832D01*
G01X126475Y72832D01*
G01X126475Y71730D01*
G01X125471Y71730D01*
G37*
G36*
G01X126871Y71730D02*
G01X126871Y72832D01*
G01X127874Y72832D01*
G01X127874Y71730D01*
G01X126871Y71730D01*
G37*
G36*
G01X144521Y71730D02*
G01X144521Y72832D01*
G01X145525Y72832D01*
G01X145525Y71730D01*
G01X144521Y71730D01*
G37*
G36*
G01X145921Y71730D02*
G01X145921Y72832D01*
G01X146924Y72832D01*
G01X146924Y71730D01*
G01X145921Y71730D01*
G37*
G36*
G01X163571Y71730D02*
G01X163571Y72832D01*
G01X164575Y72832D01*
G01X164575Y71730D01*
G01X163571Y71730D01*
G37*
G36*
G01X164971Y71730D02*
G01X164971Y72832D01*
G01X165974Y72832D01*
G01X165974Y71730D01*
G01X164971Y71730D01*
G37*
G36*
G01X182621Y71730D02*
G01X182621Y72832D01*
G01X183625Y72832D01*
G01X183625Y71730D01*
G01X182621Y71730D01*
G37*
G36*
G01X184021Y71730D02*
G01X184021Y72832D01*
G01X185024Y72832D01*
G01X185024Y71730D01*
G01X184021Y71730D01*
G37*
G36*
G01X201671Y71730D02*
G01X201671Y72832D01*
G01X202675Y72832D01*
G01X202675Y71730D01*
G01X201671Y71730D01*
G37*
G36*
G01X203071Y71730D02*
G01X203071Y72832D01*
G01X204074Y72832D01*
G01X204074Y71730D01*
G01X203071Y71730D01*
G37*
G36*
G01X220721Y71730D02*
G01X220721Y72832D01*
G01X221725Y72832D01*
G01X221725Y71730D01*
G01X220721Y71730D01*
G37*
G36*
G01X222121Y71730D02*
G01X222121Y72832D01*
G01X223124Y72832D01*
G01X223124Y71730D01*
G01X222121Y71730D01*
G37*
G36*
G01X239771Y71730D02*
G01X239771Y72832D01*
G01X240775Y72832D01*
G01X240775Y71730D01*
G01X239771Y71730D01*
G37*
G36*
G01X241171Y71730D02*
G01X241171Y72832D01*
G01X242174Y72832D01*
G01X242174Y71730D01*
G01X241171Y71730D01*
G37*
G36*
G01X263581Y71730D02*
G01X263581Y72832D01*
G01X264585Y72832D01*
G01X264585Y71730D01*
G01X263581Y71730D01*
G37*
G36*
G01X264981Y71730D02*
G01X264981Y72832D01*
G01X265984Y72832D01*
G01X265984Y71730D01*
G01X264981Y71730D01*
G37*
G36*
G01X8791Y52680D02*
G01X8791Y53782D01*
G01X9795Y53782D01*
G01X9795Y52680D01*
G01X8791Y52680D01*
G37*
G36*
G01X10191Y52680D02*
G01X10191Y53782D01*
G01X11194Y53782D01*
G01X11194Y52680D01*
G01X10191Y52680D01*
G37*
G36*
G01X34981Y52680D02*
G01X34981Y53782D01*
G01X35985Y53782D01*
G01X35985Y52680D01*
G01X34981Y52680D01*
G37*
G36*
G01X36381Y52680D02*
G01X36381Y53782D01*
G01X37384Y53782D01*
G01X37384Y52680D01*
G01X36381Y52680D01*
G37*
G36*
G01X54031Y52680D02*
G01X54031Y53782D01*
G01X55035Y53782D01*
G01X55035Y52680D01*
G01X54031Y52680D01*
G37*
G36*
G01X55431Y52680D02*
G01X55431Y53782D01*
G01X56434Y53782D01*
G01X56434Y52680D01*
G01X55431Y52680D01*
G37*
G36*
G01X73071Y52680D02*
G01X73071Y53782D01*
G01X74074Y53782D01*
G01X74074Y52680D01*
G01X73071Y52680D01*
G37*
G36*
G01X74471Y52680D02*
G01X74471Y53782D01*
G01X75474Y53782D01*
G01X75474Y52680D01*
G01X74471Y52680D01*
G37*
G36*
G01X92131Y52680D02*
G01X92131Y53782D01*
G01X93135Y53782D01*
G01X93135Y52680D01*
G01X92131Y52680D01*
G37*
G36*
G01X93531Y52680D02*
G01X93531Y53782D01*
G01X94534Y53782D01*
G01X94534Y52680D01*
G01X93531Y52680D01*
G37*
G36*
G01X111181Y52680D02*
G01X111181Y53782D01*
G01X112185Y53782D01*
G01X112185Y52680D01*
G01X111181Y52680D01*
G37*
G36*
G01X112581Y52680D02*
G01X112581Y53782D01*
G01X113584Y53782D01*
G01X113584Y52680D01*
G01X112581Y52680D01*
G37*
G36*
G01X130231Y52680D02*
G01X130231Y53782D01*
G01X131235Y53782D01*
G01X131235Y52680D01*
G01X130231Y52680D01*
G37*
G36*
G01X131631Y52680D02*
G01X131631Y53782D01*
G01X132634Y53782D01*
G01X132634Y52680D01*
G01X131631Y52680D01*
G37*
G36*
G01X149281Y52680D02*
G01X149281Y53782D01*
G01X150285Y53782D01*
G01X150285Y52680D01*
G01X149281Y52680D01*
G37*
G36*
G01X150681Y52680D02*
G01X150681Y53782D01*
G01X151684Y53782D01*
G01X151684Y52680D01*
G01X150681Y52680D01*
G37*
G36*
G01X168331Y52680D02*
G01X168331Y53782D01*
G01X169335Y53782D01*
G01X169335Y52680D01*
G01X168331Y52680D01*
G37*
G36*
G01X169731Y52680D02*
G01X169731Y53782D01*
G01X170734Y53782D01*
G01X170734Y52680D01*
G01X169731Y52680D01*
G37*
G36*
G01X187381Y52680D02*
G01X187381Y53782D01*
G01X188385Y53782D01*
G01X188385Y52680D01*
G01X187381Y52680D01*
G37*
G36*
G01X188781Y52680D02*
G01X188781Y53782D01*
G01X189784Y53782D01*
G01X189784Y52680D01*
G01X188781Y52680D01*
G37*
G36*
G01X206431Y52680D02*
G01X206431Y53782D01*
G01X207435Y53782D01*
G01X207435Y52680D01*
G01X206431Y52680D01*
G37*
G36*
G01X207831Y52680D02*
G01X207831Y53782D01*
G01X208834Y53782D01*
G01X208834Y52680D01*
G01X207831Y52680D01*
G37*
G36*
G01X225481Y52680D02*
G01X225481Y53782D01*
G01X226485Y53782D01*
G01X226485Y52680D01*
G01X225481Y52680D01*
G37*
G36*
G01X226881Y52680D02*
G01X226881Y53782D01*
G01X227884Y53782D01*
G01X227884Y52680D01*
G01X226881Y52680D01*
G37*
G36*
G01X256441Y52680D02*
G01X256441Y53782D01*
G01X257445Y53782D01*
G01X257445Y52680D01*
G01X256441Y52680D01*
G37*
G36*
G01X257841Y52680D02*
G01X257841Y53782D01*
G01X258844Y53782D01*
G01X258844Y52680D01*
G01X257841Y52680D01*
G37*
G36*
G01X11171Y33610D02*
G01X11171Y34712D01*
G01X12175Y34712D01*
G01X12175Y33610D01*
G01X11171Y33610D01*
G37*
G36*
G01X12571Y33610D02*
G01X12571Y34712D01*
G01X13574Y34712D01*
G01X13574Y33610D01*
G01X12571Y33610D01*
G37*
G36*
G01X39741Y33610D02*
G01X39741Y34712D01*
G01X40745Y34712D01*
G01X40745Y33610D01*
G01X39741Y33610D01*
G37*
G36*
G01X41141Y33610D02*
G01X41141Y34712D01*
G01X42144Y34712D01*
G01X42144Y33610D01*
G01X41141Y33610D01*
G37*
G36*
G01X58791Y33610D02*
G01X58791Y34712D01*
G01X59795Y34712D01*
G01X59795Y33610D01*
G01X58791Y33610D01*
G37*
G36*
G01X60191Y33610D02*
G01X60191Y34712D01*
G01X61194Y34712D01*
G01X61194Y33610D01*
G01X60191Y33610D01*
G37*
G36*
G01X77851Y33610D02*
G01X77851Y34712D01*
G01X78855Y34712D01*
G01X78855Y33610D01*
G01X77851Y33610D01*
G37*
G36*
G01X79251Y33610D02*
G01X79251Y34712D01*
G01X80254Y34712D01*
G01X80254Y33610D01*
G01X79251Y33610D01*
G37*
G36*
G01X96912Y33610D02*
G01X96912Y34712D01*
G01X97915Y34712D01*
G01X97915Y33610D01*
G01X96912Y33610D01*
G37*
G36*
G01X98311Y33610D02*
G01X98311Y34712D01*
G01X99314Y34712D01*
G01X99314Y33610D01*
G01X98311Y33610D01*
G37*
G36*
G01X115951Y33610D02*
G01X115951Y34712D01*
G01X116955Y34712D01*
G01X116955Y33610D01*
G01X115951Y33610D01*
G37*
G36*
G01X117351Y33610D02*
G01X117351Y34712D01*
G01X118354Y34712D01*
G01X118354Y33610D01*
G01X117351Y33610D01*
G37*
G36*
G01X134991Y33610D02*
G01X134991Y34712D01*
G01X135995Y34712D01*
G01X135995Y33610D01*
G01X134991Y33610D01*
G37*
G36*
G01X136391Y33610D02*
G01X136391Y34712D01*
G01X137394Y34712D01*
G01X137394Y33610D01*
G01X136391Y33610D01*
G37*
G36*
G01X154041Y33610D02*
G01X154041Y34712D01*
G01X155045Y34712D01*
G01X155045Y33610D01*
G01X154041Y33610D01*
G37*
G36*
G01X155441Y33610D02*
G01X155441Y34712D01*
G01X156444Y34712D01*
G01X156444Y33610D01*
G01X155441Y33610D01*
G37*
G36*
G01X173112Y33610D02*
G01X173112Y34712D01*
G01X174115Y34712D01*
G01X174115Y33610D01*
G01X173112Y33610D01*
G37*
G36*
G01X174511Y33610D02*
G01X174511Y34712D01*
G01X175514Y34712D01*
G01X175514Y33610D01*
G01X174511Y33610D01*
G37*
G36*
G01X192141Y33610D02*
G01X192141Y34712D01*
G01X193145Y34712D01*
G01X193145Y33610D01*
G01X192141Y33610D01*
G37*
G36*
G01X193541Y33610D02*
G01X193541Y34712D01*
G01X194544Y34712D01*
G01X194544Y33610D01*
G01X193541Y33610D01*
G37*
G36*
G01X211201Y33610D02*
G01X211201Y34712D01*
G01X212205Y34712D01*
G01X212205Y33610D01*
G01X211201Y33610D01*
G37*
G36*
G01X212601Y33610D02*
G01X212601Y34712D01*
G01X213604Y34712D01*
G01X213604Y33610D01*
G01X212601Y33610D01*
G37*
G36*
G01X230241Y33610D02*
G01X230241Y34712D01*
G01X231245Y34712D01*
G01X231245Y33610D01*
G01X230241Y33610D01*
G37*
G36*
G01X231641Y33610D02*
G01X231641Y34712D01*
G01X232644Y34712D01*
G01X232644Y33610D01*
G01X231641Y33610D01*
G37*
G36*
G01X249301Y33610D02*
G01X249301Y34712D01*
G01X250305Y34712D01*
G01X250305Y33610D01*
G01X249301Y33610D01*
G37*
G36*
G01X250701Y33610D02*
G01X250701Y34712D01*
G01X251704Y34712D01*
G01X251704Y33610D01*
G01X250701Y33610D01*
G37*
G36*
G01X268341Y33610D02*
G01X268341Y34712D01*
G01X269345Y34712D01*
G01X269345Y33610D01*
G01X268341Y33610D01*
G37*
G36*
G01X269741Y33610D02*
G01X269741Y34712D01*
G01X270744Y34712D01*
G01X270744Y33610D01*
G01X269741Y33610D01*
G37*
G36*
G01X4031Y14560D02*
G01X4031Y15662D01*
G01X5035Y15662D01*
G01X5035Y14560D01*
G01X4031Y14560D01*
G37*
G36*
G01X5431Y14560D02*
G01X5431Y15662D01*
G01X6434Y15662D01*
G01X6434Y14560D01*
G01X5431Y14560D01*
G37*
G36*
G01X27841Y14570D02*
G01X27841Y15672D01*
G01X28845Y15672D01*
G01X28845Y14570D01*
G01X27841Y14570D01*
G37*
G36*
G01X29241Y14570D02*
G01X29241Y15672D01*
G01X30244Y15672D01*
G01X30244Y14570D01*
G01X29241Y14570D01*
G37*
G36*
G01X51651Y14570D02*
G01X51651Y15672D01*
G01X52655Y15672D01*
G01X52655Y14570D01*
G01X51651Y14570D01*
G37*
G36*
G01X53051Y14570D02*
G01X53051Y15672D01*
G01X54054Y15672D01*
G01X54054Y14570D01*
G01X53051Y14570D01*
G37*
G36*
G01X123091Y14570D02*
G01X123091Y15672D01*
G01X124095Y15672D01*
G01X124095Y14570D01*
G01X123091Y14570D01*
G37*
G36*
G01X124491Y14570D02*
G01X124491Y15672D01*
G01X125494Y15672D01*
G01X125494Y14570D01*
G01X124491Y14570D01*
G37*
G36*
G01X192141Y14570D02*
G01X192141Y15672D01*
G01X193145Y15672D01*
G01X193145Y14570D01*
G01X192141Y14570D01*
G37*
G36*
G01X193541Y14570D02*
G01X193541Y15672D01*
G01X194544Y15672D01*
G01X194544Y14570D01*
G01X193541Y14570D01*
G37*
G36*
G01X211201Y14570D02*
G01X211201Y15672D01*
G01X212205Y15672D01*
G01X212205Y14570D01*
G01X211201Y14570D01*
G37*
G36*
G01X212601Y14570D02*
G01X212601Y15672D01*
G01X213604Y15672D01*
G01X213604Y14570D01*
G01X212601Y14570D01*
G37*
G36*
G01X230241Y14570D02*
G01X230241Y15672D01*
G01X231245Y15672D01*
G01X231245Y14570D01*
G01X230241Y14570D01*
G37*
G36*
G01X231641Y14570D02*
G01X231641Y15672D01*
G01X232644Y15672D01*
G01X232644Y14570D01*
G01X231641Y14570D01*
G37*
G36*
G01X249291Y14570D02*
G01X249291Y15672D01*
G01X250295Y15672D01*
G01X250295Y14570D01*
G01X249291Y14570D01*
G37*
G36*
G01X250691Y14570D02*
G01X250691Y15672D01*
G01X251694Y15672D01*
G01X251694Y14570D01*
G01X250691Y14570D01*
G37*
G36*
G01X268341Y14570D02*
G01X268341Y15672D01*
G01X269345Y15672D01*
G01X269345Y14570D01*
G01X268341Y14570D01*
G37*
G36*
G01X269741Y14570D02*
G01X269741Y15672D01*
G01X270744Y15672D01*
G01X270744Y14570D01*
G01X269741Y14570D01*
G37*
G36*
G01X4933Y66289D02*
G01X4933Y67592D01*
G01X5835Y67592D01*
G01X5835Y66289D01*
G01X4933Y66289D01*
G37*
G36*
G01X4933Y64839D02*
G01X4933Y65644D01*
G01X5835Y65644D01*
G01X5835Y64839D01*
G01X4933Y64839D01*
G37*
G36*
G01X2533Y64839D02*
G01X2533Y65644D01*
G01X3434Y65644D01*
G01X3434Y64839D01*
G01X2533Y64839D01*
G37*
G36*
G01X2533Y66739D02*
G01X2533Y67544D01*
G01X3434Y67544D01*
G01X3434Y66739D01*
G01X2533Y66739D01*
G37*
G36*
G01X117602Y11009D02*
G01X117602Y12114D01*
G01X118606Y12114D01*
G01X118606Y11009D01*
G01X117602Y11009D01*
G37*
G36*
G01X119002Y11009D02*
G01X119002Y12114D01*
G01X120005Y12114D01*
G01X120005Y11009D01*
G01X119002Y11009D01*
G37*
G36*
G01X117602Y14951D02*
G01X117602Y16053D01*
G01X118606Y16053D01*
G01X118606Y14951D01*
G01X117602Y14951D01*
G37*
G36*
G01X119002Y14951D02*
G01X119002Y16053D01*
G01X120005Y16053D01*
G01X120005Y14951D01*
G01X119002Y14951D01*
G37*
G36*
G01X94521Y27811D02*
G01X94521Y28814D01*
G01X95624Y28814D01*
G01X95624Y27811D01*
G01X94521Y27811D01*
G37*
G36*
G01X94521Y26409D02*
G01X94521Y27412D01*
G01X95624Y27412D01*
G01X95624Y26409D01*
G01X94521Y26409D01*
G37*
G36*
G01X89472Y16899D02*
G01X89472Y18004D01*
G01X90475Y18004D01*
G01X90475Y16899D01*
G01X89472Y16899D01*
G37*
G36*
G01X90871Y16899D02*
G01X90871Y18004D01*
G01X91875Y18004D01*
G01X91875Y16899D01*
G01X90871Y16899D01*
G37*
G36*
G01X14781Y89182D02*
G01X14781Y90536D01*
G01X15586Y90536D01*
G01X15586Y89182D01*
G01X14781Y89182D01*
G37*
G36*
G01X15581Y89182D02*
G01X15581Y90536D01*
G01X16386Y90536D01*
G01X16386Y89182D01*
G01X15581Y89182D01*
G37*
G36*
G01X21181Y89182D02*
G01X21181Y90536D01*
G01X21984Y90536D01*
G01X21984Y89182D01*
G01X21181Y89182D01*
G37*
G36*
G01X20381Y89182D02*
G01X20381Y90536D01*
G01X21184Y90536D01*
G01X21184Y89182D01*
G01X20381Y89182D01*
G37*
G36*
G01X19881Y89182D02*
G01X19881Y90536D01*
G01X20384Y90536D01*
G01X20384Y89182D01*
G01X19881Y89182D01*
G37*
G36*
G01X19381Y89182D02*
G01X19381Y90536D01*
G01X19886Y90536D01*
G01X19886Y89182D01*
G01X19381Y89182D01*
G37*
G36*
G01X18883Y89182D02*
G01X18883Y90536D01*
G01X19386Y90536D01*
G01X19386Y89182D01*
G01X18883Y89182D01*
G37*
G36*
G01X18382Y89182D02*
G01X18382Y90536D01*
G01X18885Y90536D01*
G01X18885Y89182D01*
G01X18382Y89182D01*
G37*
G36*
G01X17882Y89182D02*
G01X17882Y90536D01*
G01X18385Y90536D01*
G01X18385Y89182D01*
G01X17882Y89182D01*
G37*
G36*
G01X17382Y89182D02*
G01X17382Y90536D01*
G01X17885Y90536D01*
G01X17885Y89182D01*
G01X17382Y89182D01*
G37*
G36*
G01X16881Y89182D02*
G01X16881Y90536D01*
G01X17384Y90536D01*
G01X17384Y89182D01*
G01X16881Y89182D01*
G37*
G36*
G01X16381Y89182D02*
G01X16381Y90536D01*
G01X16886Y90536D01*
G01X16886Y89182D01*
G01X16381Y89182D01*
G37*
G54D38*
G01X56792Y4302D03*
G01X63142Y6842D03*
G01X32983Y4302D03*
G01X39333Y6842D03*
G01X9173Y4302D03*
G01X15523Y6842D03*
G01X13933Y42402D03*
G01X20283Y44942D03*
G01X16312Y23352D03*
G01X22662Y25892D03*
G01X263962Y80502D03*
G01X270312Y83042D03*
G36*
G01X5532Y90800D02*
G01X5532Y91824D01*
G01X7336Y91824D01*
G01X7336Y90800D01*
G01X5532Y90800D01*
G37*
G36*
G01X11232Y90800D02*
G01X11232Y91824D01*
G01X13036Y91824D01*
G01X13036Y90800D01*
G01X11232Y90800D01*
G37*
G36*
G01X11232Y89299D02*
G01X11232Y90323D01*
G01X13036Y90323D01*
G01X13036Y89299D01*
G01X11232Y89299D01*
G37*
G36*
G01X5532Y89299D02*
G01X5532Y90323D01*
G01X7336Y90323D01*
G01X7336Y89299D01*
G01X5532Y89299D01*
G37*
G36*
G01X24684Y90798D02*
G01X24684Y91819D01*
G01X26487Y91819D01*
G01X26487Y90798D01*
G01X24684Y90798D01*
G37*
G36*
G01X30386Y90798D02*
G01X30386Y91819D01*
G01X32187Y91819D01*
G01X32187Y90798D01*
G01X30386Y90798D01*
G37*
G36*
G01X30386Y89297D02*
G01X30386Y90320D01*
G01X32187Y90320D01*
G01X32187Y89297D01*
G01X30386Y89297D01*
G37*
G36*
G01X24684Y89297D02*
G01X24684Y90320D01*
G01X26487Y90320D01*
G01X26487Y89297D01*
G01X24684Y89297D01*
G37*
G36*
G01X43744Y90798D02*
G01X43744Y91819D01*
G01X45548Y91819D01*
G01X45548Y90798D01*
G01X43744Y90798D01*
G37*
G36*
G01X49444Y90798D02*
G01X49444Y91819D01*
G01X51247Y91819D01*
G01X51247Y90798D01*
G01X49444Y90798D01*
G37*
G36*
G01X49444Y89297D02*
G01X49444Y90320D01*
G01X51247Y90320D01*
G01X51247Y89297D01*
G01X49444Y89297D01*
G37*
G36*
G01X43744Y89297D02*
G01X43744Y90320D01*
G01X45548Y90320D01*
G01X45548Y89297D01*
G01X43744Y89297D01*
G37*
G36*
G01X62784Y90798D02*
G01X62784Y91819D01*
G01X64587Y91819D01*
G01X64587Y90798D01*
G01X62784Y90798D01*
G37*
G36*
G01X68484Y90798D02*
G01X68484Y91819D01*
G01X70287Y91819D01*
G01X70287Y90798D01*
G01X68484Y90798D01*
G37*
G36*
G01X68484Y89297D02*
G01X68484Y90320D01*
G01X70287Y90320D01*
G01X70287Y89297D01*
G01X68484Y89297D01*
G37*
G36*
G01X62784Y89297D02*
G01X62784Y90320D01*
G01X64587Y90320D01*
G01X64587Y89297D01*
G01X62784Y89297D01*
G37*
G36*
G01X81834Y90798D02*
G01X81834Y91819D01*
G01X83637Y91819D01*
G01X83637Y90798D01*
G01X81834Y90798D01*
G37*
G36*
G01X87534Y90798D02*
G01X87534Y91819D01*
G01X89337Y91819D01*
G01X89337Y90798D01*
G01X87534Y90798D01*
G37*
G36*
G01X87534Y89297D02*
G01X87534Y90320D01*
G01X89337Y90320D01*
G01X89337Y89297D01*
G01X87534Y89297D01*
G37*
G36*
G01X81834Y89297D02*
G01X81834Y90320D01*
G01X83637Y90320D01*
G01X83637Y89297D01*
G01X81834Y89297D01*
G37*
G36*
G01X100884Y90798D02*
G01X100884Y91819D01*
G01X102687Y91819D01*
G01X102687Y90798D01*
G01X100884Y90798D01*
G37*
G36*
G01X106584Y90798D02*
G01X106584Y91819D01*
G01X108387Y91819D01*
G01X108387Y90798D01*
G01X106584Y90798D01*
G37*
G36*
G01X106584Y89297D02*
G01X106584Y90320D01*
G01X108387Y90320D01*
G01X108387Y89297D01*
G01X106584Y89297D01*
G37*
G36*
G01X100884Y89297D02*
G01X100884Y90320D01*
G01X102687Y90320D01*
G01X102687Y89297D01*
G01X100884Y89297D01*
G37*
G36*
G01X119944Y90798D02*
G01X119944Y91819D01*
G01X121748Y91819D01*
G01X121748Y90798D01*
G01X119944Y90798D01*
G37*
G36*
G01X125644Y90798D02*
G01X125644Y91819D01*
G01X127447Y91819D01*
G01X127447Y90798D01*
G01X125644Y90798D01*
G37*
G36*
G01X125644Y89297D02*
G01X125644Y90320D01*
G01X127447Y90320D01*
G01X127447Y89297D01*
G01X125644Y89297D01*
G37*
G36*
G01X119944Y89297D02*
G01X119944Y90320D01*
G01X121748Y90320D01*
G01X121748Y89297D01*
G01X119944Y89297D01*
G37*
G36*
G01X138994Y90798D02*
G01X138994Y91819D01*
G01X140798Y91819D01*
G01X140798Y90798D01*
G01X138994Y90798D01*
G37*
G36*
G01X144694Y90798D02*
G01X144694Y91819D01*
G01X146497Y91819D01*
G01X146497Y90798D01*
G01X144694Y90798D01*
G37*
G36*
G01X144694Y89297D02*
G01X144694Y90320D01*
G01X146497Y90320D01*
G01X146497Y89297D01*
G01X144694Y89297D01*
G37*
G36*
G01X138994Y89297D02*
G01X138994Y90320D01*
G01X140798Y90320D01*
G01X140798Y89297D01*
G01X138994Y89297D01*
G37*
G36*
G01X158034Y90798D02*
G01X158034Y91819D01*
G01X159837Y91819D01*
G01X159837Y90798D01*
G01X158034Y90798D01*
G37*
G36*
G01X163734Y90798D02*
G01X163734Y91819D01*
G01X165537Y91819D01*
G01X165537Y90798D01*
G01X163734Y90798D01*
G37*
G36*
G01X163734Y89297D02*
G01X163734Y90320D01*
G01X165537Y90320D01*
G01X165537Y89297D01*
G01X163734Y89297D01*
G37*
G36*
G01X158034Y89297D02*
G01X158034Y90320D01*
G01X159837Y90320D01*
G01X159837Y89297D01*
G01X158034Y89297D01*
G37*
G36*
G01X177084Y90798D02*
G01X177084Y91819D01*
G01X178887Y91819D01*
G01X178887Y90798D01*
G01X177084Y90798D01*
G37*
G36*
G01X182784Y90798D02*
G01X182784Y91819D01*
G01X184587Y91819D01*
G01X184587Y90798D01*
G01X182784Y90798D01*
G37*
G36*
G01X182784Y89297D02*
G01X182784Y90320D01*
G01X184587Y90320D01*
G01X184587Y89297D01*
G01X182784Y89297D01*
G37*
G36*
G01X177084Y89297D02*
G01X177084Y90320D01*
G01X178887Y90320D01*
G01X178887Y89297D01*
G01X177084Y89297D01*
G37*
G36*
G01X196144Y90798D02*
G01X196144Y91819D01*
G01X197948Y91819D01*
G01X197948Y90798D01*
G01X196144Y90798D01*
G37*
G36*
G01X201844Y90798D02*
G01X201844Y91819D01*
G01X203647Y91819D01*
G01X203647Y90798D01*
G01X201844Y90798D01*
G37*
G36*
G01X201844Y89297D02*
G01X201844Y90320D01*
G01X203647Y90320D01*
G01X203647Y89297D01*
G01X201844Y89297D01*
G37*
G36*
G01X196144Y89297D02*
G01X196144Y90320D01*
G01X197948Y90320D01*
G01X197948Y89297D01*
G01X196144Y89297D01*
G37*
G36*
G01X215194Y90798D02*
G01X215194Y91819D01*
G01X216998Y91819D01*
G01X216998Y90798D01*
G01X215194Y90798D01*
G37*
G36*
G01X220894Y90798D02*
G01X220894Y91819D01*
G01X222697Y91819D01*
G01X222697Y90798D01*
G01X220894Y90798D01*
G37*
G36*
G01X220894Y89297D02*
G01X220894Y90320D01*
G01X222697Y90320D01*
G01X222697Y89297D01*
G01X220894Y89297D01*
G37*
G36*
G01X215194Y89297D02*
G01X215194Y90320D01*
G01X216998Y90320D01*
G01X216998Y89297D01*
G01X215194Y89297D01*
G37*
G36*
G01X234244Y90798D02*
G01X234244Y91819D01*
G01X236048Y91819D01*
G01X236048Y90798D01*
G01X234244Y90798D01*
G37*
G36*
G01X239944Y90798D02*
G01X239944Y91819D01*
G01X241747Y91819D01*
G01X241747Y90798D01*
G01X239944Y90798D01*
G37*
G36*
G01X239944Y89297D02*
G01X239944Y90320D01*
G01X241747Y90320D01*
G01X241747Y89297D01*
G01X239944Y89297D01*
G37*
G36*
G01X234244Y89297D02*
G01X234244Y90320D01*
G01X236048Y90320D01*
G01X236048Y89297D01*
G01X234244Y89297D01*
G37*
G36*
G01X262730Y90798D02*
G01X262730Y91819D01*
G01X264534Y91819D01*
G01X264534Y90798D01*
G01X262730Y90798D01*
G37*
G36*
G01X268430Y90798D02*
G01X268430Y91819D01*
G01X270234Y91819D01*
G01X270234Y90798D01*
G01X268430Y90798D01*
G37*
G36*
G01X268430Y89297D02*
G01X268430Y90320D01*
G01X270234Y90320D01*
G01X270234Y89297D01*
G01X268430Y89297D01*
G37*
G36*
G01X262730Y89297D02*
G01X262730Y90320D01*
G01X264534Y90320D01*
G01X264534Y89297D01*
G01X262730Y89297D01*
G37*
G36*
G01X10323Y71750D02*
G01X10323Y72774D01*
G01X12126Y72774D01*
G01X12126Y71750D01*
G01X10323Y71750D01*
G37*
G36*
G01X16023Y71750D02*
G01X16023Y72774D01*
G01X17826Y72774D01*
G01X17826Y71750D01*
G01X16023Y71750D01*
G37*
G36*
G01X16023Y70249D02*
G01X16023Y71273D01*
G01X17826Y71273D01*
G01X17826Y70249D01*
G01X16023Y70249D01*
G37*
G36*
G01X10323Y70249D02*
G01X10323Y71273D01*
G01X12126Y71273D01*
G01X12126Y70249D01*
G01X10323Y70249D01*
G37*
G36*
G01X34214Y71750D02*
G01X34214Y72774D01*
G01X36018Y72774D01*
G01X36018Y71750D01*
G01X34214Y71750D01*
G37*
G36*
G01X39914Y71750D02*
G01X39914Y72774D01*
G01X41717Y72774D01*
G01X41717Y71750D01*
G01X39914Y71750D01*
G37*
G36*
G01X39914Y70249D02*
G01X39914Y71273D01*
G01X41717Y71273D01*
G01X41717Y70249D01*
G01X39914Y70249D01*
G37*
G36*
G01X34214Y70249D02*
G01X34214Y71273D01*
G01X36018Y71273D01*
G01X36018Y70249D01*
G01X34214Y70249D01*
G37*
G36*
G01X53264Y71750D02*
G01X53264Y72774D01*
G01X55068Y72774D01*
G01X55068Y71750D01*
G01X53264Y71750D01*
G37*
G36*
G01X58964Y71750D02*
G01X58964Y72774D01*
G01X60767Y72774D01*
G01X60767Y71750D01*
G01X58964Y71750D01*
G37*
G36*
G01X58964Y70249D02*
G01X58964Y71273D01*
G01X60767Y71273D01*
G01X60767Y70249D01*
G01X58964Y70249D01*
G37*
G36*
G01X53264Y70249D02*
G01X53264Y71273D01*
G01X55068Y71273D01*
G01X55068Y70249D01*
G01X53264Y70249D01*
G37*
G36*
G01X72314Y71750D02*
G01X72314Y72774D01*
G01X74118Y72774D01*
G01X74118Y71750D01*
G01X72314Y71750D01*
G37*
G36*
G01X78014Y71750D02*
G01X78014Y72774D01*
G01X79817Y72774D01*
G01X79817Y71750D01*
G01X78014Y71750D01*
G37*
G36*
G01X78014Y70249D02*
G01X78014Y71273D01*
G01X79817Y71273D01*
G01X79817Y70249D01*
G01X78014Y70249D01*
G37*
G36*
G01X72314Y70249D02*
G01X72314Y71273D01*
G01X74118Y71273D01*
G01X74118Y70249D01*
G01X72314Y70249D01*
G37*
G36*
G01X91364Y71750D02*
G01X91364Y72774D01*
G01X93168Y72774D01*
G01X93168Y71750D01*
G01X91364Y71750D01*
G37*
G36*
G01X97064Y71750D02*
G01X97064Y72774D01*
G01X98867Y72774D01*
G01X98867Y71750D01*
G01X97064Y71750D01*
G37*
G36*
G01X97064Y70249D02*
G01X97064Y71273D01*
G01X98867Y71273D01*
G01X98867Y70249D01*
G01X97064Y70249D01*
G37*
G36*
G01X91364Y70249D02*
G01X91364Y71273D01*
G01X93168Y71273D01*
G01X93168Y70249D01*
G01X91364Y70249D01*
G37*
G36*
G01X110414Y71750D02*
G01X110414Y72774D01*
G01X112218Y72774D01*
G01X112218Y71750D01*
G01X110414Y71750D01*
G37*
G36*
G01X116114Y71750D02*
G01X116114Y72774D01*
G01X117917Y72774D01*
G01X117917Y71750D01*
G01X116114Y71750D01*
G37*
G36*
G01X116114Y70249D02*
G01X116114Y71273D01*
G01X117917Y71273D01*
G01X117917Y70249D01*
G01X116114Y70249D01*
G37*
G36*
G01X110414Y70249D02*
G01X110414Y71273D01*
G01X112218Y71273D01*
G01X112218Y70249D01*
G01X110414Y70249D01*
G37*
G36*
G01X129464Y71750D02*
G01X129464Y72774D01*
G01X131268Y72774D01*
G01X131268Y71750D01*
G01X129464Y71750D01*
G37*
G36*
G01X135164Y71750D02*
G01X135164Y72774D01*
G01X136967Y72774D01*
G01X136967Y71750D01*
G01X135164Y71750D01*
G37*
G36*
G01X135164Y70249D02*
G01X135164Y71273D01*
G01X136967Y71273D01*
G01X136967Y70249D01*
G01X135164Y70249D01*
G37*
G36*
G01X129464Y70249D02*
G01X129464Y71273D01*
G01X131268Y71273D01*
G01X131268Y70249D01*
G01X129464Y70249D01*
G37*
G36*
G01X148514Y71750D02*
G01X148514Y72774D01*
G01X150318Y72774D01*
G01X150318Y71750D01*
G01X148514Y71750D01*
G37*
G36*
G01X154214Y71750D02*
G01X154214Y72774D01*
G01X156017Y72774D01*
G01X156017Y71750D01*
G01X154214Y71750D01*
G37*
G36*
G01X154214Y70249D02*
G01X154214Y71273D01*
G01X156017Y71273D01*
G01X156017Y70249D01*
G01X154214Y70249D01*
G37*
G36*
G01X148514Y70249D02*
G01X148514Y71273D01*
G01X150318Y71273D01*
G01X150318Y70249D01*
G01X148514Y70249D01*
G37*
G36*
G01X167564Y71750D02*
G01X167564Y72774D01*
G01X169368Y72774D01*
G01X169368Y71750D01*
G01X167564Y71750D01*
G37*
G36*
G01X173264Y71750D02*
G01X173264Y72774D01*
G01X175067Y72774D01*
G01X175067Y71750D01*
G01X173264Y71750D01*
G37*
G36*
G01X173264Y70249D02*
G01X173264Y71273D01*
G01X175067Y71273D01*
G01X175067Y70249D01*
G01X173264Y70249D01*
G37*
G36*
G01X167564Y70249D02*
G01X167564Y71273D01*
G01X169368Y71273D01*
G01X169368Y70249D01*
G01X167564Y70249D01*
G37*
G36*
G01X186614Y71750D02*
G01X186614Y72774D01*
G01X188418Y72774D01*
G01X188418Y71750D01*
G01X186614Y71750D01*
G37*
G36*
G01X192314Y71750D02*
G01X192314Y72774D01*
G01X194117Y72774D01*
G01X194117Y71750D01*
G01X192314Y71750D01*
G37*
G36*
G01X192314Y70249D02*
G01X192314Y71273D01*
G01X194117Y71273D01*
G01X194117Y70249D01*
G01X192314Y70249D01*
G37*
G36*
G01X186614Y70249D02*
G01X186614Y71273D01*
G01X188418Y71273D01*
G01X188418Y70249D01*
G01X186614Y70249D01*
G37*
G36*
G01X205664Y71750D02*
G01X205664Y72774D01*
G01X207468Y72774D01*
G01X207468Y71750D01*
G01X205664Y71750D01*
G37*
G36*
G01X211364Y71750D02*
G01X211364Y72774D01*
G01X213167Y72774D01*
G01X213167Y71750D01*
G01X211364Y71750D01*
G37*
G36*
G01X211364Y70249D02*
G01X211364Y71273D01*
G01X213167Y71273D01*
G01X213167Y70249D01*
G01X211364Y70249D01*
G37*
G36*
G01X205664Y70249D02*
G01X205664Y71273D01*
G01X207468Y71273D01*
G01X207468Y70249D01*
G01X205664Y70249D01*
G37*
G36*
G01X224714Y71750D02*
G01X224714Y72774D01*
G01X226518Y72774D01*
G01X226518Y71750D01*
G01X224714Y71750D01*
G37*
G36*
G01X230414Y71750D02*
G01X230414Y72774D01*
G01X232217Y72774D01*
G01X232217Y71750D01*
G01X230414Y71750D01*
G37*
G36*
G01X230414Y70249D02*
G01X230414Y71273D01*
G01X232217Y71273D01*
G01X232217Y70249D01*
G01X230414Y70249D01*
G37*
G36*
G01X224714Y70249D02*
G01X224714Y71273D01*
G01X226518Y71273D01*
G01X226518Y70249D01*
G01X224714Y70249D01*
G37*
G36*
G01X243764Y71750D02*
G01X243764Y72774D01*
G01X245568Y72774D01*
G01X245568Y71750D01*
G01X243764Y71750D01*
G37*
G36*
G01X249464Y71750D02*
G01X249464Y72774D01*
G01X251267Y72774D01*
G01X251267Y71750D01*
G01X249464Y71750D01*
G37*
G36*
G01X249464Y70249D02*
G01X249464Y71273D01*
G01X251267Y71273D01*
G01X251267Y70249D01*
G01X249464Y70249D01*
G37*
G36*
G01X243764Y70249D02*
G01X243764Y71273D01*
G01X245568Y71273D01*
G01X245568Y70249D01*
G01X243764Y70249D01*
G37*
G36*
G01X267490Y71750D02*
G01X267490Y72774D01*
G01X269294Y72774D01*
G01X269294Y71750D01*
G01X267490Y71750D01*
G37*
G36*
G01X273190Y71750D02*
G01X273190Y72774D01*
G01X274993Y72774D01*
G01X274993Y71750D01*
G01X273190Y71750D01*
G37*
G36*
G01X273190Y70249D02*
G01X273190Y71273D01*
G01X274993Y71273D01*
G01X274993Y70249D01*
G01X273190Y70249D01*
G37*
G36*
G01X267490Y70249D02*
G01X267490Y71273D01*
G01X269294Y71273D01*
G01X269294Y70249D01*
G01X267490Y70249D01*
G37*
G36*
G01X12700Y52698D02*
G01X12700Y53719D01*
G01X14504Y53719D01*
G01X14504Y52698D01*
G01X12700Y52698D01*
G37*
G36*
G01X18400Y52698D02*
G01X18400Y53719D01*
G01X20204Y53719D01*
G01X20204Y52698D01*
G01X18400Y52698D01*
G37*
G36*
G01X18400Y51197D02*
G01X18400Y52220D01*
G01X20204Y52220D01*
G01X20204Y51197D01*
G01X18400Y51197D01*
G37*
G36*
G01X12700Y51197D02*
G01X12700Y52220D01*
G01X14504Y52220D01*
G01X14504Y51197D01*
G01X12700Y51197D01*
G37*
G36*
G01X38974Y52698D02*
G01X38974Y53719D01*
G01X40778Y53719D01*
G01X40778Y52698D01*
G01X38974Y52698D01*
G37*
G36*
G01X44676Y52698D02*
G01X44676Y53719D01*
G01X46477Y53719D01*
G01X46477Y52698D01*
G01X44676Y52698D01*
G37*
G36*
G01X44676Y51197D02*
G01X44676Y52220D01*
G01X46477Y52220D01*
G01X46477Y51197D01*
G01X44676Y51197D01*
G37*
G36*
G01X38974Y51197D02*
G01X38974Y52220D01*
G01X40778Y52220D01*
G01X40778Y51197D01*
G01X38974Y51197D01*
G37*
G36*
G01X58024Y52698D02*
G01X58024Y53719D01*
G01X59828Y53719D01*
G01X59828Y52698D01*
G01X58024Y52698D01*
G37*
G36*
G01X63726Y52698D02*
G01X63726Y53719D01*
G01X65527Y53719D01*
G01X65527Y52698D01*
G01X63726Y52698D01*
G37*
G36*
G01X63726Y51197D02*
G01X63726Y52220D01*
G01X65527Y52220D01*
G01X65527Y51197D01*
G01X63726Y51197D01*
G37*
G36*
G01X58024Y51197D02*
G01X58024Y52220D01*
G01X59828Y52220D01*
G01X59828Y51197D01*
G01X58024Y51197D01*
G37*
G36*
G01X77074Y52698D02*
G01X77074Y53719D01*
G01X78878Y53719D01*
G01X78878Y52698D01*
G01X77074Y52698D01*
G37*
G36*
G01X82774Y52698D02*
G01X82774Y53719D01*
G01X84577Y53719D01*
G01X84577Y52698D01*
G01X82774Y52698D01*
G37*
G36*
G01X82774Y51197D02*
G01X82774Y52220D01*
G01X84577Y52220D01*
G01X84577Y51197D01*
G01X82774Y51197D01*
G37*
G36*
G01X77074Y51197D02*
G01X77074Y52220D01*
G01X78878Y52220D01*
G01X78878Y51197D01*
G01X77074Y51197D01*
G37*
G36*
G01X96124Y52698D02*
G01X96124Y53719D01*
G01X97928Y53719D01*
G01X97928Y52698D01*
G01X96124Y52698D01*
G37*
G36*
G01X101824Y52698D02*
G01X101824Y53719D01*
G01X103627Y53719D01*
G01X103627Y52698D01*
G01X101824Y52698D01*
G37*
G36*
G01X101824Y51197D02*
G01X101824Y52220D01*
G01X103627Y52220D01*
G01X103627Y51197D01*
G01X101824Y51197D01*
G37*
G36*
G01X96124Y51197D02*
G01X96124Y52220D01*
G01X97928Y52220D01*
G01X97928Y51197D01*
G01X96124Y51197D01*
G37*
G36*
G01X115174Y52698D02*
G01X115174Y53719D01*
G01X116978Y53719D01*
G01X116978Y52698D01*
G01X115174Y52698D01*
G37*
G36*
G01X120874Y52698D02*
G01X120874Y53719D01*
G01X122677Y53719D01*
G01X122677Y52698D01*
G01X120874Y52698D01*
G37*
G36*
G01X120874Y51197D02*
G01X120874Y52220D01*
G01X122677Y52220D01*
G01X122677Y51197D01*
G01X120874Y51197D01*
G37*
G36*
G01X115174Y51197D02*
G01X115174Y52220D01*
G01X116978Y52220D01*
G01X116978Y51197D01*
G01X115174Y51197D01*
G37*
G36*
G01X134224Y52698D02*
G01X134224Y53719D01*
G01X136028Y53719D01*
G01X136028Y52698D01*
G01X134224Y52698D01*
G37*
G36*
G01X139924Y52698D02*
G01X139924Y53719D01*
G01X141727Y53719D01*
G01X141727Y52698D01*
G01X139924Y52698D01*
G37*
G36*
G01X139924Y51197D02*
G01X139924Y52220D01*
G01X141727Y52220D01*
G01X141727Y51197D01*
G01X139924Y51197D01*
G37*
G36*
G01X134224Y51197D02*
G01X134224Y52220D01*
G01X136028Y52220D01*
G01X136028Y51197D01*
G01X134224Y51197D01*
G37*
G36*
G01X153274Y52698D02*
G01X153274Y53719D01*
G01X155078Y53719D01*
G01X155078Y52698D01*
G01X153274Y52698D01*
G37*
G36*
G01X158974Y52698D02*
G01X158974Y53719D01*
G01X160777Y53719D01*
G01X160777Y52698D01*
G01X158974Y52698D01*
G37*
G36*
G01X158974Y51197D02*
G01X158974Y52220D01*
G01X160777Y52220D01*
G01X160777Y51197D01*
G01X158974Y51197D01*
G37*
G36*
G01X153274Y51197D02*
G01X153274Y52220D01*
G01X155078Y52220D01*
G01X155078Y51197D01*
G01X153274Y51197D01*
G37*
G36*
G01X172324Y52698D02*
G01X172324Y53719D01*
G01X174128Y53719D01*
G01X174128Y52698D01*
G01X172324Y52698D01*
G37*
G36*
G01X178024Y52698D02*
G01X178024Y53719D01*
G01X179827Y53719D01*
G01X179827Y52698D01*
G01X178024Y52698D01*
G37*
G36*
G01X178024Y51197D02*
G01X178024Y52220D01*
G01X179827Y52220D01*
G01X179827Y51197D01*
G01X178024Y51197D01*
G37*
G36*
G01X172324Y51197D02*
G01X172324Y52220D01*
G01X174128Y52220D01*
G01X174128Y51197D01*
G01X172324Y51197D01*
G37*
G36*
G01X191374Y52698D02*
G01X191374Y53719D01*
G01X193178Y53719D01*
G01X193178Y52698D01*
G01X191374Y52698D01*
G37*
G36*
G01X197074Y52698D02*
G01X197074Y53719D01*
G01X198877Y53719D01*
G01X198877Y52698D01*
G01X197074Y52698D01*
G37*
G36*
G01X197074Y51197D02*
G01X197074Y52220D01*
G01X198877Y52220D01*
G01X198877Y51197D01*
G01X197074Y51197D01*
G37*
G36*
G01X191374Y51197D02*
G01X191374Y52220D01*
G01X193178Y52220D01*
G01X193178Y51197D01*
G01X191374Y51197D01*
G37*
G36*
G01X210424Y52698D02*
G01X210424Y53719D01*
G01X212228Y53719D01*
G01X212228Y52698D01*
G01X210424Y52698D01*
G37*
G36*
G01X216124Y52698D02*
G01X216124Y53719D01*
G01X217927Y53719D01*
G01X217927Y52698D01*
G01X216124Y52698D01*
G37*
G36*
G01X216124Y51197D02*
G01X216124Y52220D01*
G01X217927Y52220D01*
G01X217927Y51197D01*
G01X216124Y51197D01*
G37*
G36*
G01X210424Y51197D02*
G01X210424Y52220D01*
G01X212228Y52220D01*
G01X212228Y51197D01*
G01X210424Y51197D01*
G37*
G36*
G01X229474Y52698D02*
G01X229474Y53719D01*
G01X231278Y53719D01*
G01X231278Y52698D01*
G01X229474Y52698D01*
G37*
G36*
G01X235174Y52698D02*
G01X235174Y53719D01*
G01X236977Y53719D01*
G01X236977Y52698D01*
G01X235174Y52698D01*
G37*
G36*
G01X235174Y51197D02*
G01X235174Y52220D01*
G01X236977Y52220D01*
G01X236977Y51197D01*
G01X235174Y51197D01*
G37*
G36*
G01X229474Y51197D02*
G01X229474Y52220D01*
G01X231278Y52220D01*
G01X231278Y51197D01*
G01X229474Y51197D01*
G37*
G36*
G01X260350Y52698D02*
G01X260350Y53719D01*
G01X262154Y53719D01*
G01X262154Y52698D01*
G01X260350Y52698D01*
G37*
G36*
G01X266053Y52698D02*
G01X266053Y53719D01*
G01X267854Y53719D01*
G01X267854Y52698D01*
G01X266053Y52698D01*
G37*
G36*
G01X266053Y51197D02*
G01X266053Y52220D01*
G01X267854Y52220D01*
G01X267854Y51197D01*
G01X266053Y51197D01*
G37*
G36*
G01X260350Y51197D02*
G01X260350Y52220D01*
G01X262154Y52220D01*
G01X262154Y51197D01*
G01X260350Y51197D01*
G37*
G36*
G01X15083Y33640D02*
G01X15083Y34664D01*
G01X16886Y34664D01*
G01X16886Y33640D01*
G01X15083Y33640D01*
G37*
G36*
G01X20783Y33640D02*
G01X20783Y34664D01*
G01X22586Y34664D01*
G01X22586Y33640D01*
G01X20783Y33640D01*
G37*
G36*
G01X20783Y32139D02*
G01X20783Y33163D01*
G01X22586Y33163D01*
G01X22586Y32139D01*
G01X20783Y32139D01*
G37*
G36*
G01X15083Y32139D02*
G01X15083Y33163D01*
G01X16886Y33163D01*
G01X16886Y32139D01*
G01X15083Y32139D01*
G37*
G36*
G01X43734Y33640D02*
G01X43734Y34664D01*
G01X45537Y34664D01*
G01X45537Y33640D01*
G01X43734Y33640D01*
G37*
G36*
G01X49436Y33640D02*
G01X49436Y34664D01*
G01X51237Y34664D01*
G01X51237Y33640D01*
G01X49436Y33640D01*
G37*
G36*
G01X49436Y32139D02*
G01X49436Y33163D01*
G01X51237Y33163D01*
G01X51237Y32139D01*
G01X49436Y32139D01*
G37*
G36*
G01X43734Y32139D02*
G01X43734Y33163D01*
G01X45537Y33163D01*
G01X45537Y32139D01*
G01X43734Y32139D01*
G37*
G36*
G01X62784Y33640D02*
G01X62784Y34664D01*
G01X64587Y34664D01*
G01X64587Y33640D01*
G01X62784Y33640D01*
G37*
G36*
G01X68484Y33640D02*
G01X68484Y34664D01*
G01X70287Y34664D01*
G01X70287Y33640D01*
G01X68484Y33640D01*
G37*
G36*
G01X68484Y32139D02*
G01X68484Y33163D01*
G01X70287Y33163D01*
G01X70287Y32139D01*
G01X68484Y32139D01*
G37*
G36*
G01X62784Y32139D02*
G01X62784Y33163D01*
G01X64587Y33163D01*
G01X64587Y32139D01*
G01X62784Y32139D01*
G37*
G36*
G01X81844Y33640D02*
G01X81844Y34664D01*
G01X83648Y34664D01*
G01X83648Y33640D01*
G01X81844Y33640D01*
G37*
G36*
G01X87544Y33640D02*
G01X87544Y34664D01*
G01X89347Y34664D01*
G01X89347Y33640D01*
G01X87544Y33640D01*
G37*
G36*
G01X87544Y32139D02*
G01X87544Y33163D01*
G01X89347Y33163D01*
G01X89347Y32139D01*
G01X87544Y32139D01*
G37*
G36*
G01X81844Y32139D02*
G01X81844Y33163D01*
G01X83648Y33163D01*
G01X83648Y32139D01*
G01X81844Y32139D01*
G37*
G36*
G01X100894Y33640D02*
G01X100894Y34664D01*
G01X102698Y34664D01*
G01X102698Y33640D01*
G01X100894Y33640D01*
G37*
G36*
G01X106594Y33640D02*
G01X106594Y34664D01*
G01X108397Y34664D01*
G01X108397Y33640D01*
G01X106594Y33640D01*
G37*
G36*
G01X106594Y32139D02*
G01X106594Y33163D01*
G01X108397Y33163D01*
G01X108397Y32139D01*
G01X106594Y32139D01*
G37*
G36*
G01X100894Y32139D02*
G01X100894Y33163D01*
G01X102698Y33163D01*
G01X102698Y32139D01*
G01X100894Y32139D01*
G37*
G36*
G01X119944Y33640D02*
G01X119944Y34664D01*
G01X121748Y34664D01*
G01X121748Y33640D01*
G01X119944Y33640D01*
G37*
G36*
G01X125644Y33640D02*
G01X125644Y34664D01*
G01X127447Y34664D01*
G01X127447Y33640D01*
G01X125644Y33640D01*
G37*
G36*
G01X125644Y32139D02*
G01X125644Y33163D01*
G01X127447Y33163D01*
G01X127447Y32139D01*
G01X125644Y32139D01*
G37*
G36*
G01X119944Y32139D02*
G01X119944Y33163D01*
G01X121748Y33163D01*
G01X121748Y32139D01*
G01X119944Y32139D01*
G37*
G36*
G01X138984Y33640D02*
G01X138984Y34664D01*
G01X140787Y34664D01*
G01X140787Y33640D01*
G01X138984Y33640D01*
G37*
G36*
G01X144684Y33640D02*
G01X144684Y34664D01*
G01X146487Y34664D01*
G01X146487Y33640D01*
G01X144684Y33640D01*
G37*
G36*
G01X144684Y32139D02*
G01X144684Y33163D01*
G01X146487Y33163D01*
G01X146487Y32139D01*
G01X144684Y32139D01*
G37*
G36*
G01X138984Y32139D02*
G01X138984Y33163D01*
G01X140787Y33163D01*
G01X140787Y32139D01*
G01X138984Y32139D01*
G37*
G36*
G01X158034Y33640D02*
G01X158034Y34664D01*
G01X159837Y34664D01*
G01X159837Y33640D01*
G01X158034Y33640D01*
G37*
G36*
G01X163734Y33640D02*
G01X163734Y34664D01*
G01X165537Y34664D01*
G01X165537Y33640D01*
G01X163734Y33640D01*
G37*
G36*
G01X163734Y32139D02*
G01X163734Y33163D01*
G01X165537Y33163D01*
G01X165537Y32139D01*
G01X163734Y32139D01*
G37*
G36*
G01X158034Y32139D02*
G01X158034Y33163D01*
G01X159837Y33163D01*
G01X159837Y32139D01*
G01X158034Y32139D01*
G37*
G36*
G01X177094Y33640D02*
G01X177094Y34664D01*
G01X178898Y34664D01*
G01X178898Y33640D01*
G01X177094Y33640D01*
G37*
G36*
G01X182794Y33640D02*
G01X182794Y34664D01*
G01X184597Y34664D01*
G01X184597Y33640D01*
G01X182794Y33640D01*
G37*
G36*
G01X182794Y32139D02*
G01X182794Y33163D01*
G01X184597Y33163D01*
G01X184597Y32139D01*
G01X182794Y32139D01*
G37*
G36*
G01X177094Y32139D02*
G01X177094Y33163D01*
G01X178898Y33163D01*
G01X178898Y32139D01*
G01X177094Y32139D01*
G37*
G36*
G01X196134Y33640D02*
G01X196134Y34664D01*
G01X197937Y34664D01*
G01X197937Y33640D01*
G01X196134Y33640D01*
G37*
G36*
G01X201834Y33640D02*
G01X201834Y34664D01*
G01X203637Y34664D01*
G01X203637Y33640D01*
G01X201834Y33640D01*
G37*
G36*
G01X201834Y32139D02*
G01X201834Y33163D01*
G01X203637Y33163D01*
G01X203637Y32139D01*
G01X201834Y32139D01*
G37*
G36*
G01X196134Y32139D02*
G01X196134Y33163D01*
G01X197937Y33163D01*
G01X197937Y32139D01*
G01X196134Y32139D01*
G37*
G36*
G01X215194Y33640D02*
G01X215194Y34664D01*
G01X216998Y34664D01*
G01X216998Y33640D01*
G01X215194Y33640D01*
G37*
G36*
G01X220894Y33640D02*
G01X220894Y34664D01*
G01X222697Y34664D01*
G01X222697Y33640D01*
G01X220894Y33640D01*
G37*
G36*
G01X220894Y32139D02*
G01X220894Y33163D01*
G01X222697Y33163D01*
G01X222697Y32139D01*
G01X220894Y32139D01*
G37*
G36*
G01X215194Y32139D02*
G01X215194Y33163D01*
G01X216998Y33163D01*
G01X216998Y32139D01*
G01X215194Y32139D01*
G37*
G36*
G01X234234Y33640D02*
G01X234234Y34664D01*
G01X236037Y34664D01*
G01X236037Y33640D01*
G01X234234Y33640D01*
G37*
G36*
G01X239934Y33640D02*
G01X239934Y34664D01*
G01X241737Y34664D01*
G01X241737Y33640D01*
G01X239934Y33640D01*
G37*
G36*
G01X239934Y32139D02*
G01X239934Y33163D01*
G01X241737Y33163D01*
G01X241737Y32139D01*
G01X239934Y32139D01*
G37*
G36*
G01X234234Y32139D02*
G01X234234Y33163D01*
G01X236037Y33163D01*
G01X236037Y32139D01*
G01X234234Y32139D01*
G37*
G36*
G01X253284Y33640D02*
G01X253284Y34664D01*
G01X255087Y34664D01*
G01X255087Y33640D01*
G01X253284Y33640D01*
G37*
G36*
G01X258984Y33640D02*
G01X258984Y34664D01*
G01X260787Y34664D01*
G01X260787Y33640D01*
G01X258984Y33640D01*
G37*
G36*
G01X258984Y32139D02*
G01X258984Y33163D01*
G01X260787Y33163D01*
G01X260787Y32139D01*
G01X258984Y32139D01*
G37*
G36*
G01X253284Y32139D02*
G01X253284Y33163D01*
G01X255087Y33163D01*
G01X255087Y32139D01*
G01X253284Y32139D01*
G37*
G36*
G01X272334Y33640D02*
G01X272334Y34664D01*
G01X274137Y34664D01*
G01X274137Y33640D01*
G01X272334Y33640D01*
G37*
G36*
G01X278034Y33640D02*
G01X278034Y34664D01*
G01X279837Y34664D01*
G01X279837Y33640D01*
G01X278034Y33640D01*
G37*
G36*
G01X278034Y32139D02*
G01X278034Y33163D01*
G01X279837Y33163D01*
G01X279837Y32139D01*
G01X278034Y32139D01*
G37*
G36*
G01X272334Y32139D02*
G01X272334Y33163D01*
G01X274137Y33163D01*
G01X274137Y32139D01*
G01X272334Y32139D01*
G37*
G36*
G01X7940Y14600D02*
G01X7940Y15624D01*
G01X9744Y15624D01*
G01X9744Y14600D01*
G01X7940Y14600D01*
G37*
G36*
G01X13640Y14600D02*
G01X13640Y15624D01*
G01X15444Y15624D01*
G01X15444Y14600D01*
G01X13640Y14600D01*
G37*
G36*
G01X13640Y13099D02*
G01X13640Y14123D01*
G01X15444Y14123D01*
G01X15444Y13099D01*
G01X13640Y13099D01*
G37*
G36*
G01X7940Y13099D02*
G01X7940Y14123D01*
G01X9744Y14123D01*
G01X9744Y13099D01*
G01X7940Y13099D01*
G37*
G36*
G01X31750Y14600D02*
G01X31750Y15624D01*
G01X33554Y15624D01*
G01X33554Y14600D01*
G01X31750Y14600D01*
G37*
G36*
G01X37450Y14600D02*
G01X37450Y15624D01*
G01X39254Y15624D01*
G01X39254Y14600D01*
G01X37450Y14600D01*
G37*
G36*
G01X37450Y13099D02*
G01X37450Y14123D01*
G01X39254Y14123D01*
G01X39254Y13099D01*
G01X37450Y13099D01*
G37*
G36*
G01X31750Y13099D02*
G01X31750Y14123D01*
G01X33554Y14123D01*
G01X33554Y13099D01*
G01X31750Y13099D01*
G37*
G36*
G01X55560Y14600D02*
G01X55560Y15624D01*
G01X57364Y15624D01*
G01X57364Y14600D01*
G01X55560Y14600D01*
G37*
G36*
G01X61260Y14600D02*
G01X61260Y15624D01*
G01X63063Y15624D01*
G01X63063Y14600D01*
G01X61260Y14600D01*
G37*
G36*
G01X61260Y13099D02*
G01X61260Y14123D01*
G01X63063Y14123D01*
G01X63063Y13099D01*
G01X61260Y13099D01*
G37*
G36*
G01X55560Y13099D02*
G01X55560Y14123D01*
G01X57364Y14123D01*
G01X57364Y13099D01*
G01X55560Y13099D01*
G37*
G36*
G01X127003Y14600D02*
G01X127003Y15624D01*
G01X128804Y15624D01*
G01X128804Y14600D01*
G01X127003Y14600D01*
G37*
G36*
G01X132703Y14600D02*
G01X132703Y15624D01*
G01X134506Y15624D01*
G01X134506Y14600D01*
G01X132703Y14600D01*
G37*
G36*
G01X132703Y13099D02*
G01X132703Y14123D01*
G01X134506Y14123D01*
G01X134506Y13099D01*
G01X132703Y13099D01*
G37*
G36*
G01X127003Y13099D02*
G01X127003Y14123D01*
G01X128804Y14123D01*
G01X128804Y13099D01*
G01X127003Y13099D01*
G37*
G36*
G01X196134Y14600D02*
G01X196134Y15624D01*
G01X197937Y15624D01*
G01X197937Y14600D01*
G01X196134Y14600D01*
G37*
G36*
G01X201834Y14600D02*
G01X201834Y15624D01*
G01X203637Y15624D01*
G01X203637Y14600D01*
G01X201834Y14600D01*
G37*
G36*
G01X201834Y13099D02*
G01X201834Y14123D01*
G01X203637Y14123D01*
G01X203637Y13099D01*
G01X201834Y13099D01*
G37*
G36*
G01X196134Y13099D02*
G01X196134Y14123D01*
G01X197937Y14123D01*
G01X197937Y13099D01*
G01X196134Y13099D01*
G37*
G36*
G01X215194Y14600D02*
G01X215194Y15624D01*
G01X216998Y15624D01*
G01X216998Y14600D01*
G01X215194Y14600D01*
G37*
G36*
G01X220894Y14600D02*
G01X220894Y15624D01*
G01X222697Y15624D01*
G01X222697Y14600D01*
G01X220894Y14600D01*
G37*
G36*
G01X220894Y13099D02*
G01X220894Y14123D01*
G01X222697Y14123D01*
G01X222697Y13099D01*
G01X220894Y13099D01*
G37*
G36*
G01X215194Y13099D02*
G01X215194Y14123D01*
G01X216998Y14123D01*
G01X216998Y13099D01*
G01X215194Y13099D01*
G37*
G36*
G01X234234Y14600D02*
G01X234234Y15624D01*
G01X236037Y15624D01*
G01X236037Y14600D01*
G01X234234Y14600D01*
G37*
G36*
G01X239934Y14600D02*
G01X239934Y15624D01*
G01X241737Y15624D01*
G01X241737Y14600D01*
G01X239934Y14600D01*
G37*
G36*
G01X239934Y13099D02*
G01X239934Y14123D01*
G01X241737Y14123D01*
G01X241737Y13099D01*
G01X239934Y13099D01*
G37*
G36*
G01X234234Y13099D02*
G01X234234Y14123D01*
G01X236037Y14123D01*
G01X236037Y13099D01*
G01X234234Y13099D01*
G37*
G36*
G01X253284Y14600D02*
G01X253284Y15624D01*
G01X255087Y15624D01*
G01X255087Y14600D01*
G01X253284Y14600D01*
G37*
G36*
G01X258984Y14600D02*
G01X258984Y15624D01*
G01X260787Y15624D01*
G01X260787Y14600D01*
G01X258984Y14600D01*
G37*
G36*
G01X258984Y13099D02*
G01X258984Y14123D01*
G01X260787Y14123D01*
G01X260787Y13099D01*
G01X258984Y13099D01*
G37*
G36*
G01X253284Y13099D02*
G01X253284Y14123D01*
G01X255087Y14123D01*
G01X255087Y13099D01*
G01X253284Y13099D01*
G37*
G36*
G01X272334Y14600D02*
G01X272334Y15624D01*
G01X274137Y15624D01*
G01X274137Y14600D01*
G01X272334Y14600D01*
G37*
G36*
G01X278034Y14600D02*
G01X278034Y15624D01*
G01X279837Y15624D01*
G01X279837Y14600D01*
G01X278034Y14600D01*
G37*
G36*
G01X278034Y13099D02*
G01X278034Y14123D01*
G01X279837Y14123D01*
G01X279837Y13099D01*
G01X278034Y13099D01*
G37*
G36*
G01X272334Y13099D02*
G01X272334Y14123D01*
G01X274137Y14123D01*
G01X274137Y13099D01*
G01X272334Y13099D01*
G37*
G01X261582Y42402D03*
G01X267932Y44942D03*
G01X279832Y6842D03*
G01X273482Y4302D03*
G01X260782Y6842D03*
G01X254432Y4302D03*
G01X241732Y6842D03*
G01X235382Y4302D03*
G01X222692Y6842D03*
G01X216342Y4302D03*
G01X203632Y6842D03*
G01X197282Y4302D03*
G01X279832Y25892D03*
G01X273482Y23352D03*
G01X260782Y25892D03*
G01X254432Y23352D03*
G01X241732Y25892D03*
G01X235382Y23352D03*
G01X222692Y25892D03*
G01X216342Y23352D03*
G01X203632Y25892D03*
G01X197282Y23352D03*
G01X184592Y25892D03*
G01X178242Y23352D03*
G01X165532Y25892D03*
G01X159182Y23352D03*
G01X146482Y25892D03*
G01X140132Y23352D03*
G01X127442Y25892D03*
G01X121092Y23352D03*
G01X108392Y25892D03*
G01X102042Y23352D03*
G01X89342Y25892D03*
G01X82992Y23352D03*
G01X70282Y25892D03*
G01X63932Y23352D03*
G01X51232Y25892D03*
G01X44882Y23352D03*
G01X236972Y44942D03*
G01X230622Y42402D03*
G01X217922Y44942D03*
G01X211572Y42402D03*
G01X198872Y44942D03*
G01X192522Y42402D03*
G01X179822Y44942D03*
G01X173472Y42402D03*
G01X160772Y44942D03*
G01X154422Y42402D03*
G01X141722Y44942D03*
G01X135372Y42402D03*
G01X122672Y44942D03*
G01X116322Y42402D03*
G01X103622Y44942D03*
G01X97272Y42402D03*
G01X84572Y44942D03*
G01X78222Y42402D03*
G01X65522Y44943D03*
G01X59172Y42403D03*
G01X46472Y44943D03*
G01X40122Y42403D03*
G01X251262Y63992D03*
G01X244912Y61452D03*
G01X232212Y63992D03*
G01X225862Y61452D03*
G01X213162Y63992D03*
G01X206812Y61452D03*
G01X194112Y63992D03*
G01X187762Y61452D03*
G01X175062Y63992D03*
G01X168712Y61452D03*
G01X156012Y63992D03*
G01X149662Y61452D03*
G01X136962Y63992D03*
G01X130612Y61452D03*
G01X117912Y63992D03*
G01X111562Y61452D03*
G01X98862Y63992D03*
G01X92512Y61452D03*
G01X79812Y63992D03*
G01X73462Y61452D03*
G01X60762Y63992D03*
G01X54412Y61452D03*
G01X41712Y63992D03*
G01X35362Y61452D03*
G01X241742Y83042D03*
G01X235392Y80502D03*
G01X222692Y83042D03*
G01X216342Y80502D03*
G01X203642Y83042D03*
G01X197292Y80502D03*
G01X184582Y83042D03*
G01X178232Y80502D03*
G01X165532Y83042D03*
G01X159182Y80502D03*
G01X146492Y83042D03*
G01X140142Y80502D03*
G01X127442Y83042D03*
G01X121092Y80502D03*
G01X108382Y83042D03*
G01X102032Y80502D03*
G01X89332Y83042D03*
G01X82982Y80502D03*
G01X70282Y83042D03*
G01X63932Y80502D03*
G01X51243Y83042D03*
G01X44893Y80502D03*
G01X32182Y83042D03*
G01X25832Y80502D03*
G01X13143Y83042D03*
G01X6793Y80502D03*
G01X268722Y61452D03*
G01X275072Y63992D03*
G01X11553Y61452D03*
G01X17903Y63992D03*
G01X128232Y4302D03*
G01X134582Y6842D03*
M00*
M02*
