G04 Layer: BottomPasteMaskLayer*
G04 EasyEDA v6.4.7, 2020-11-18T11:17:11+08:00*
G04 fbb30233ba194d4b9104cbe7c287d4b3,98eef565fa774a6b8f51c3c50c7f61d6,10*
G04 Gerber Generator version 0.2*
G04 Scale: 100 percent, Rotated: No, Reflected: No *
G04 Dimensions in millimeters *
G04 leading zeros omitted , absolute positions ,3 integer and 3 decimal *
%FSLAX33Y33*%
%MOMM*%
G90*
D02*

%ADD18C,0.499999*%

%LPD*%
G54D18*
G01X96323Y17802D02*
G01X96323Y16502D01*
G01X97123Y17802D02*
G01X97123Y16502D01*
G01X97923Y17802D02*
G01X97923Y16502D01*
G01X98723Y17802D02*
G01X98723Y16502D01*
G01X99523Y17802D02*
G01X99523Y16502D01*
G01X100323Y17802D02*
G01X100323Y16502D01*
G01X101123Y17802D02*
G01X101123Y16502D01*
G01X101923Y17802D02*
G01X101923Y16502D01*
G01X102723Y17802D02*
G01X102723Y16502D01*
G01X103523Y17802D02*
G01X103523Y16502D01*
G01X104323Y17802D02*
G01X104323Y16502D01*
G01X105873Y14952D02*
G01X107173Y14952D01*
G01X105873Y14152D02*
G01X107173Y14152D01*
G01X105873Y13352D02*
G01X107173Y13352D01*
G01X105873Y12552D02*
G01X107173Y12552D01*
G01X105873Y11752D02*
G01X107173Y11752D01*
G01X105873Y10952D02*
G01X107173Y10952D01*
G01X105873Y10152D02*
G01X107173Y10152D01*
G01X105873Y9352D02*
G01X107173Y9352D01*
G01X105873Y8552D02*
G01X107173Y8552D01*
G01X105873Y7752D02*
G01X107173Y7752D01*
G01X105873Y6952D02*
G01X107173Y6952D01*
G01X104323Y5402D02*
G01X104323Y4102D01*
G01X103523Y5402D02*
G01X103523Y4102D01*
G01X102723Y5402D02*
G01X102723Y4102D01*
G01X101923Y5402D02*
G01X101923Y4102D01*
G01X101123Y5402D02*
G01X101123Y4102D01*
G01X100323Y5402D02*
G01X100323Y4102D01*
G01X99523Y5402D02*
G01X99523Y4102D01*
G01X98723Y5402D02*
G01X98723Y4102D01*
G01X97923Y5402D02*
G01X97923Y4102D01*
G01X97123Y5402D02*
G01X97123Y4102D01*
G01X96323Y5402D02*
G01X96323Y4102D01*
G01X93473Y6952D02*
G01X94773Y6952D01*
G01X93473Y7752D02*
G01X94773Y7752D01*
G01X93473Y8552D02*
G01X94773Y8552D01*
G01X93473Y9352D02*
G01X94773Y9352D01*
G01X93473Y10152D02*
G01X94773Y10152D01*
G01X93473Y10952D02*
G01X94773Y10952D01*
G01X93473Y11752D02*
G01X94773Y11752D01*
G01X93473Y12552D02*
G01X94773Y12552D01*
G01X93473Y13352D02*
G01X94773Y13352D01*
G01X93473Y14152D02*
G01X94773Y14152D01*
G01X93473Y14952D02*
G01X94773Y14952D01*
G36*
G01X29573Y42956D02*
G01X29573Y44306D01*
G01X27573Y44306D01*
G01X27573Y42956D01*
G01X29573Y42956D01*
G37*
G36*
G01X29573Y47456D02*
G01X29573Y48806D01*
G01X27573Y48806D01*
G01X27573Y47456D01*
G01X29573Y47456D01*
G37*
G36*
G01X86423Y4326D02*
G01X87423Y4326D01*
G01X87423Y5876D01*
G01X86423Y5876D01*
G01X86423Y4326D01*
G37*
G36*
G01X88423Y4326D02*
G01X89423Y4326D01*
G01X89423Y5876D01*
G01X88423Y5876D01*
G01X88423Y4326D01*
G37*
G36*
G01X112093Y6046D02*
G01X111093Y6046D01*
G01X111093Y4496D01*
G01X112093Y4496D01*
G01X112093Y6046D01*
G37*
G36*
G01X110093Y6046D02*
G01X109093Y6046D01*
G01X109093Y4496D01*
G01X110093Y4496D01*
G01X110093Y6046D01*
G37*
G36*
G01X110103Y18156D02*
G01X109103Y18156D01*
G01X109103Y16606D01*
G01X110103Y16606D01*
G01X110103Y18156D01*
G37*
G36*
G01X108103Y18156D02*
G01X107103Y18156D01*
G01X107103Y16606D01*
G01X108103Y16606D01*
G01X108103Y18156D01*
G37*
G36*
G01X109353Y22116D02*
G01X108353Y22116D01*
G01X108353Y20566D01*
G01X109353Y20566D01*
G01X109353Y22116D01*
G37*
G36*
G01X107353Y22116D02*
G01X106353Y22116D01*
G01X106353Y20566D01*
G01X107353Y20566D01*
G01X107353Y22116D01*
G37*
G36*
G01X2329Y78861D02*
G01X2329Y79861D01*
G01X779Y79861D01*
G01X779Y78861D01*
G01X2329Y78861D01*
G37*
G36*
G01X2329Y76861D02*
G01X2329Y77861D01*
G01X779Y77861D01*
G01X779Y76861D01*
G01X2329Y76861D01*
G37*
G36*
G01X39218Y81701D02*
G01X39218Y82701D01*
G01X37668Y82701D01*
G01X37668Y81701D01*
G01X39218Y81701D01*
G37*
G36*
G01X39218Y79701D02*
G01X39218Y80701D01*
G01X37668Y80701D01*
G01X37668Y79701D01*
G01X39218Y79701D01*
G37*
G36*
G01X33983Y49121D02*
G01X33983Y49921D01*
G01X33083Y49921D01*
G01X33083Y49121D01*
G01X33983Y49121D01*
G37*
G36*
G01X33983Y47721D02*
G01X33983Y48521D01*
G01X33083Y48521D01*
G01X33083Y47721D01*
G01X33983Y47721D01*
G37*
G36*
G01X92323Y2121D02*
G01X93123Y2121D01*
G01X93123Y3022D01*
G01X92323Y3022D01*
G01X92323Y2121D01*
G37*
G36*
G01X90923Y2121D02*
G01X91723Y2121D01*
G01X91723Y3022D01*
G01X90923Y3022D01*
G01X90923Y2121D01*
G37*
G36*
G01X16974Y77941D02*
G01X16974Y79141D01*
G01X15574Y79141D01*
G01X15574Y77941D01*
G01X16974Y77941D01*
G37*
G36*
G01X16974Y81341D02*
G01X16974Y82541D01*
G01X15574Y82541D01*
G01X15574Y81341D01*
G01X16974Y81341D01*
G37*
G36*
G01X36013Y77941D02*
G01X36013Y79141D01*
G01X34613Y79141D01*
G01X34613Y77941D01*
G01X36013Y77941D01*
G37*
G36*
G01X36013Y81341D02*
G01X36013Y82541D01*
G01X34613Y82541D01*
G01X34613Y81341D01*
G01X36013Y81341D01*
G37*
G36*
G01X55073Y77941D02*
G01X55073Y79141D01*
G01X53673Y79141D01*
G01X53673Y77941D01*
G01X55073Y77941D01*
G37*
G36*
G01X55073Y81341D02*
G01X55073Y82541D01*
G01X53673Y82541D01*
G01X53673Y81341D01*
G01X55073Y81341D01*
G37*
G36*
G01X74113Y77941D02*
G01X74113Y79141D01*
G01X72713Y79141D01*
G01X72713Y77941D01*
G01X74113Y77941D01*
G37*
G36*
G01X74113Y81341D02*
G01X74113Y82541D01*
G01X72713Y82541D01*
G01X72713Y81341D01*
G01X74113Y81341D01*
G37*
G36*
G01X93163Y77941D02*
G01X93163Y79141D01*
G01X91763Y79141D01*
G01X91763Y77941D01*
G01X93163Y77941D01*
G37*
G36*
G01X93163Y81341D02*
G01X93163Y82541D01*
G01X91763Y82541D01*
G01X91763Y81341D01*
G01X93163Y81341D01*
G37*
G36*
G01X112213Y77941D02*
G01X112213Y79141D01*
G01X110813Y79141D01*
G01X110813Y77941D01*
G01X112213Y77941D01*
G37*
G36*
G01X112213Y81341D02*
G01X112213Y82541D01*
G01X110813Y82541D01*
G01X110813Y81341D01*
G01X112213Y81341D01*
G37*
G36*
G01X131273Y77941D02*
G01X131273Y79141D01*
G01X129873Y79141D01*
G01X129873Y77941D01*
G01X131273Y77941D01*
G37*
G36*
G01X131273Y81341D02*
G01X131273Y82541D01*
G01X129873Y82541D01*
G01X129873Y81341D01*
G01X131273Y81341D01*
G37*
G36*
G01X150323Y77941D02*
G01X150323Y79141D01*
G01X148923Y79141D01*
G01X148923Y77941D01*
G01X150323Y77941D01*
G37*
G36*
G01X150323Y81341D02*
G01X150323Y82541D01*
G01X148923Y82541D01*
G01X148923Y81341D01*
G01X150323Y81341D01*
G37*
G36*
G01X169363Y77941D02*
G01X169363Y79141D01*
G01X167963Y79141D01*
G01X167963Y77941D01*
G01X169363Y77941D01*
G37*
G36*
G01X169363Y81341D02*
G01X169363Y82541D01*
G01X167963Y82541D01*
G01X167963Y81341D01*
G01X169363Y81341D01*
G37*
G36*
G01X188413Y77941D02*
G01X188413Y79141D01*
G01X187013Y79141D01*
G01X187013Y77941D01*
G01X188413Y77941D01*
G37*
G36*
G01X188413Y81341D02*
G01X188413Y82541D01*
G01X187013Y82541D01*
G01X187013Y81341D01*
G01X188413Y81341D01*
G37*
G36*
G01X207473Y77941D02*
G01X207473Y79141D01*
G01X206073Y79141D01*
G01X206073Y77941D01*
G01X207473Y77941D01*
G37*
G36*
G01X207473Y81341D02*
G01X207473Y82541D01*
G01X206073Y82541D01*
G01X206073Y81341D01*
G01X207473Y81341D01*
G37*
G36*
G01X226523Y77941D02*
G01X226523Y79141D01*
G01X225123Y79141D01*
G01X225123Y77941D01*
G01X226523Y77941D01*
G37*
G36*
G01X226523Y81341D02*
G01X226523Y82541D01*
G01X225123Y82541D01*
G01X225123Y81341D01*
G01X226523Y81341D01*
G37*
G36*
G01X245573Y77941D02*
G01X245573Y79141D01*
G01X244173Y79141D01*
G01X244173Y77941D01*
G01X245573Y77941D01*
G37*
G36*
G01X245573Y81341D02*
G01X245573Y82541D01*
G01X244173Y82541D01*
G01X244173Y81341D01*
G01X245573Y81341D01*
G37*
G36*
G01X274143Y77941D02*
G01X274143Y79141D01*
G01X272743Y79141D01*
G01X272743Y77941D01*
G01X274143Y77941D01*
G37*
G36*
G01X274143Y81341D02*
G01X274143Y82541D01*
G01X272743Y82541D01*
G01X272743Y81341D01*
G01X274143Y81341D01*
G37*
G36*
G01X21733Y58891D02*
G01X21733Y60091D01*
G01X20333Y60091D01*
G01X20333Y58891D01*
G01X21733Y58891D01*
G37*
G36*
G01X21733Y62291D02*
G01X21733Y63491D01*
G01X20333Y63491D01*
G01X20333Y62291D01*
G01X21733Y62291D01*
G37*
G36*
G01X45543Y58891D02*
G01X45543Y60091D01*
G01X44143Y60091D01*
G01X44143Y58891D01*
G01X45543Y58891D01*
G37*
G36*
G01X45543Y62291D02*
G01X45543Y63491D01*
G01X44143Y63491D01*
G01X44143Y62291D01*
G01X45543Y62291D01*
G37*
G36*
G01X64593Y58891D02*
G01X64593Y60091D01*
G01X63193Y60091D01*
G01X63193Y58891D01*
G01X64593Y58891D01*
G37*
G36*
G01X64593Y62291D02*
G01X64593Y63491D01*
G01X63193Y63491D01*
G01X63193Y62291D01*
G01X64593Y62291D01*
G37*
G36*
G01X83643Y58891D02*
G01X83643Y60091D01*
G01X82243Y60091D01*
G01X82243Y58891D01*
G01X83643Y58891D01*
G37*
G36*
G01X83643Y62291D02*
G01X83643Y63491D01*
G01X82243Y63491D01*
G01X82243Y62291D01*
G01X83643Y62291D01*
G37*
G36*
G01X102693Y58891D02*
G01X102693Y60091D01*
G01X101293Y60091D01*
G01X101293Y58891D01*
G01X102693Y58891D01*
G37*
G36*
G01X102693Y62291D02*
G01X102693Y63491D01*
G01X101293Y63491D01*
G01X101293Y62291D01*
G01X102693Y62291D01*
G37*
G36*
G01X121743Y58891D02*
G01X121743Y60091D01*
G01X120343Y60091D01*
G01X120343Y58891D01*
G01X121743Y58891D01*
G37*
G36*
G01X121743Y62291D02*
G01X121743Y63491D01*
G01X120343Y63491D01*
G01X120343Y62291D01*
G01X121743Y62291D01*
G37*
G36*
G01X140793Y58891D02*
G01X140793Y60091D01*
G01X139393Y60091D01*
G01X139393Y58891D01*
G01X140793Y58891D01*
G37*
G36*
G01X140793Y62291D02*
G01X140793Y63491D01*
G01X139393Y63491D01*
G01X139393Y62291D01*
G01X140793Y62291D01*
G37*
G36*
G01X159843Y58891D02*
G01X159843Y60091D01*
G01X158443Y60091D01*
G01X158443Y58891D01*
G01X159843Y58891D01*
G37*
G36*
G01X159843Y62291D02*
G01X159843Y63491D01*
G01X158443Y63491D01*
G01X158443Y62291D01*
G01X159843Y62291D01*
G37*
G36*
G01X178893Y58891D02*
G01X178893Y60091D01*
G01X177493Y60091D01*
G01X177493Y58891D01*
G01X178893Y58891D01*
G37*
G36*
G01X178893Y62291D02*
G01X178893Y63491D01*
G01X177493Y63491D01*
G01X177493Y62291D01*
G01X178893Y62291D01*
G37*
G36*
G01X197943Y58891D02*
G01X197943Y60091D01*
G01X196543Y60091D01*
G01X196543Y58891D01*
G01X197943Y58891D01*
G37*
G36*
G01X197943Y62291D02*
G01X197943Y63491D01*
G01X196543Y63491D01*
G01X196543Y62291D01*
G01X197943Y62291D01*
G37*
G36*
G01X216993Y58891D02*
G01X216993Y60091D01*
G01X215593Y60091D01*
G01X215593Y58891D01*
G01X216993Y58891D01*
G37*
G36*
G01X216993Y62291D02*
G01X216993Y63491D01*
G01X215593Y63491D01*
G01X215593Y62291D01*
G01X216993Y62291D01*
G37*
G36*
G01X236043Y58891D02*
G01X236043Y60091D01*
G01X234643Y60091D01*
G01X234643Y58891D01*
G01X236043Y58891D01*
G37*
G36*
G01X236043Y62291D02*
G01X236043Y63491D01*
G01X234643Y63491D01*
G01X234643Y62291D01*
G01X236043Y62291D01*
G37*
G36*
G01X255093Y58891D02*
G01X255093Y60091D01*
G01X253693Y60091D01*
G01X253693Y58891D01*
G01X255093Y58891D01*
G37*
G36*
G01X255093Y62291D02*
G01X255093Y63491D01*
G01X253693Y63491D01*
G01X253693Y62291D01*
G01X255093Y62291D01*
G37*
G36*
G01X278903Y58891D02*
G01X278903Y60091D01*
G01X277503Y60091D01*
G01X277503Y58891D01*
G01X278903Y58891D01*
G37*
G36*
G01X278903Y62291D02*
G01X278903Y63491D01*
G01X277503Y63491D01*
G01X277503Y62291D01*
G01X278903Y62291D01*
G37*
G36*
G01X24113Y39841D02*
G01X24113Y41041D01*
G01X22714Y41041D01*
G01X22714Y39841D01*
G01X24113Y39841D01*
G37*
G36*
G01X24113Y43241D02*
G01X24113Y44441D01*
G01X22714Y44441D01*
G01X22714Y43241D01*
G01X24113Y43241D01*
G37*
G36*
G01X50303Y39841D02*
G01X50303Y41041D01*
G01X48903Y41041D01*
G01X48903Y39841D01*
G01X50303Y39841D01*
G37*
G36*
G01X50303Y43241D02*
G01X50303Y44441D01*
G01X48903Y44441D01*
G01X48903Y43241D01*
G01X50303Y43241D01*
G37*
G36*
G01X69343Y39841D02*
G01X69343Y41041D01*
G01X67943Y41041D01*
G01X67943Y39841D01*
G01X69343Y39841D01*
G37*
G36*
G01X69343Y43241D02*
G01X69343Y44441D01*
G01X67943Y44441D01*
G01X67943Y43241D01*
G01X69343Y43241D01*
G37*
G36*
G01X88403Y39841D02*
G01X88403Y41041D01*
G01X87003Y41041D01*
G01X87003Y39841D01*
G01X88403Y39841D01*
G37*
G36*
G01X88403Y43241D02*
G01X88403Y44441D01*
G01X87003Y44441D01*
G01X87003Y43241D01*
G01X88403Y43241D01*
G37*
G36*
G01X107453Y39841D02*
G01X107453Y41041D01*
G01X106053Y41041D01*
G01X106053Y39841D01*
G01X107453Y39841D01*
G37*
G36*
G01X107453Y43241D02*
G01X107453Y44441D01*
G01X106053Y44441D01*
G01X106053Y43241D01*
G01X107453Y43241D01*
G37*
G36*
G01X126503Y39841D02*
G01X126503Y41041D01*
G01X125103Y41041D01*
G01X125103Y39841D01*
G01X126503Y39841D01*
G37*
G36*
G01X126503Y43241D02*
G01X126503Y44441D01*
G01X125103Y44441D01*
G01X125103Y43241D01*
G01X126503Y43241D01*
G37*
G36*
G01X145553Y39841D02*
G01X145553Y41041D01*
G01X144153Y41041D01*
G01X144153Y39841D01*
G01X145553Y39841D01*
G37*
G36*
G01X145553Y43241D02*
G01X145553Y44441D01*
G01X144153Y44441D01*
G01X144153Y43241D01*
G01X145553Y43241D01*
G37*
G36*
G01X164603Y39841D02*
G01X164603Y41041D01*
G01X163203Y41041D01*
G01X163203Y39841D01*
G01X164603Y39841D01*
G37*
G36*
G01X164603Y43241D02*
G01X164603Y44441D01*
G01X163203Y44441D01*
G01X163203Y43241D01*
G01X164603Y43241D01*
G37*
G36*
G01X183653Y39841D02*
G01X183653Y41041D01*
G01X182253Y41041D01*
G01X182253Y39841D01*
G01X183653Y39841D01*
G37*
G36*
G01X183653Y43241D02*
G01X183653Y44441D01*
G01X182253Y44441D01*
G01X182253Y43241D01*
G01X183653Y43241D01*
G37*
G36*
G01X202703Y39841D02*
G01X202703Y41041D01*
G01X201303Y41041D01*
G01X201303Y39841D01*
G01X202703Y39841D01*
G37*
G36*
G01X202703Y43241D02*
G01X202703Y44441D01*
G01X201303Y44441D01*
G01X201303Y43241D01*
G01X202703Y43241D01*
G37*
G36*
G01X221753Y39841D02*
G01X221753Y41041D01*
G01X220353Y41041D01*
G01X220353Y39841D01*
G01X221753Y39841D01*
G37*
G36*
G01X221753Y43241D02*
G01X221753Y44441D01*
G01X220353Y44441D01*
G01X220353Y43241D01*
G01X221753Y43241D01*
G37*
G36*
G01X240803Y39841D02*
G01X240803Y41041D01*
G01X239403Y41041D01*
G01X239403Y39841D01*
G01X240803Y39841D01*
G37*
G36*
G01X240803Y43241D02*
G01X240803Y44441D01*
G01X239403Y44441D01*
G01X239403Y43241D01*
G01X240803Y43241D01*
G37*
G36*
G01X271763Y39841D02*
G01X271763Y41041D01*
G01X270363Y41041D01*
G01X270363Y39841D01*
G01X271763Y39841D01*
G37*
G36*
G01X271763Y43241D02*
G01X271763Y44441D01*
G01X270363Y44441D01*
G01X270363Y43241D01*
G01X271763Y43241D01*
G37*
G36*
G01X26483Y20791D02*
G01X26483Y21991D01*
G01X25083Y21991D01*
G01X25083Y20791D01*
G01X26483Y20791D01*
G37*
G36*
G01X26483Y24191D02*
G01X26483Y25391D01*
G01X25083Y25391D01*
G01X25083Y24191D01*
G01X26483Y24191D01*
G37*
G36*
G01X55053Y20791D02*
G01X55053Y21991D01*
G01X53653Y21991D01*
G01X53653Y20791D01*
G01X55053Y20791D01*
G37*
G36*
G01X55053Y24191D02*
G01X55053Y25391D01*
G01X53653Y25391D01*
G01X53653Y24191D01*
G01X55053Y24191D01*
G37*
G36*
G01X74103Y20791D02*
G01X74103Y21991D01*
G01X72703Y21991D01*
G01X72703Y20791D01*
G01X74103Y20791D01*
G37*
G36*
G01X74103Y24191D02*
G01X74103Y25391D01*
G01X72703Y25391D01*
G01X72703Y24191D01*
G01X74103Y24191D01*
G37*
G36*
G01X93163Y20791D02*
G01X93163Y21991D01*
G01X91763Y21991D01*
G01X91763Y20791D01*
G01X93163Y20791D01*
G37*
G36*
G01X93163Y24191D02*
G01X93163Y25391D01*
G01X91763Y25391D01*
G01X91763Y24191D01*
G01X93163Y24191D01*
G37*
G36*
G01X112213Y20791D02*
G01X112213Y21991D01*
G01X110813Y21991D01*
G01X110813Y20791D01*
G01X112213Y20791D01*
G37*
G36*
G01X112213Y24191D02*
G01X112213Y25391D01*
G01X110813Y25391D01*
G01X110813Y24191D01*
G01X112213Y24191D01*
G37*
G36*
G01X131273Y20791D02*
G01X131273Y21991D01*
G01X129873Y21991D01*
G01X129873Y20791D01*
G01X131273Y20791D01*
G37*
G36*
G01X131273Y24191D02*
G01X131273Y25391D01*
G01X129873Y25391D01*
G01X129873Y24191D01*
G01X131273Y24191D01*
G37*
G36*
G01X150313Y20791D02*
G01X150313Y21991D01*
G01X148913Y21991D01*
G01X148913Y20791D01*
G01X150313Y20791D01*
G37*
G36*
G01X150313Y24191D02*
G01X150313Y25391D01*
G01X148913Y25391D01*
G01X148913Y24191D01*
G01X150313Y24191D01*
G37*
G36*
G01X169363Y20791D02*
G01X169363Y21991D01*
G01X167963Y21991D01*
G01X167963Y20791D01*
G01X169363Y20791D01*
G37*
G36*
G01X169363Y24191D02*
G01X169363Y25391D01*
G01X167963Y25391D01*
G01X167963Y24191D01*
G01X169363Y24191D01*
G37*
G36*
G01X188423Y20791D02*
G01X188423Y21991D01*
G01X187023Y21991D01*
G01X187023Y20791D01*
G01X188423Y20791D01*
G37*
G36*
G01X188423Y24191D02*
G01X188423Y25391D01*
G01X187023Y25391D01*
G01X187023Y24191D01*
G01X188423Y24191D01*
G37*
G36*
G01X207463Y20791D02*
G01X207463Y21991D01*
G01X206063Y21991D01*
G01X206063Y20791D01*
G01X207463Y20791D01*
G37*
G36*
G01X207463Y24191D02*
G01X207463Y25391D01*
G01X206063Y25391D01*
G01X206063Y24191D01*
G01X207463Y24191D01*
G37*
G36*
G01X226523Y20791D02*
G01X226523Y21991D01*
G01X225123Y21991D01*
G01X225123Y20791D01*
G01X226523Y20791D01*
G37*
G36*
G01X226523Y24191D02*
G01X226523Y25391D01*
G01X225123Y25391D01*
G01X225123Y24191D01*
G01X226523Y24191D01*
G37*
G36*
G01X245563Y20791D02*
G01X245563Y21991D01*
G01X244163Y21991D01*
G01X244163Y20791D01*
G01X245563Y20791D01*
G37*
G36*
G01X245563Y24191D02*
G01X245563Y25391D01*
G01X244163Y25391D01*
G01X244163Y24191D01*
G01X245563Y24191D01*
G37*
G36*
G01X264613Y20791D02*
G01X264613Y21991D01*
G01X263213Y21991D01*
G01X263213Y20791D01*
G01X264613Y20791D01*
G37*
G36*
G01X264613Y24191D02*
G01X264613Y25391D01*
G01X263213Y25391D01*
G01X263213Y24191D01*
G01X264613Y24191D01*
G37*
G36*
G01X283663Y20791D02*
G01X283663Y21991D01*
G01X282263Y21991D01*
G01X282263Y20791D01*
G01X283663Y20791D01*
G37*
G36*
G01X283663Y24191D02*
G01X283663Y25391D01*
G01X282263Y25391D01*
G01X282263Y24191D01*
G01X283663Y24191D01*
G37*
G36*
G01X19353Y1741D02*
G01X19353Y2941D01*
G01X17953Y2941D01*
G01X17953Y1741D01*
G01X19353Y1741D01*
G37*
G36*
G01X19353Y5141D02*
G01X19353Y6341D01*
G01X17953Y6341D01*
G01X17953Y5141D01*
G01X19353Y5141D01*
G37*
G36*
G01X43153Y1741D02*
G01X43153Y2941D01*
G01X41753Y2941D01*
G01X41753Y1741D01*
G01X43153Y1741D01*
G37*
G36*
G01X43153Y5141D02*
G01X43153Y6341D01*
G01X41753Y6341D01*
G01X41753Y5141D01*
G01X43153Y5141D01*
G37*
G36*
G01X66973Y1741D02*
G01X66973Y2941D01*
G01X65573Y2941D01*
G01X65573Y1741D01*
G01X66973Y1741D01*
G37*
G36*
G01X66973Y5141D02*
G01X66973Y6341D01*
G01X65573Y6341D01*
G01X65573Y5141D01*
G01X66973Y5141D01*
G37*
G36*
G01X138413Y1741D02*
G01X138413Y2941D01*
G01X137013Y2941D01*
G01X137013Y1741D01*
G01X138413Y1741D01*
G37*
G36*
G01X138413Y5141D02*
G01X138413Y6341D01*
G01X137013Y6341D01*
G01X137013Y5141D01*
G01X138413Y5141D01*
G37*
G36*
G01X207463Y1741D02*
G01X207463Y2941D01*
G01X206063Y2941D01*
G01X206063Y1741D01*
G01X207463Y1741D01*
G37*
G36*
G01X207463Y5141D02*
G01X207463Y6341D01*
G01X206063Y6341D01*
G01X206063Y5141D01*
G01X207463Y5141D01*
G37*
G36*
G01X226523Y1741D02*
G01X226523Y2941D01*
G01X225123Y2941D01*
G01X225123Y1741D01*
G01X226523Y1741D01*
G37*
G36*
G01X226523Y5141D02*
G01X226523Y6341D01*
G01X225123Y6341D01*
G01X225123Y5141D01*
G01X226523Y5141D01*
G37*
G36*
G01X245563Y1741D02*
G01X245563Y2941D01*
G01X244163Y2941D01*
G01X244163Y1741D01*
G01X245563Y1741D01*
G37*
G36*
G01X245563Y5141D02*
G01X245563Y6341D01*
G01X244163Y6341D01*
G01X244163Y5141D01*
G01X245563Y5141D01*
G37*
G36*
G01X264613Y1741D02*
G01X264613Y2941D01*
G01X263213Y2941D01*
G01X263213Y1741D01*
G01X264613Y1741D01*
G37*
G36*
G01X264613Y5141D02*
G01X264613Y6341D01*
G01X263213Y6341D01*
G01X263213Y5141D01*
G01X264613Y5141D01*
G37*
G36*
G01X283663Y1741D02*
G01X283663Y2941D01*
G01X282263Y2941D01*
G01X282263Y1741D01*
G01X283663Y1741D01*
G37*
G36*
G01X283663Y5141D02*
G01X283663Y6341D01*
G01X282263Y6341D01*
G01X282263Y5141D01*
G01X283663Y5141D01*
G37*
G36*
G01X113604Y12431D02*
G01X113604Y10731D01*
G01X116004Y10731D01*
G01X116004Y12431D01*
G01X113604Y12431D01*
G37*
G36*
G01X113603Y16352D02*
G01X113603Y14652D01*
G01X116003Y14652D01*
G01X116003Y16352D01*
G01X113603Y16352D01*
G37*
G36*
G01X5854Y60911D02*
G01X5854Y61711D01*
G01X4954Y61711D01*
G01X4954Y60911D01*
G01X5854Y60911D01*
G37*
G36*
G01X5854Y59511D02*
G01X5854Y60311D01*
G01X4954Y60311D01*
G01X4954Y59511D01*
G01X5854Y59511D01*
G37*
G36*
G01X3454Y60911D02*
G01X3454Y61711D01*
G01X2554Y61711D01*
G01X2554Y60911D01*
G01X3454Y60911D01*
G37*
G36*
G01X3454Y59511D02*
G01X3454Y60311D01*
G01X2554Y60311D01*
G01X2554Y59511D01*
G01X3454Y59511D01*
G37*
G36*
G01X1754Y90861D02*
G01X2554Y90861D01*
G01X2554Y91761D01*
G01X1754Y91761D01*
G01X1754Y90861D01*
G37*
G36*
G01X3154Y90861D02*
G01X3954Y90861D01*
G01X3954Y91761D01*
G01X3154Y91761D01*
G01X3154Y90861D01*
G37*
G36*
G01X27383Y94381D02*
G01X26583Y94381D01*
G01X26583Y93481D01*
G01X27383Y93481D01*
G01X27383Y94381D01*
G37*
G36*
G01X25983Y94381D02*
G01X25183Y94381D01*
G01X25183Y93481D01*
G01X25983Y93481D01*
G01X25983Y94381D01*
G37*
G36*
G01X39853Y90861D02*
G01X40653Y90861D01*
G01X40653Y91761D01*
G01X39853Y91761D01*
G01X39853Y90861D01*
G37*
G36*
G01X41253Y90861D02*
G01X42053Y90861D01*
G01X42053Y91761D01*
G01X41253Y91761D01*
G01X41253Y90861D01*
G37*
G36*
G01X58893Y90861D02*
G01X59693Y90861D01*
G01X59693Y91761D01*
G01X58893Y91761D01*
G01X58893Y90861D01*
G37*
G36*
G01X60293Y90861D02*
G01X61093Y90861D01*
G01X61093Y91761D01*
G01X60293Y91761D01*
G01X60293Y90861D01*
G37*
G36*
G01X77943Y90861D02*
G01X78743Y90861D01*
G01X78743Y91761D01*
G01X77943Y91761D01*
G01X77943Y90861D01*
G37*
G36*
G01X79343Y90861D02*
G01X80143Y90861D01*
G01X80143Y91761D01*
G01X79343Y91761D01*
G01X79343Y90861D01*
G37*
G36*
G01X96993Y90861D02*
G01X97793Y90861D01*
G01X97793Y91761D01*
G01X96993Y91761D01*
G01X96993Y90861D01*
G37*
G36*
G01X98393Y90861D02*
G01X99193Y90861D01*
G01X99193Y91761D01*
G01X98393Y91761D01*
G01X98393Y90861D01*
G37*
G36*
G01X116053Y90861D02*
G01X116853Y90861D01*
G01X116853Y91761D01*
G01X116053Y91761D01*
G01X116053Y90861D01*
G37*
G36*
G01X117453Y90861D02*
G01X118253Y90861D01*
G01X118253Y91761D01*
G01X117453Y91761D01*
G01X117453Y90861D01*
G37*
G36*
G01X135103Y90861D02*
G01X135903Y90861D01*
G01X135903Y91761D01*
G01X135103Y91761D01*
G01X135103Y90861D01*
G37*
G36*
G01X136503Y90861D02*
G01X137303Y90861D01*
G01X137303Y91761D01*
G01X136503Y91761D01*
G01X136503Y90861D01*
G37*
G36*
G01X154143Y90861D02*
G01X154943Y90861D01*
G01X154943Y91761D01*
G01X154143Y91761D01*
G01X154143Y90861D01*
G37*
G36*
G01X155543Y90861D02*
G01X156343Y90861D01*
G01X156343Y91761D01*
G01X155543Y91761D01*
G01X155543Y90861D01*
G37*
G36*
G01X173193Y90861D02*
G01X173993Y90861D01*
G01X173993Y91761D01*
G01X173193Y91761D01*
G01X173193Y90861D01*
G37*
G36*
G01X174593Y90861D02*
G01X175393Y90861D01*
G01X175393Y91761D01*
G01X174593Y91761D01*
G01X174593Y90861D01*
G37*
G36*
G01X192253Y90861D02*
G01X193053Y90861D01*
G01X193053Y91761D01*
G01X192253Y91761D01*
G01X192253Y90861D01*
G37*
G36*
G01X193653Y90861D02*
G01X194453Y90861D01*
G01X194453Y91761D01*
G01X193653Y91761D01*
G01X193653Y90861D01*
G37*
G36*
G01X211303Y90861D02*
G01X212103Y90861D01*
G01X212103Y91761D01*
G01X211303Y91761D01*
G01X211303Y90861D01*
G37*
G36*
G01X212703Y90861D02*
G01X213503Y90861D01*
G01X213503Y91761D01*
G01X212703Y91761D01*
G01X212703Y90861D01*
G37*
G36*
G01X230353Y90861D02*
G01X231153Y90861D01*
G01X231153Y91761D01*
G01X230353Y91761D01*
G01X230353Y90861D01*
G37*
G36*
G01X231753Y90861D02*
G01X232553Y90861D01*
G01X232553Y91761D01*
G01X231753Y91761D01*
G01X231753Y90861D01*
G37*
G36*
G01X258923Y90861D02*
G01X259723Y90861D01*
G01X259723Y91761D01*
G01X258923Y91761D01*
G01X258923Y90861D01*
G37*
G36*
G01X260323Y90861D02*
G01X261123Y90861D01*
G01X261123Y91761D01*
G01X260323Y91761D01*
G01X260323Y90861D01*
G37*
G36*
G01X6514Y71831D02*
G01X7314Y71831D01*
G01X7314Y72731D01*
G01X6514Y72731D01*
G01X6514Y71831D01*
G37*
G36*
G01X7914Y71831D02*
G01X8714Y71831D01*
G01X8714Y72731D01*
G01X7914Y72731D01*
G01X7914Y71831D01*
G37*
G36*
G01X30313Y71831D02*
G01X31113Y71831D01*
G01X31113Y72731D01*
G01X30313Y72731D01*
G01X30313Y71831D01*
G37*
G36*
G01X31713Y71831D02*
G01X32513Y71831D01*
G01X32513Y72731D01*
G01X31713Y72731D01*
G01X31713Y71831D01*
G37*
G36*
G01X49373Y71831D02*
G01X50173Y71831D01*
G01X50173Y72731D01*
G01X49373Y72731D01*
G01X49373Y71831D01*
G37*
G36*
G01X50773Y71831D02*
G01X51573Y71831D01*
G01X51573Y72731D01*
G01X50773Y72731D01*
G01X50773Y71831D01*
G37*
G36*
G01X68423Y71831D02*
G01X69223Y71831D01*
G01X69223Y72731D01*
G01X68423Y72731D01*
G01X68423Y71831D01*
G37*
G36*
G01X69823Y71831D02*
G01X70623Y71831D01*
G01X70623Y72731D01*
G01X69823Y72731D01*
G01X69823Y71831D01*
G37*
G36*
G01X87473Y71831D02*
G01X88273Y71831D01*
G01X88273Y72731D01*
G01X87473Y72731D01*
G01X87473Y71831D01*
G37*
G36*
G01X88873Y71831D02*
G01X89673Y71831D01*
G01X89673Y72731D01*
G01X88873Y72731D01*
G01X88873Y71831D01*
G37*
G36*
G01X106523Y71831D02*
G01X107323Y71831D01*
G01X107323Y72731D01*
G01X106523Y72731D01*
G01X106523Y71831D01*
G37*
G36*
G01X107923Y71831D02*
G01X108723Y71831D01*
G01X108723Y72731D01*
G01X107923Y72731D01*
G01X107923Y71831D01*
G37*
G36*
G01X125573Y71831D02*
G01X126373Y71831D01*
G01X126373Y72731D01*
G01X125573Y72731D01*
G01X125573Y71831D01*
G37*
G36*
G01X126973Y71831D02*
G01X127773Y71831D01*
G01X127773Y72731D01*
G01X126973Y72731D01*
G01X126973Y71831D01*
G37*
G36*
G01X144623Y71831D02*
G01X145423Y71831D01*
G01X145423Y72731D01*
G01X144623Y72731D01*
G01X144623Y71831D01*
G37*
G36*
G01X146023Y71831D02*
G01X146823Y71831D01*
G01X146823Y72731D01*
G01X146023Y72731D01*
G01X146023Y71831D01*
G37*
G36*
G01X163673Y71831D02*
G01X164473Y71831D01*
G01X164473Y72731D01*
G01X163673Y72731D01*
G01X163673Y71831D01*
G37*
G36*
G01X165073Y71831D02*
G01X165873Y71831D01*
G01X165873Y72731D01*
G01X165073Y72731D01*
G01X165073Y71831D01*
G37*
G36*
G01X182723Y71831D02*
G01X183523Y71831D01*
G01X183523Y72731D01*
G01X182723Y72731D01*
G01X182723Y71831D01*
G37*
G36*
G01X184123Y71831D02*
G01X184923Y71831D01*
G01X184923Y72731D01*
G01X184123Y72731D01*
G01X184123Y71831D01*
G37*
G36*
G01X201773Y71831D02*
G01X202573Y71831D01*
G01X202573Y72731D01*
G01X201773Y72731D01*
G01X201773Y71831D01*
G37*
G36*
G01X203173Y71831D02*
G01X203973Y71831D01*
G01X203973Y72731D01*
G01X203173Y72731D01*
G01X203173Y71831D01*
G37*
G36*
G01X220823Y71831D02*
G01X221623Y71831D01*
G01X221623Y72731D01*
G01X220823Y72731D01*
G01X220823Y71831D01*
G37*
G36*
G01X222223Y71831D02*
G01X223023Y71831D01*
G01X223023Y72731D01*
G01X222223Y72731D01*
G01X222223Y71831D01*
G37*
G36*
G01X239873Y71831D02*
G01X240673Y71831D01*
G01X240673Y72731D01*
G01X239873Y72731D01*
G01X239873Y71831D01*
G37*
G36*
G01X241273Y71831D02*
G01X242073Y71831D01*
G01X242073Y72731D01*
G01X241273Y72731D01*
G01X241273Y71831D01*
G37*
G36*
G01X263683Y71831D02*
G01X264483Y71831D01*
G01X264483Y72731D01*
G01X263683Y72731D01*
G01X263683Y71831D01*
G37*
G36*
G01X265083Y71831D02*
G01X265883Y71831D01*
G01X265883Y72731D01*
G01X265083Y72731D01*
G01X265083Y71831D01*
G37*
G36*
G01X8894Y52781D02*
G01X9694Y52781D01*
G01X9694Y53681D01*
G01X8894Y53681D01*
G01X8894Y52781D01*
G37*
G36*
G01X10294Y52781D02*
G01X11094Y52781D01*
G01X11094Y53681D01*
G01X10294Y53681D01*
G01X10294Y52781D01*
G37*
G36*
G01X35083Y52781D02*
G01X35883Y52781D01*
G01X35883Y53681D01*
G01X35083Y53681D01*
G01X35083Y52781D01*
G37*
G36*
G01X36483Y52781D02*
G01X37283Y52781D01*
G01X37283Y53681D01*
G01X36483Y53681D01*
G01X36483Y52781D01*
G37*
G36*
G01X54133Y52781D02*
G01X54933Y52781D01*
G01X54933Y53681D01*
G01X54133Y53681D01*
G01X54133Y52781D01*
G37*
G36*
G01X55533Y52781D02*
G01X56333Y52781D01*
G01X56333Y53681D01*
G01X55533Y53681D01*
G01X55533Y52781D01*
G37*
G36*
G01X73173Y52781D02*
G01X73973Y52781D01*
G01X73973Y53681D01*
G01X73173Y53681D01*
G01X73173Y52781D01*
G37*
G36*
G01X74573Y52781D02*
G01X75373Y52781D01*
G01X75373Y53681D01*
G01X74573Y53681D01*
G01X74573Y52781D01*
G37*
G36*
G01X92233Y52781D02*
G01X93033Y52781D01*
G01X93033Y53681D01*
G01X92233Y53681D01*
G01X92233Y52781D01*
G37*
G36*
G01X93633Y52781D02*
G01X94433Y52781D01*
G01X94433Y53681D01*
G01X93633Y53681D01*
G01X93633Y52781D01*
G37*
G36*
G01X111283Y52781D02*
G01X112083Y52781D01*
G01X112083Y53681D01*
G01X111283Y53681D01*
G01X111283Y52781D01*
G37*
G36*
G01X112683Y52781D02*
G01X113483Y52781D01*
G01X113483Y53681D01*
G01X112683Y53681D01*
G01X112683Y52781D01*
G37*
G36*
G01X130333Y52781D02*
G01X131133Y52781D01*
G01X131133Y53681D01*
G01X130333Y53681D01*
G01X130333Y52781D01*
G37*
G36*
G01X131733Y52781D02*
G01X132533Y52781D01*
G01X132533Y53681D01*
G01X131733Y53681D01*
G01X131733Y52781D01*
G37*
G36*
G01X149383Y52781D02*
G01X150183Y52781D01*
G01X150183Y53681D01*
G01X149383Y53681D01*
G01X149383Y52781D01*
G37*
G36*
G01X150783Y52781D02*
G01X151583Y52781D01*
G01X151583Y53681D01*
G01X150783Y53681D01*
G01X150783Y52781D01*
G37*
G36*
G01X168433Y52781D02*
G01X169233Y52781D01*
G01X169233Y53681D01*
G01X168433Y53681D01*
G01X168433Y52781D01*
G37*
G36*
G01X169833Y52781D02*
G01X170633Y52781D01*
G01X170633Y53681D01*
G01X169833Y53681D01*
G01X169833Y52781D01*
G37*
G36*
G01X187483Y52781D02*
G01X188283Y52781D01*
G01X188283Y53681D01*
G01X187483Y53681D01*
G01X187483Y52781D01*
G37*
G36*
G01X188883Y52781D02*
G01X189683Y52781D01*
G01X189683Y53681D01*
G01X188883Y53681D01*
G01X188883Y52781D01*
G37*
G36*
G01X206533Y52781D02*
G01X207333Y52781D01*
G01X207333Y53681D01*
G01X206533Y53681D01*
G01X206533Y52781D01*
G37*
G36*
G01X207933Y52781D02*
G01X208733Y52781D01*
G01X208733Y53681D01*
G01X207933Y53681D01*
G01X207933Y52781D01*
G37*
G36*
G01X225583Y52781D02*
G01X226383Y52781D01*
G01X226383Y53681D01*
G01X225583Y53681D01*
G01X225583Y52781D01*
G37*
G36*
G01X226983Y52781D02*
G01X227783Y52781D01*
G01X227783Y53681D01*
G01X226983Y53681D01*
G01X226983Y52781D01*
G37*
G36*
G01X256543Y52781D02*
G01X257343Y52781D01*
G01X257343Y53681D01*
G01X256543Y53681D01*
G01X256543Y52781D01*
G37*
G36*
G01X257943Y52781D02*
G01X258743Y52781D01*
G01X258743Y53681D01*
G01X257943Y53681D01*
G01X257943Y52781D01*
G37*
G36*
G01X11273Y33711D02*
G01X12073Y33711D01*
G01X12073Y34611D01*
G01X11273Y34611D01*
G01X11273Y33711D01*
G37*
G36*
G01X12673Y33711D02*
G01X13473Y33711D01*
G01X13473Y34611D01*
G01X12673Y34611D01*
G01X12673Y33711D01*
G37*
G36*
G01X39843Y33711D02*
G01X40643Y33711D01*
G01X40643Y34611D01*
G01X39843Y34611D01*
G01X39843Y33711D01*
G37*
G36*
G01X41243Y33711D02*
G01X42043Y33711D01*
G01X42043Y34611D01*
G01X41243Y34611D01*
G01X41243Y33711D01*
G37*
G36*
G01X58893Y33711D02*
G01X59693Y33711D01*
G01X59693Y34611D01*
G01X58893Y34611D01*
G01X58893Y33711D01*
G37*
G36*
G01X60293Y33711D02*
G01X61093Y33711D01*
G01X61093Y34611D01*
G01X60293Y34611D01*
G01X60293Y33711D01*
G37*
G36*
G01X77953Y33711D02*
G01X78753Y33711D01*
G01X78753Y34611D01*
G01X77953Y34611D01*
G01X77953Y33711D01*
G37*
G36*
G01X79353Y33711D02*
G01X80153Y33711D01*
G01X80153Y34611D01*
G01X79353Y34611D01*
G01X79353Y33711D01*
G37*
G36*
G01X97013Y33711D02*
G01X97813Y33711D01*
G01X97813Y34611D01*
G01X97013Y34611D01*
G01X97013Y33711D01*
G37*
G36*
G01X98413Y33711D02*
G01X99213Y33711D01*
G01X99213Y34611D01*
G01X98413Y34611D01*
G01X98413Y33711D01*
G37*
G36*
G01X116053Y33711D02*
G01X116853Y33711D01*
G01X116853Y34611D01*
G01X116053Y34611D01*
G01X116053Y33711D01*
G37*
G36*
G01X117453Y33711D02*
G01X118253Y33711D01*
G01X118253Y34611D01*
G01X117453Y34611D01*
G01X117453Y33711D01*
G37*
G36*
G01X135093Y33711D02*
G01X135893Y33711D01*
G01X135893Y34611D01*
G01X135093Y34611D01*
G01X135093Y33711D01*
G37*
G36*
G01X136493Y33711D02*
G01X137293Y33711D01*
G01X137293Y34611D01*
G01X136493Y34611D01*
G01X136493Y33711D01*
G37*
G36*
G01X154143Y33711D02*
G01X154943Y33711D01*
G01X154943Y34611D01*
G01X154143Y34611D01*
G01X154143Y33711D01*
G37*
G36*
G01X155543Y33711D02*
G01X156343Y33711D01*
G01X156343Y34611D01*
G01X155543Y34611D01*
G01X155543Y33711D01*
G37*
G36*
G01X173213Y33711D02*
G01X174013Y33711D01*
G01X174013Y34611D01*
G01X173213Y34611D01*
G01X173213Y33711D01*
G37*
G36*
G01X174613Y33711D02*
G01X175413Y33711D01*
G01X175413Y34611D01*
G01X174613Y34611D01*
G01X174613Y33711D01*
G37*
G36*
G01X192243Y33711D02*
G01X193043Y33711D01*
G01X193043Y34611D01*
G01X192243Y34611D01*
G01X192243Y33711D01*
G37*
G36*
G01X193643Y33711D02*
G01X194443Y33711D01*
G01X194443Y34611D01*
G01X193643Y34611D01*
G01X193643Y33711D01*
G37*
G36*
G01X211303Y33711D02*
G01X212103Y33711D01*
G01X212103Y34611D01*
G01X211303Y34611D01*
G01X211303Y33711D01*
G37*
G36*
G01X212703Y33711D02*
G01X213503Y33711D01*
G01X213503Y34611D01*
G01X212703Y34611D01*
G01X212703Y33711D01*
G37*
G36*
G01X230343Y33711D02*
G01X231143Y33711D01*
G01X231143Y34611D01*
G01X230343Y34611D01*
G01X230343Y33711D01*
G37*
G36*
G01X231743Y33711D02*
G01X232543Y33711D01*
G01X232543Y34611D01*
G01X231743Y34611D01*
G01X231743Y33711D01*
G37*
G36*
G01X249403Y33711D02*
G01X250203Y33711D01*
G01X250203Y34611D01*
G01X249403Y34611D01*
G01X249403Y33711D01*
G37*
G36*
G01X250803Y33711D02*
G01X251603Y33711D01*
G01X251603Y34611D01*
G01X250803Y34611D01*
G01X250803Y33711D01*
G37*
G36*
G01X268443Y33711D02*
G01X269243Y33711D01*
G01X269243Y34611D01*
G01X268443Y34611D01*
G01X268443Y33711D01*
G37*
G36*
G01X269843Y33711D02*
G01X270643Y33711D01*
G01X270643Y34611D01*
G01X269843Y34611D01*
G01X269843Y33711D01*
G37*
G36*
G01X4134Y14661D02*
G01X4934Y14661D01*
G01X4934Y15561D01*
G01X4134Y15561D01*
G01X4134Y14661D01*
G37*
G36*
G01X5533Y14661D02*
G01X6333Y14661D01*
G01X6333Y15561D01*
G01X5533Y15561D01*
G01X5533Y14661D01*
G37*
G36*
G01X27943Y14671D02*
G01X28743Y14671D01*
G01X28743Y15571D01*
G01X27943Y15571D01*
G01X27943Y14671D01*
G37*
G36*
G01X29343Y14671D02*
G01X30143Y14671D01*
G01X30143Y15571D01*
G01X29343Y15571D01*
G01X29343Y14671D01*
G37*
G36*
G01X51753Y14671D02*
G01X52553Y14671D01*
G01X52553Y15571D01*
G01X51753Y15571D01*
G01X51753Y14671D01*
G37*
G36*
G01X53153Y14671D02*
G01X53953Y14671D01*
G01X53953Y15571D01*
G01X53153Y15571D01*
G01X53153Y14671D01*
G37*
G36*
G01X123193Y14671D02*
G01X123993Y14671D01*
G01X123993Y15571D01*
G01X123193Y15571D01*
G01X123193Y14671D01*
G37*
G36*
G01X124593Y14671D02*
G01X125393Y14671D01*
G01X125393Y15571D01*
G01X124593Y15571D01*
G01X124593Y14671D01*
G37*
G36*
G01X192243Y14671D02*
G01X193043Y14671D01*
G01X193043Y15571D01*
G01X192243Y15571D01*
G01X192243Y14671D01*
G37*
G36*
G01X193643Y14671D02*
G01X194443Y14671D01*
G01X194443Y15571D01*
G01X193643Y15571D01*
G01X193643Y14671D01*
G37*
G36*
G01X211303Y14671D02*
G01X212103Y14671D01*
G01X212103Y15571D01*
G01X211303Y15571D01*
G01X211303Y14671D01*
G37*
G36*
G01X212703Y14671D02*
G01X213503Y14671D01*
G01X213503Y15571D01*
G01X212703Y15571D01*
G01X212703Y14671D01*
G37*
G36*
G01X230343Y14671D02*
G01X231143Y14671D01*
G01X231143Y15571D01*
G01X230343Y15571D01*
G01X230343Y14671D01*
G37*
G36*
G01X231743Y14671D02*
G01X232543Y14671D01*
G01X232543Y15571D01*
G01X231743Y15571D01*
G01X231743Y14671D01*
G37*
G36*
G01X249393Y14671D02*
G01X250193Y14671D01*
G01X250193Y15571D01*
G01X249393Y15571D01*
G01X249393Y14671D01*
G37*
G36*
G01X250793Y14671D02*
G01X251593Y14671D01*
G01X251593Y15571D01*
G01X250793Y15571D01*
G01X250793Y14671D01*
G37*
G36*
G01X268443Y14671D02*
G01X269243Y14671D01*
G01X269243Y15571D01*
G01X268443Y15571D01*
G01X268443Y14671D01*
G37*
G36*
G01X269843Y14671D02*
G01X270643Y14671D01*
G01X270643Y15571D01*
G01X269843Y15571D01*
G01X269843Y14671D01*
G37*
G36*
G01X5034Y67491D02*
G01X5034Y66391D01*
G01X5734Y66391D01*
G01X5734Y67491D01*
G01X5034Y67491D01*
G37*
G36*
G01X5034Y65541D02*
G01X5034Y64941D01*
G01X5734Y64941D01*
G01X5734Y65541D01*
G01X5034Y65541D01*
G37*
G36*
G01X2634Y65541D02*
G01X2634Y64941D01*
G01X3334Y64941D01*
G01X3334Y65541D01*
G01X2634Y65541D01*
G37*
G36*
G01X2634Y67441D02*
G01X2634Y66841D01*
G01X3334Y66841D01*
G01X3334Y67441D01*
G01X2634Y67441D01*
G37*
G36*
G01X117703Y11111D02*
G01X118503Y11111D01*
G01X118503Y12011D01*
G01X117703Y12011D01*
G01X117703Y11111D01*
G37*
G36*
G01X119103Y11111D02*
G01X119903Y11111D01*
G01X119903Y12011D01*
G01X119103Y12011D01*
G01X119103Y11111D01*
G37*
G36*
G01X117703Y15051D02*
G01X118503Y15051D01*
G01X118503Y15951D01*
G01X117703Y15951D01*
G01X117703Y15051D01*
G37*
G36*
G01X119103Y15051D02*
G01X119903Y15051D01*
G01X119903Y15951D01*
G01X119103Y15951D01*
G01X119103Y15051D01*
G37*
G36*
G01X94623Y28711D02*
G01X94623Y27911D01*
G01X95523Y27911D01*
G01X95523Y28711D01*
G01X94623Y28711D01*
G37*
G36*
G01X94623Y27311D02*
G01X94623Y26511D01*
G01X95523Y26511D01*
G01X95523Y27311D01*
G01X94623Y27311D01*
G37*
G36*
G01X89573Y17001D02*
G01X90373Y17001D01*
G01X90373Y17901D01*
G01X89573Y17901D01*
G01X89573Y17001D01*
G37*
G36*
G01X90973Y17001D02*
G01X91773Y17001D01*
G01X91773Y17901D01*
G01X90973Y17901D01*
G01X90973Y17001D01*
G37*
G36*
G01X14883Y89284D02*
G01X15483Y89284D01*
G01X15483Y90434D01*
G01X14883Y90434D01*
G01X14883Y89284D01*
G37*
G36*
G01X15683Y89284D02*
G01X16283Y89284D01*
G01X16283Y90434D01*
G01X15683Y90434D01*
G01X15683Y89284D01*
G37*
G36*
G01X21283Y89284D02*
G01X21883Y89284D01*
G01X21883Y90434D01*
G01X21283Y90434D01*
G01X21283Y89284D01*
G37*
G36*
G01X20483Y89284D02*
G01X21083Y89284D01*
G01X21083Y90434D01*
G01X20483Y90434D01*
G01X20483Y89284D01*
G37*
G36*
G01X19983Y89284D02*
G01X20283Y89284D01*
G01X20283Y90434D01*
G01X19983Y90434D01*
G01X19983Y89284D01*
G37*
G36*
G01X19483Y89284D02*
G01X19783Y89284D01*
G01X19783Y90434D01*
G01X19483Y90434D01*
G01X19483Y89284D01*
G37*
G36*
G01X18983Y89284D02*
G01X19283Y89284D01*
G01X19283Y90434D01*
G01X18983Y90434D01*
G01X18983Y89284D01*
G37*
G36*
G01X18483Y89284D02*
G01X18783Y89284D01*
G01X18783Y90434D01*
G01X18483Y90434D01*
G01X18483Y89284D01*
G37*
G36*
G01X17983Y89284D02*
G01X18283Y89284D01*
G01X18283Y90434D01*
G01X17983Y90434D01*
G01X17983Y89284D01*
G37*
G36*
G01X17483Y89284D02*
G01X17783Y89284D01*
G01X17783Y90434D01*
G01X17483Y90434D01*
G01X17483Y89284D01*
G37*
G36*
G01X16983Y89284D02*
G01X17283Y89284D01*
G01X17283Y90434D01*
G01X16983Y90434D01*
G01X16983Y89284D01*
G37*
G36*
G01X16483Y89284D02*
G01X16783Y89284D01*
G01X16783Y90434D01*
G01X16483Y90434D01*
G01X16483Y89284D01*
G37*
G36*
G01X5634Y91721D02*
G01X7234Y91721D01*
G01X7234Y90901D01*
G01X5634Y90901D01*
G01X5634Y91721D01*
G37*
G36*
G01X11334Y91721D02*
G01X12934Y91721D01*
G01X12934Y90901D01*
G01X11334Y90901D01*
G01X11334Y91721D01*
G37*
G36*
G01X11334Y90221D02*
G01X12934Y90221D01*
G01X12934Y89401D01*
G01X11334Y89401D01*
G01X11334Y90221D01*
G37*
G36*
G01X5634Y90221D02*
G01X7234Y90221D01*
G01X7234Y89401D01*
G01X5634Y89401D01*
G01X5634Y90221D01*
G37*
G36*
G01X24787Y91718D02*
G01X26387Y91718D01*
G01X26387Y90898D01*
G01X24787Y90898D01*
G01X24787Y91718D01*
G37*
G36*
G01X30487Y91718D02*
G01X32087Y91718D01*
G01X32087Y90898D01*
G01X30487Y90898D01*
G01X30487Y91718D01*
G37*
G36*
G01X30487Y90218D02*
G01X32087Y90218D01*
G01X32087Y89398D01*
G01X30487Y89398D01*
G01X30487Y90218D01*
G37*
G36*
G01X24787Y90218D02*
G01X26387Y90218D01*
G01X26387Y89398D01*
G01X24787Y89398D01*
G01X24787Y90218D01*
G37*
G36*
G01X43847Y91718D02*
G01X45447Y91718D01*
G01X45447Y90898D01*
G01X43847Y90898D01*
G01X43847Y91718D01*
G37*
G36*
G01X49547Y91718D02*
G01X51147Y91718D01*
G01X51147Y90898D01*
G01X49547Y90898D01*
G01X49547Y91718D01*
G37*
G36*
G01X49547Y90218D02*
G01X51147Y90218D01*
G01X51147Y89398D01*
G01X49547Y89398D01*
G01X49547Y90218D01*
G37*
G36*
G01X43847Y90218D02*
G01X45447Y90218D01*
G01X45447Y89398D01*
G01X43847Y89398D01*
G01X43847Y90218D01*
G37*
G36*
G01X62887Y91718D02*
G01X64487Y91718D01*
G01X64487Y90898D01*
G01X62887Y90898D01*
G01X62887Y91718D01*
G37*
G36*
G01X68587Y91718D02*
G01X70187Y91718D01*
G01X70187Y90898D01*
G01X68587Y90898D01*
G01X68587Y91718D01*
G37*
G36*
G01X68587Y90218D02*
G01X70187Y90218D01*
G01X70187Y89398D01*
G01X68587Y89398D01*
G01X68587Y90218D01*
G37*
G36*
G01X62887Y90218D02*
G01X64487Y90218D01*
G01X64487Y89398D01*
G01X62887Y89398D01*
G01X62887Y90218D01*
G37*
G36*
G01X81937Y91718D02*
G01X83537Y91718D01*
G01X83537Y90898D01*
G01X81937Y90898D01*
G01X81937Y91718D01*
G37*
G36*
G01X87637Y91718D02*
G01X89237Y91718D01*
G01X89237Y90898D01*
G01X87637Y90898D01*
G01X87637Y91718D01*
G37*
G36*
G01X87637Y90218D02*
G01X89237Y90218D01*
G01X89237Y89398D01*
G01X87637Y89398D01*
G01X87637Y90218D01*
G37*
G36*
G01X81937Y90218D02*
G01X83537Y90218D01*
G01X83537Y89398D01*
G01X81937Y89398D01*
G01X81937Y90218D01*
G37*
G36*
G01X100987Y91718D02*
G01X102587Y91718D01*
G01X102587Y90898D01*
G01X100987Y90898D01*
G01X100987Y91718D01*
G37*
G36*
G01X106687Y91718D02*
G01X108287Y91718D01*
G01X108287Y90898D01*
G01X106687Y90898D01*
G01X106687Y91718D01*
G37*
G36*
G01X106687Y90218D02*
G01X108287Y90218D01*
G01X108287Y89398D01*
G01X106687Y89398D01*
G01X106687Y90218D01*
G37*
G36*
G01X100987Y90218D02*
G01X102587Y90218D01*
G01X102587Y89398D01*
G01X100987Y89398D01*
G01X100987Y90218D01*
G37*
G36*
G01X120047Y91718D02*
G01X121647Y91718D01*
G01X121647Y90898D01*
G01X120047Y90898D01*
G01X120047Y91718D01*
G37*
G36*
G01X125747Y91718D02*
G01X127347Y91718D01*
G01X127347Y90898D01*
G01X125747Y90898D01*
G01X125747Y91718D01*
G37*
G36*
G01X125747Y90218D02*
G01X127347Y90218D01*
G01X127347Y89398D01*
G01X125747Y89398D01*
G01X125747Y90218D01*
G37*
G36*
G01X120047Y90218D02*
G01X121647Y90218D01*
G01X121647Y89398D01*
G01X120047Y89398D01*
G01X120047Y90218D01*
G37*
G36*
G01X139097Y91718D02*
G01X140697Y91718D01*
G01X140697Y90898D01*
G01X139097Y90898D01*
G01X139097Y91718D01*
G37*
G36*
G01X144797Y91718D02*
G01X146397Y91718D01*
G01X146397Y90898D01*
G01X144797Y90898D01*
G01X144797Y91718D01*
G37*
G36*
G01X144797Y90218D02*
G01X146397Y90218D01*
G01X146397Y89398D01*
G01X144797Y89398D01*
G01X144797Y90218D01*
G37*
G36*
G01X139097Y90218D02*
G01X140697Y90218D01*
G01X140697Y89398D01*
G01X139097Y89398D01*
G01X139097Y90218D01*
G37*
G36*
G01X158136Y91718D02*
G01X159736Y91718D01*
G01X159736Y90898D01*
G01X158136Y90898D01*
G01X158136Y91718D01*
G37*
G36*
G01X163836Y91718D02*
G01X165436Y91718D01*
G01X165436Y90898D01*
G01X163836Y90898D01*
G01X163836Y91718D01*
G37*
G36*
G01X163836Y90218D02*
G01X165436Y90218D01*
G01X165436Y89398D01*
G01X163836Y89398D01*
G01X163836Y90218D01*
G37*
G36*
G01X158136Y90218D02*
G01X159736Y90218D01*
G01X159736Y89398D01*
G01X158136Y89398D01*
G01X158136Y90218D01*
G37*
G36*
G01X177187Y91718D02*
G01X178787Y91718D01*
G01X178787Y90898D01*
G01X177187Y90898D01*
G01X177187Y91718D01*
G37*
G36*
G01X182887Y91718D02*
G01X184487Y91718D01*
G01X184487Y90898D01*
G01X182887Y90898D01*
G01X182887Y91718D01*
G37*
G36*
G01X182887Y90218D02*
G01X184487Y90218D01*
G01X184487Y89398D01*
G01X182887Y89398D01*
G01X182887Y90218D01*
G37*
G36*
G01X177187Y90218D02*
G01X178787Y90218D01*
G01X178787Y89398D01*
G01X177187Y89398D01*
G01X177187Y90218D01*
G37*
G36*
G01X196247Y91718D02*
G01X197847Y91718D01*
G01X197847Y90898D01*
G01X196247Y90898D01*
G01X196247Y91718D01*
G37*
G36*
G01X201947Y91718D02*
G01X203547Y91718D01*
G01X203547Y90898D01*
G01X201947Y90898D01*
G01X201947Y91718D01*
G37*
G36*
G01X201947Y90218D02*
G01X203547Y90218D01*
G01X203547Y89398D01*
G01X201947Y89398D01*
G01X201947Y90218D01*
G37*
G36*
G01X196247Y90218D02*
G01X197847Y90218D01*
G01X197847Y89398D01*
G01X196247Y89398D01*
G01X196247Y90218D01*
G37*
G36*
G01X215296Y91718D02*
G01X216896Y91718D01*
G01X216896Y90898D01*
G01X215296Y90898D01*
G01X215296Y91718D01*
G37*
G36*
G01X220996Y91718D02*
G01X222596Y91718D01*
G01X222596Y90898D01*
G01X220996Y90898D01*
G01X220996Y91718D01*
G37*
G36*
G01X220996Y90218D02*
G01X222596Y90218D01*
G01X222596Y89398D01*
G01X220996Y89398D01*
G01X220996Y90218D01*
G37*
G36*
G01X215296Y90218D02*
G01X216896Y90218D01*
G01X216896Y89398D01*
G01X215296Y89398D01*
G01X215296Y90218D01*
G37*
G36*
G01X234346Y91718D02*
G01X235946Y91718D01*
G01X235946Y90898D01*
G01X234346Y90898D01*
G01X234346Y91718D01*
G37*
G36*
G01X240046Y91718D02*
G01X241646Y91718D01*
G01X241646Y90898D01*
G01X240046Y90898D01*
G01X240046Y91718D01*
G37*
G36*
G01X240046Y90218D02*
G01X241646Y90218D01*
G01X241646Y89398D01*
G01X240046Y89398D01*
G01X240046Y90218D01*
G37*
G36*
G01X234346Y90218D02*
G01X235946Y90218D01*
G01X235946Y89398D01*
G01X234346Y89398D01*
G01X234346Y90218D01*
G37*
G36*
G01X262833Y91718D02*
G01X264433Y91718D01*
G01X264433Y90898D01*
G01X262833Y90898D01*
G01X262833Y91718D01*
G37*
G36*
G01X268533Y91718D02*
G01X270133Y91718D01*
G01X270133Y90898D01*
G01X268533Y90898D01*
G01X268533Y91718D01*
G37*
G36*
G01X268533Y90218D02*
G01X270133Y90218D01*
G01X270133Y89398D01*
G01X268533Y89398D01*
G01X268533Y90218D01*
G37*
G36*
G01X262833Y90218D02*
G01X264433Y90218D01*
G01X264433Y89398D01*
G01X262833Y89398D01*
G01X262833Y90218D01*
G37*
G36*
G01X10424Y72671D02*
G01X12024Y72671D01*
G01X12024Y71851D01*
G01X10424Y71851D01*
G01X10424Y72671D01*
G37*
G36*
G01X16124Y72671D02*
G01X17724Y72671D01*
G01X17724Y71851D01*
G01X16124Y71851D01*
G01X16124Y72671D01*
G37*
G36*
G01X16124Y71171D02*
G01X17724Y71171D01*
G01X17724Y70351D01*
G01X16124Y70351D01*
G01X16124Y71171D01*
G37*
G36*
G01X10424Y71171D02*
G01X12024Y71171D01*
G01X12024Y70351D01*
G01X10424Y70351D01*
G01X10424Y71171D01*
G37*
G36*
G01X34317Y72671D02*
G01X35917Y72671D01*
G01X35917Y71851D01*
G01X34317Y71851D01*
G01X34317Y72671D01*
G37*
G36*
G01X40017Y72671D02*
G01X41617Y72671D01*
G01X41617Y71851D01*
G01X40017Y71851D01*
G01X40017Y72671D01*
G37*
G36*
G01X40017Y71171D02*
G01X41617Y71171D01*
G01X41617Y70351D01*
G01X40017Y70351D01*
G01X40017Y71171D01*
G37*
G36*
G01X34317Y71171D02*
G01X35917Y71171D01*
G01X35917Y70351D01*
G01X34317Y70351D01*
G01X34317Y71171D01*
G37*
G36*
G01X53367Y72671D02*
G01X54967Y72671D01*
G01X54967Y71851D01*
G01X53367Y71851D01*
G01X53367Y72671D01*
G37*
G36*
G01X59067Y72671D02*
G01X60667Y72671D01*
G01X60667Y71851D01*
G01X59067Y71851D01*
G01X59067Y72671D01*
G37*
G36*
G01X59067Y71171D02*
G01X60667Y71171D01*
G01X60667Y70351D01*
G01X59067Y70351D01*
G01X59067Y71171D01*
G37*
G36*
G01X53367Y71171D02*
G01X54967Y71171D01*
G01X54967Y70351D01*
G01X53367Y70351D01*
G01X53367Y71171D01*
G37*
G36*
G01X72417Y72671D02*
G01X74017Y72671D01*
G01X74017Y71851D01*
G01X72417Y71851D01*
G01X72417Y72671D01*
G37*
G36*
G01X78117Y72671D02*
G01X79717Y72671D01*
G01X79717Y71851D01*
G01X78117Y71851D01*
G01X78117Y72671D01*
G37*
G36*
G01X78117Y71171D02*
G01X79717Y71171D01*
G01X79717Y70351D01*
G01X78117Y70351D01*
G01X78117Y71171D01*
G37*
G36*
G01X72417Y71171D02*
G01X74017Y71171D01*
G01X74017Y70351D01*
G01X72417Y70351D01*
G01X72417Y71171D01*
G37*
G36*
G01X91467Y72671D02*
G01X93067Y72671D01*
G01X93067Y71851D01*
G01X91467Y71851D01*
G01X91467Y72671D01*
G37*
G36*
G01X97167Y72671D02*
G01X98767Y72671D01*
G01X98767Y71851D01*
G01X97167Y71851D01*
G01X97167Y72671D01*
G37*
G36*
G01X97167Y71171D02*
G01X98767Y71171D01*
G01X98767Y70351D01*
G01X97167Y70351D01*
G01X97167Y71171D01*
G37*
G36*
G01X91467Y71171D02*
G01X93067Y71171D01*
G01X93067Y70351D01*
G01X91467Y70351D01*
G01X91467Y71171D01*
G37*
G36*
G01X110517Y72671D02*
G01X112117Y72671D01*
G01X112117Y71851D01*
G01X110517Y71851D01*
G01X110517Y72671D01*
G37*
G36*
G01X116217Y72671D02*
G01X117817Y72671D01*
G01X117817Y71851D01*
G01X116217Y71851D01*
G01X116217Y72671D01*
G37*
G36*
G01X116217Y71171D02*
G01X117817Y71171D01*
G01X117817Y70351D01*
G01X116217Y70351D01*
G01X116217Y71171D01*
G37*
G36*
G01X110517Y71171D02*
G01X112117Y71171D01*
G01X112117Y70351D01*
G01X110517Y70351D01*
G01X110517Y71171D01*
G37*
G36*
G01X129567Y72671D02*
G01X131167Y72671D01*
G01X131167Y71851D01*
G01X129567Y71851D01*
G01X129567Y72671D01*
G37*
G36*
G01X135267Y72671D02*
G01X136867Y72671D01*
G01X136867Y71851D01*
G01X135267Y71851D01*
G01X135267Y72671D01*
G37*
G36*
G01X135267Y71171D02*
G01X136867Y71171D01*
G01X136867Y70351D01*
G01X135267Y70351D01*
G01X135267Y71171D01*
G37*
G36*
G01X129567Y71171D02*
G01X131167Y71171D01*
G01X131167Y70351D01*
G01X129567Y70351D01*
G01X129567Y71171D01*
G37*
G36*
G01X148617Y72671D02*
G01X150217Y72671D01*
G01X150217Y71851D01*
G01X148617Y71851D01*
G01X148617Y72671D01*
G37*
G36*
G01X154317Y72671D02*
G01X155917Y72671D01*
G01X155917Y71851D01*
G01X154317Y71851D01*
G01X154317Y72671D01*
G37*
G36*
G01X154317Y71171D02*
G01X155917Y71171D01*
G01X155917Y70351D01*
G01X154317Y70351D01*
G01X154317Y71171D01*
G37*
G36*
G01X148617Y71171D02*
G01X150217Y71171D01*
G01X150217Y70351D01*
G01X148617Y70351D01*
G01X148617Y71171D01*
G37*
G36*
G01X167667Y72671D02*
G01X169267Y72671D01*
G01X169267Y71851D01*
G01X167667Y71851D01*
G01X167667Y72671D01*
G37*
G36*
G01X173367Y72671D02*
G01X174967Y72671D01*
G01X174967Y71851D01*
G01X173367Y71851D01*
G01X173367Y72671D01*
G37*
G36*
G01X173367Y71171D02*
G01X174967Y71171D01*
G01X174967Y70351D01*
G01X173367Y70351D01*
G01X173367Y71171D01*
G37*
G36*
G01X167667Y71171D02*
G01X169267Y71171D01*
G01X169267Y70351D01*
G01X167667Y70351D01*
G01X167667Y71171D01*
G37*
G36*
G01X186716Y72671D02*
G01X188316Y72671D01*
G01X188316Y71851D01*
G01X186716Y71851D01*
G01X186716Y72671D01*
G37*
G36*
G01X192416Y72671D02*
G01X194016Y72671D01*
G01X194016Y71851D01*
G01X192416Y71851D01*
G01X192416Y72671D01*
G37*
G36*
G01X192416Y71171D02*
G01X194016Y71171D01*
G01X194016Y70351D01*
G01X192416Y70351D01*
G01X192416Y71171D01*
G37*
G36*
G01X186716Y71171D02*
G01X188316Y71171D01*
G01X188316Y70351D01*
G01X186716Y70351D01*
G01X186716Y71171D01*
G37*
G36*
G01X205766Y72671D02*
G01X207366Y72671D01*
G01X207366Y71851D01*
G01X205766Y71851D01*
G01X205766Y72671D01*
G37*
G36*
G01X211466Y72671D02*
G01X213066Y72671D01*
G01X213066Y71851D01*
G01X211466Y71851D01*
G01X211466Y72671D01*
G37*
G36*
G01X211466Y71171D02*
G01X213066Y71171D01*
G01X213066Y70351D01*
G01X211466Y70351D01*
G01X211466Y71171D01*
G37*
G36*
G01X205766Y71171D02*
G01X207366Y71171D01*
G01X207366Y70351D01*
G01X205766Y70351D01*
G01X205766Y71171D01*
G37*
G36*
G01X224816Y72671D02*
G01X226416Y72671D01*
G01X226416Y71851D01*
G01X224816Y71851D01*
G01X224816Y72671D01*
G37*
G36*
G01X230516Y72671D02*
G01X232116Y72671D01*
G01X232116Y71851D01*
G01X230516Y71851D01*
G01X230516Y72671D01*
G37*
G36*
G01X230516Y71171D02*
G01X232116Y71171D01*
G01X232116Y70351D01*
G01X230516Y70351D01*
G01X230516Y71171D01*
G37*
G36*
G01X224816Y71171D02*
G01X226416Y71171D01*
G01X226416Y70351D01*
G01X224816Y70351D01*
G01X224816Y71171D01*
G37*
G36*
G01X243866Y72671D02*
G01X245466Y72671D01*
G01X245466Y71851D01*
G01X243866Y71851D01*
G01X243866Y72671D01*
G37*
G36*
G01X249566Y72671D02*
G01X251166Y72671D01*
G01X251166Y71851D01*
G01X249566Y71851D01*
G01X249566Y72671D01*
G37*
G36*
G01X249566Y71171D02*
G01X251166Y71171D01*
G01X251166Y70351D01*
G01X249566Y70351D01*
G01X249566Y71171D01*
G37*
G36*
G01X243866Y71171D02*
G01X245466Y71171D01*
G01X245466Y70351D01*
G01X243866Y70351D01*
G01X243866Y71171D01*
G37*
G36*
G01X267593Y72671D02*
G01X269193Y72671D01*
G01X269193Y71851D01*
G01X267593Y71851D01*
G01X267593Y72671D01*
G37*
G36*
G01X273293Y72671D02*
G01X274893Y72671D01*
G01X274893Y71851D01*
G01X273293Y71851D01*
G01X273293Y72671D01*
G37*
G36*
G01X273293Y71171D02*
G01X274893Y71171D01*
G01X274893Y70351D01*
G01X273293Y70351D01*
G01X273293Y71171D01*
G37*
G36*
G01X267593Y71171D02*
G01X269193Y71171D01*
G01X269193Y70351D01*
G01X267593Y70351D01*
G01X267593Y71171D01*
G37*
G36*
G01X12802Y53618D02*
G01X14402Y53618D01*
G01X14402Y52798D01*
G01X12802Y52798D01*
G01X12802Y53618D01*
G37*
G36*
G01X18502Y53618D02*
G01X20102Y53618D01*
G01X20102Y52798D01*
G01X18502Y52798D01*
G01X18502Y53618D01*
G37*
G36*
G01X18502Y52118D02*
G01X20102Y52118D01*
G01X20102Y51298D01*
G01X18502Y51298D01*
G01X18502Y52118D01*
G37*
G36*
G01X12802Y52118D02*
G01X14402Y52118D01*
G01X14402Y51298D01*
G01X12802Y51298D01*
G01X12802Y52118D01*
G37*
G36*
G01X39077Y53618D02*
G01X40677Y53618D01*
G01X40677Y52798D01*
G01X39077Y52798D01*
G01X39077Y53618D01*
G37*
G36*
G01X44777Y53618D02*
G01X46377Y53618D01*
G01X46377Y52798D01*
G01X44777Y52798D01*
G01X44777Y53618D01*
G37*
G36*
G01X44777Y52118D02*
G01X46377Y52118D01*
G01X46377Y51298D01*
G01X44777Y51298D01*
G01X44777Y52118D01*
G37*
G36*
G01X39077Y52118D02*
G01X40677Y52118D01*
G01X40677Y51298D01*
G01X39077Y51298D01*
G01X39077Y52118D01*
G37*
G36*
G01X58127Y53618D02*
G01X59727Y53618D01*
G01X59727Y52798D01*
G01X58127Y52798D01*
G01X58127Y53618D01*
G37*
G36*
G01X63827Y53618D02*
G01X65427Y53618D01*
G01X65427Y52798D01*
G01X63827Y52798D01*
G01X63827Y53618D01*
G37*
G36*
G01X63827Y52118D02*
G01X65427Y52118D01*
G01X65427Y51298D01*
G01X63827Y51298D01*
G01X63827Y52118D01*
G37*
G36*
G01X58127Y52118D02*
G01X59727Y52118D01*
G01X59727Y51298D01*
G01X58127Y51298D01*
G01X58127Y52118D01*
G37*
G36*
G01X77177Y53618D02*
G01X78777Y53618D01*
G01X78777Y52798D01*
G01X77177Y52798D01*
G01X77177Y53618D01*
G37*
G36*
G01X82877Y53618D02*
G01X84477Y53618D01*
G01X84477Y52798D01*
G01X82877Y52798D01*
G01X82877Y53618D01*
G37*
G36*
G01X82877Y52118D02*
G01X84477Y52118D01*
G01X84477Y51298D01*
G01X82877Y51298D01*
G01X82877Y52118D01*
G37*
G36*
G01X77177Y52118D02*
G01X78777Y52118D01*
G01X78777Y51298D01*
G01X77177Y51298D01*
G01X77177Y52118D01*
G37*
G36*
G01X96227Y53618D02*
G01X97827Y53618D01*
G01X97827Y52798D01*
G01X96227Y52798D01*
G01X96227Y53618D01*
G37*
G36*
G01X101927Y53618D02*
G01X103527Y53618D01*
G01X103527Y52798D01*
G01X101927Y52798D01*
G01X101927Y53618D01*
G37*
G36*
G01X101927Y52118D02*
G01X103527Y52118D01*
G01X103527Y51298D01*
G01X101927Y51298D01*
G01X101927Y52118D01*
G37*
G36*
G01X96227Y52118D02*
G01X97827Y52118D01*
G01X97827Y51298D01*
G01X96227Y51298D01*
G01X96227Y52118D01*
G37*
G36*
G01X115277Y53618D02*
G01X116877Y53618D01*
G01X116877Y52798D01*
G01X115277Y52798D01*
G01X115277Y53618D01*
G37*
G36*
G01X120977Y53618D02*
G01X122577Y53618D01*
G01X122577Y52798D01*
G01X120977Y52798D01*
G01X120977Y53618D01*
G37*
G36*
G01X120977Y52118D02*
G01X122577Y52118D01*
G01X122577Y51298D01*
G01X120977Y51298D01*
G01X120977Y52118D01*
G37*
G36*
G01X115277Y52118D02*
G01X116877Y52118D01*
G01X116877Y51298D01*
G01X115277Y51298D01*
G01X115277Y52118D01*
G37*
G36*
G01X134327Y53618D02*
G01X135927Y53618D01*
G01X135927Y52798D01*
G01X134327Y52798D01*
G01X134327Y53618D01*
G37*
G36*
G01X140027Y53618D02*
G01X141627Y53618D01*
G01X141627Y52798D01*
G01X140027Y52798D01*
G01X140027Y53618D01*
G37*
G36*
G01X140027Y52118D02*
G01X141627Y52118D01*
G01X141627Y51298D01*
G01X140027Y51298D01*
G01X140027Y52118D01*
G37*
G36*
G01X134327Y52118D02*
G01X135927Y52118D01*
G01X135927Y51298D01*
G01X134327Y51298D01*
G01X134327Y52118D01*
G37*
G36*
G01X153377Y53618D02*
G01X154977Y53618D01*
G01X154977Y52798D01*
G01X153377Y52798D01*
G01X153377Y53618D01*
G37*
G36*
G01X159077Y53618D02*
G01X160677Y53618D01*
G01X160677Y52798D01*
G01X159077Y52798D01*
G01X159077Y53618D01*
G37*
G36*
G01X159077Y52118D02*
G01X160677Y52118D01*
G01X160677Y51298D01*
G01X159077Y51298D01*
G01X159077Y52118D01*
G37*
G36*
G01X153377Y52118D02*
G01X154977Y52118D01*
G01X154977Y51298D01*
G01X153377Y51298D01*
G01X153377Y52118D01*
G37*
G36*
G01X172427Y53618D02*
G01X174027Y53618D01*
G01X174027Y52798D01*
G01X172427Y52798D01*
G01X172427Y53618D01*
G37*
G36*
G01X178127Y53618D02*
G01X179727Y53618D01*
G01X179727Y52798D01*
G01X178127Y52798D01*
G01X178127Y53618D01*
G37*
G36*
G01X178127Y52118D02*
G01X179727Y52118D01*
G01X179727Y51298D01*
G01X178127Y51298D01*
G01X178127Y52118D01*
G37*
G36*
G01X172427Y52118D02*
G01X174027Y52118D01*
G01X174027Y51298D01*
G01X172427Y51298D01*
G01X172427Y52118D01*
G37*
G36*
G01X191476Y53618D02*
G01X193076Y53618D01*
G01X193076Y52798D01*
G01X191476Y52798D01*
G01X191476Y53618D01*
G37*
G36*
G01X197176Y53618D02*
G01X198776Y53618D01*
G01X198776Y52798D01*
G01X197176Y52798D01*
G01X197176Y53618D01*
G37*
G36*
G01X197176Y52118D02*
G01X198776Y52118D01*
G01X198776Y51298D01*
G01X197176Y51298D01*
G01X197176Y52118D01*
G37*
G36*
G01X191476Y52118D02*
G01X193076Y52118D01*
G01X193076Y51298D01*
G01X191476Y51298D01*
G01X191476Y52118D01*
G37*
G36*
G01X210526Y53618D02*
G01X212126Y53618D01*
G01X212126Y52798D01*
G01X210526Y52798D01*
G01X210526Y53618D01*
G37*
G36*
G01X216226Y53618D02*
G01X217826Y53618D01*
G01X217826Y52798D01*
G01X216226Y52798D01*
G01X216226Y53618D01*
G37*
G36*
G01X216226Y52118D02*
G01X217826Y52118D01*
G01X217826Y51298D01*
G01X216226Y51298D01*
G01X216226Y52118D01*
G37*
G36*
G01X210526Y52118D02*
G01X212126Y52118D01*
G01X212126Y51298D01*
G01X210526Y51298D01*
G01X210526Y52118D01*
G37*
G36*
G01X229576Y53618D02*
G01X231176Y53618D01*
G01X231176Y52798D01*
G01X229576Y52798D01*
G01X229576Y53618D01*
G37*
G36*
G01X235276Y53618D02*
G01X236876Y53618D01*
G01X236876Y52798D01*
G01X235276Y52798D01*
G01X235276Y53618D01*
G37*
G36*
G01X235276Y52118D02*
G01X236876Y52118D01*
G01X236876Y51298D01*
G01X235276Y51298D01*
G01X235276Y52118D01*
G37*
G36*
G01X229576Y52118D02*
G01X231176Y52118D01*
G01X231176Y51298D01*
G01X229576Y51298D01*
G01X229576Y52118D01*
G37*
G36*
G01X260453Y53618D02*
G01X262053Y53618D01*
G01X262053Y52798D01*
G01X260453Y52798D01*
G01X260453Y53618D01*
G37*
G36*
G01X266153Y53618D02*
G01X267753Y53618D01*
G01X267753Y52798D01*
G01X266153Y52798D01*
G01X266153Y53618D01*
G37*
G36*
G01X266153Y52118D02*
G01X267753Y52118D01*
G01X267753Y51298D01*
G01X266153Y51298D01*
G01X266153Y52118D01*
G37*
G36*
G01X260453Y52118D02*
G01X262053Y52118D01*
G01X262053Y51298D01*
G01X260453Y51298D01*
G01X260453Y52118D01*
G37*
G36*
G01X15184Y34561D02*
G01X16784Y34561D01*
G01X16784Y33741D01*
G01X15184Y33741D01*
G01X15184Y34561D01*
G37*
G36*
G01X20884Y34561D02*
G01X22484Y34561D01*
G01X22484Y33741D01*
G01X20884Y33741D01*
G01X20884Y34561D01*
G37*
G36*
G01X20884Y33061D02*
G01X22484Y33061D01*
G01X22484Y32241D01*
G01X20884Y32241D01*
G01X20884Y33061D01*
G37*
G36*
G01X15184Y33061D02*
G01X16784Y33061D01*
G01X16784Y32241D01*
G01X15184Y32241D01*
G01X15184Y33061D01*
G37*
G36*
G01X43837Y34561D02*
G01X45437Y34561D01*
G01X45437Y33741D01*
G01X43837Y33741D01*
G01X43837Y34561D01*
G37*
G36*
G01X49537Y34561D02*
G01X51137Y34561D01*
G01X51137Y33741D01*
G01X49537Y33741D01*
G01X49537Y34561D01*
G37*
G36*
G01X49537Y33061D02*
G01X51137Y33061D01*
G01X51137Y32241D01*
G01X49537Y32241D01*
G01X49537Y33061D01*
G37*
G36*
G01X43837Y33061D02*
G01X45437Y33061D01*
G01X45437Y32241D01*
G01X43837Y32241D01*
G01X43837Y33061D01*
G37*
G36*
G01X62887Y34561D02*
G01X64487Y34561D01*
G01X64487Y33741D01*
G01X62887Y33741D01*
G01X62887Y34561D01*
G37*
G36*
G01X68587Y34561D02*
G01X70187Y34561D01*
G01X70187Y33741D01*
G01X68587Y33741D01*
G01X68587Y34561D01*
G37*
G36*
G01X68587Y33061D02*
G01X70187Y33061D01*
G01X70187Y32241D01*
G01X68587Y32241D01*
G01X68587Y33061D01*
G37*
G36*
G01X62887Y33061D02*
G01X64487Y33061D01*
G01X64487Y32241D01*
G01X62887Y32241D01*
G01X62887Y33061D01*
G37*
G36*
G01X81947Y34561D02*
G01X83547Y34561D01*
G01X83547Y33741D01*
G01X81947Y33741D01*
G01X81947Y34561D01*
G37*
G36*
G01X87647Y34561D02*
G01X89247Y34561D01*
G01X89247Y33741D01*
G01X87647Y33741D01*
G01X87647Y34561D01*
G37*
G36*
G01X87647Y33061D02*
G01X89247Y33061D01*
G01X89247Y32241D01*
G01X87647Y32241D01*
G01X87647Y33061D01*
G37*
G36*
G01X81947Y33061D02*
G01X83547Y33061D01*
G01X83547Y32241D01*
G01X81947Y32241D01*
G01X81947Y33061D01*
G37*
G36*
G01X100997Y34561D02*
G01X102597Y34561D01*
G01X102597Y33741D01*
G01X100997Y33741D01*
G01X100997Y34561D01*
G37*
G36*
G01X106697Y34561D02*
G01X108297Y34561D01*
G01X108297Y33741D01*
G01X106697Y33741D01*
G01X106697Y34561D01*
G37*
G36*
G01X106697Y33061D02*
G01X108297Y33061D01*
G01X108297Y32241D01*
G01X106697Y32241D01*
G01X106697Y33061D01*
G37*
G36*
G01X100997Y33061D02*
G01X102597Y33061D01*
G01X102597Y32241D01*
G01X100997Y32241D01*
G01X100997Y33061D01*
G37*
G36*
G01X120047Y34561D02*
G01X121647Y34561D01*
G01X121647Y33741D01*
G01X120047Y33741D01*
G01X120047Y34561D01*
G37*
G36*
G01X125747Y34561D02*
G01X127347Y34561D01*
G01X127347Y33741D01*
G01X125747Y33741D01*
G01X125747Y34561D01*
G37*
G36*
G01X125747Y33061D02*
G01X127347Y33061D01*
G01X127347Y32241D01*
G01X125747Y32241D01*
G01X125747Y33061D01*
G37*
G36*
G01X120047Y33061D02*
G01X121647Y33061D01*
G01X121647Y32241D01*
G01X120047Y32241D01*
G01X120047Y33061D01*
G37*
G36*
G01X139087Y34561D02*
G01X140687Y34561D01*
G01X140687Y33741D01*
G01X139087Y33741D01*
G01X139087Y34561D01*
G37*
G36*
G01X144787Y34561D02*
G01X146387Y34561D01*
G01X146387Y33741D01*
G01X144787Y33741D01*
G01X144787Y34561D01*
G37*
G36*
G01X144787Y33061D02*
G01X146387Y33061D01*
G01X146387Y32241D01*
G01X144787Y32241D01*
G01X144787Y33061D01*
G37*
G36*
G01X139087Y33061D02*
G01X140687Y33061D01*
G01X140687Y32241D01*
G01X139087Y32241D01*
G01X139087Y33061D01*
G37*
G36*
G01X158137Y34561D02*
G01X159737Y34561D01*
G01X159737Y33741D01*
G01X158137Y33741D01*
G01X158137Y34561D01*
G37*
G36*
G01X163837Y34561D02*
G01X165437Y34561D01*
G01X165437Y33741D01*
G01X163837Y33741D01*
G01X163837Y34561D01*
G37*
G36*
G01X163837Y33061D02*
G01X165437Y33061D01*
G01X165437Y32241D01*
G01X163837Y32241D01*
G01X163837Y33061D01*
G37*
G36*
G01X158137Y33061D02*
G01X159737Y33061D01*
G01X159737Y32241D01*
G01X158137Y32241D01*
G01X158137Y33061D01*
G37*
G36*
G01X177196Y34561D02*
G01X178796Y34561D01*
G01X178796Y33741D01*
G01X177196Y33741D01*
G01X177196Y34561D01*
G37*
G36*
G01X182896Y34561D02*
G01X184496Y34561D01*
G01X184496Y33741D01*
G01X182896Y33741D01*
G01X182896Y34561D01*
G37*
G36*
G01X182896Y33061D02*
G01X184496Y33061D01*
G01X184496Y32241D01*
G01X182896Y32241D01*
G01X182896Y33061D01*
G37*
G36*
G01X177196Y33061D02*
G01X178796Y33061D01*
G01X178796Y32241D01*
G01X177196Y32241D01*
G01X177196Y33061D01*
G37*
G36*
G01X196236Y34561D02*
G01X197836Y34561D01*
G01X197836Y33741D01*
G01X196236Y33741D01*
G01X196236Y34561D01*
G37*
G36*
G01X201936Y34561D02*
G01X203536Y34561D01*
G01X203536Y33741D01*
G01X201936Y33741D01*
G01X201936Y34561D01*
G37*
G36*
G01X201936Y33061D02*
G01X203536Y33061D01*
G01X203536Y32241D01*
G01X201936Y32241D01*
G01X201936Y33061D01*
G37*
G36*
G01X196236Y33061D02*
G01X197836Y33061D01*
G01X197836Y32241D01*
G01X196236Y32241D01*
G01X196236Y33061D01*
G37*
G36*
G01X215296Y34561D02*
G01X216896Y34561D01*
G01X216896Y33741D01*
G01X215296Y33741D01*
G01X215296Y34561D01*
G37*
G36*
G01X220996Y34561D02*
G01X222596Y34561D01*
G01X222596Y33741D01*
G01X220996Y33741D01*
G01X220996Y34561D01*
G37*
G36*
G01X220996Y33061D02*
G01X222596Y33061D01*
G01X222596Y32241D01*
G01X220996Y32241D01*
G01X220996Y33061D01*
G37*
G36*
G01X215296Y33061D02*
G01X216896Y33061D01*
G01X216896Y32241D01*
G01X215296Y32241D01*
G01X215296Y33061D01*
G37*
G36*
G01X234336Y34561D02*
G01X235936Y34561D01*
G01X235936Y33741D01*
G01X234336Y33741D01*
G01X234336Y34561D01*
G37*
G36*
G01X240036Y34561D02*
G01X241636Y34561D01*
G01X241636Y33741D01*
G01X240036Y33741D01*
G01X240036Y34561D01*
G37*
G36*
G01X240036Y33061D02*
G01X241636Y33061D01*
G01X241636Y32241D01*
G01X240036Y32241D01*
G01X240036Y33061D01*
G37*
G36*
G01X234336Y33061D02*
G01X235936Y33061D01*
G01X235936Y32241D01*
G01X234336Y32241D01*
G01X234336Y33061D01*
G37*
G36*
G01X253386Y34561D02*
G01X254986Y34561D01*
G01X254986Y33741D01*
G01X253386Y33741D01*
G01X253386Y34561D01*
G37*
G36*
G01X259086Y34561D02*
G01X260686Y34561D01*
G01X260686Y33741D01*
G01X259086Y33741D01*
G01X259086Y34561D01*
G37*
G36*
G01X259086Y33061D02*
G01X260686Y33061D01*
G01X260686Y32241D01*
G01X259086Y32241D01*
G01X259086Y33061D01*
G37*
G36*
G01X253386Y33061D02*
G01X254986Y33061D01*
G01X254986Y32241D01*
G01X253386Y32241D01*
G01X253386Y33061D01*
G37*
G36*
G01X272436Y34561D02*
G01X274036Y34561D01*
G01X274036Y33741D01*
G01X272436Y33741D01*
G01X272436Y34561D01*
G37*
G36*
G01X278136Y34561D02*
G01X279736Y34561D01*
G01X279736Y33741D01*
G01X278136Y33741D01*
G01X278136Y34561D01*
G37*
G36*
G01X278136Y33061D02*
G01X279736Y33061D01*
G01X279736Y32241D01*
G01X278136Y32241D01*
G01X278136Y33061D01*
G37*
G36*
G01X272436Y33061D02*
G01X274036Y33061D01*
G01X274036Y32241D01*
G01X272436Y32241D01*
G01X272436Y33061D01*
G37*
G36*
G01X8042Y15521D02*
G01X9642Y15521D01*
G01X9642Y14701D01*
G01X8042Y14701D01*
G01X8042Y15521D01*
G37*
G36*
G01X13742Y15521D02*
G01X15342Y15521D01*
G01X15342Y14701D01*
G01X13742Y14701D01*
G01X13742Y15521D01*
G37*
G36*
G01X13742Y14021D02*
G01X15342Y14021D01*
G01X15342Y13201D01*
G01X13742Y13201D01*
G01X13742Y14021D01*
G37*
G36*
G01X8042Y14021D02*
G01X9642Y14021D01*
G01X9642Y13201D01*
G01X8042Y13201D01*
G01X8042Y14021D01*
G37*
G36*
G01X31852Y15521D02*
G01X33452Y15521D01*
G01X33452Y14701D01*
G01X31852Y14701D01*
G01X31852Y15521D01*
G37*
G36*
G01X37552Y15521D02*
G01X39152Y15521D01*
G01X39152Y14701D01*
G01X37552Y14701D01*
G01X37552Y15521D01*
G37*
G36*
G01X37552Y14021D02*
G01X39152Y14021D01*
G01X39152Y13201D01*
G01X37552Y13201D01*
G01X37552Y14021D01*
G37*
G36*
G01X31852Y14021D02*
G01X33452Y14021D01*
G01X33452Y13201D01*
G01X31852Y13201D01*
G01X31852Y14021D01*
G37*
G36*
G01X55662Y15521D02*
G01X57262Y15521D01*
G01X57262Y14701D01*
G01X55662Y14701D01*
G01X55662Y15521D01*
G37*
G36*
G01X61362Y15521D02*
G01X62962Y15521D01*
G01X62962Y14701D01*
G01X61362Y14701D01*
G01X61362Y15521D01*
G37*
G36*
G01X61362Y14021D02*
G01X62962Y14021D01*
G01X62962Y13201D01*
G01X61362Y13201D01*
G01X61362Y14021D01*
G37*
G36*
G01X55662Y14021D02*
G01X57262Y14021D01*
G01X57262Y13201D01*
G01X55662Y13201D01*
G01X55662Y14021D01*
G37*
G36*
G01X127103Y15521D02*
G01X128703Y15521D01*
G01X128703Y14701D01*
G01X127103Y14701D01*
G01X127103Y15521D01*
G37*
G36*
G01X132803Y15521D02*
G01X134403Y15521D01*
G01X134403Y14701D01*
G01X132803Y14701D01*
G01X132803Y15521D01*
G37*
G36*
G01X132803Y14021D02*
G01X134403Y14021D01*
G01X134403Y13201D01*
G01X132803Y13201D01*
G01X132803Y14021D01*
G37*
G36*
G01X127103Y14021D02*
G01X128703Y14021D01*
G01X128703Y13201D01*
G01X127103Y13201D01*
G01X127103Y14021D01*
G37*
G36*
G01X196236Y15521D02*
G01X197836Y15521D01*
G01X197836Y14701D01*
G01X196236Y14701D01*
G01X196236Y15521D01*
G37*
G36*
G01X201936Y15521D02*
G01X203536Y15521D01*
G01X203536Y14701D01*
G01X201936Y14701D01*
G01X201936Y15521D01*
G37*
G36*
G01X201936Y14021D02*
G01X203536Y14021D01*
G01X203536Y13201D01*
G01X201936Y13201D01*
G01X201936Y14021D01*
G37*
G36*
G01X196236Y14021D02*
G01X197836Y14021D01*
G01X197836Y13201D01*
G01X196236Y13201D01*
G01X196236Y14021D01*
G37*
G36*
G01X215296Y15521D02*
G01X216896Y15521D01*
G01X216896Y14702D01*
G01X215296Y14702D01*
G01X215296Y15521D01*
G37*
G36*
G01X220996Y15521D02*
G01X222596Y15521D01*
G01X222596Y14702D01*
G01X220996Y14702D01*
G01X220996Y15521D01*
G37*
G36*
G01X220996Y14021D02*
G01X222596Y14021D01*
G01X222596Y13201D01*
G01X220996Y13201D01*
G01X220996Y14021D01*
G37*
G36*
G01X215296Y14021D02*
G01X216896Y14021D01*
G01X216896Y13201D01*
G01X215296Y13201D01*
G01X215296Y14021D01*
G37*
G36*
G01X234336Y15521D02*
G01X235936Y15521D01*
G01X235936Y14701D01*
G01X234336Y14701D01*
G01X234336Y15521D01*
G37*
G36*
G01X240036Y15521D02*
G01X241636Y15521D01*
G01X241636Y14701D01*
G01X240036Y14701D01*
G01X240036Y15521D01*
G37*
G36*
G01X240036Y14021D02*
G01X241636Y14021D01*
G01X241636Y13201D01*
G01X240036Y13201D01*
G01X240036Y14021D01*
G37*
G36*
G01X234336Y14021D02*
G01X235936Y14021D01*
G01X235936Y13201D01*
G01X234336Y13201D01*
G01X234336Y14021D01*
G37*
G36*
G01X253386Y15521D02*
G01X254986Y15521D01*
G01X254986Y14701D01*
G01X253386Y14701D01*
G01X253386Y15521D01*
G37*
G36*
G01X259086Y15521D02*
G01X260686Y15521D01*
G01X260686Y14701D01*
G01X259086Y14701D01*
G01X259086Y15521D01*
G37*
G36*
G01X259086Y14021D02*
G01X260686Y14021D01*
G01X260686Y13201D01*
G01X259086Y13201D01*
G01X259086Y14021D01*
G37*
G36*
G01X253386Y14021D02*
G01X254986Y14021D01*
G01X254986Y13201D01*
G01X253386Y13201D01*
G01X253386Y14021D01*
G37*
G36*
G01X272436Y15521D02*
G01X274036Y15521D01*
G01X274036Y14701D01*
G01X272436Y14701D01*
G01X272436Y15521D01*
G37*
G36*
G01X278136Y15521D02*
G01X279736Y15521D01*
G01X279736Y14701D01*
G01X278136Y14701D01*
G01X278136Y15521D01*
G37*
G36*
G01X278136Y14021D02*
G01X279736Y14021D01*
G01X279736Y13201D01*
G01X278136Y13201D01*
G01X278136Y14021D01*
G37*
G36*
G01X272436Y14021D02*
G01X274036Y14021D01*
G01X274036Y13201D01*
G01X272436Y13201D01*
G01X272436Y14021D01*
G37*
M00*
M02*
