  0
SECTION
  2
HEADER
  9
$ACADVER
  1
AC1009
  9
$EXTMIN
 10
0.0
 20
0.0
 30
0.0
  9
$EXTMAX
 10
1000.0
 20
1000.0
 30
0.0
  9
$FILLMODE
 70
 0
  9
$SPLFRAME
 70
 1
  0
ENDSEC
  0
SECTION
  2
TABLES
  0
TABLE
  2
LAYER
 70
1
  0
LAYER
  2
0
 70
     0
 62
     7
  6
CONTINUOUS
  0
ENDTAB
  0
ENDSEC
  0
SECTION
  2
ENTITIES
  0
LINE
  8
0
 62
     0
 10
283.471
 20
95.1548
 30
0.0
 11
283.626
 21
95.148
 31
0.0
  0
LINE
  8
0
 62
     0
 10
283.626
 20
95.148
 30
0.0
 11
283.782
 21
95.1301
 31
0.0
  0
LINE
  8
0
 62
     0
 10
283.782
 20
95.1301
 30
0.0
 11
283.936
 21
95.0997
 31
0.0
  0
LINE
  8
0
 62
     0
 10
283.936
 20
95.0997
 30
0.0
 11
284.089
 21
95.057
 31
0.0
  0
LINE
  8
0
 62
     0
 10
284.089
 20
95.057
 30
0.0
 11
284.236
 21
95.002
 31
0.0
  0
LINE
  8
0
 62
     0
 10
284.236
 20
95.002
 30
0.0
 11
284.377
 21
94.9371
 31
0.0
  0
LINE
  8
0
 62
     0
 10
284.377
 20
94.9371
 30
0.0
 11
284.514
 21
94.8602
 31
0.0
  0
LINE
  8
0
 62
     0
 10
284.514
 20
94.8602
 30
0.0
 11
284.645
 21
94.773
 31
0.0
  0
LINE
  8
0
 62
     0
 10
284.645
 20
94.773
 30
0.0
 11
284.769
 21
94.6753
 31
0.0
  0
LINE
  8
0
 62
     0
 10
284.769
 20
94.6753
 30
0.0
 11
284.885
 21
94.5691
 31
0.0
  0
LINE
  8
0
 62
     0
 10
284.885
 20
94.5691
 30
0.0
 11
284.991
 21
94.4534
 31
0.0
  0
LINE
  8
0
 62
     0
 10
284.991
 20
94.4534
 30
0.0
 11
285.09
 21
94.331
 31
0.0
  0
LINE
  8
0
 62
     0
 10
285.09
 20
94.331
 30
0.0
 11
285.175
 21
94.1998
 31
0.0
  0
LINE
  8
0
 62
     0
 10
285.175
 20
94.1998
 30
0.0
 11
285.253
 21
94.0622
 31
0.0
  0
LINE
  8
0
 62
     0
 10
285.253
 20
94.0622
 30
0.0
 11
285.317
 21
93.92
 31
0.0
  0
LINE
  8
0
 62
     0
 10
285.317
 20
93.92
 30
0.0
 11
285.373
 21
93.774
 31
0.0
  0
LINE
  8
0
 62
     0
 10
285.373
 20
93.774
 30
0.0
 11
285.415
 21
93.6212
 31
0.0
  0
LINE
  8
0
 62
     0
 10
285.415
 20
93.6212
 30
0.0
 11
285.446
 21
93.4681
 31
0.0
  0
LINE
  8
0
 62
     0
 10
285.446
 20
93.4681
 30
0.0
 11
285.465
 21
93.3111
 31
0.0
  0
LINE
  8
0
 62
     0
 10
285.465
 20
93.3111
 30
0.0
 11
285.47
 21
93.1541
 31
0.0
  0
LINE
  8
0
 62
     0
 10
285.47
 20
93.1541
 30
0.0
 11
285.47
 21
40.991
 31
0.0
  0
LINE
  8
0
 62
     0
 10
285.47
 20
40.991
 30
0.0
 11
281.97
 21
40.991
 31
0.0
  0
LINE
  8
0
 62
     0
 10
281.97
 20
40.991
 30
0.0
 11
281.197
 21
40.87
 31
0.0
  0
LINE
  8
0
 62
     0
 10
281.197
 20
40.87
 30
0.0
 11
280.501
 21
40.5144
 31
0.0
  0
LINE
  8
0
 62
     0
 10
280.501
 20
40.5144
 30
0.0
 11
279.947
 21
39.9616
 31
0.0
  0
LINE
  8
0
 62
     0
 10
279.947
 20
39.9616
 30
0.0
 11
279.593
 21
39.2645
 31
0.0
  0
LINE
  8
0
 62
     0
 10
279.593
 20
39.2645
 30
0.0
 11
279.47
 21
38.4926
 31
0.0
  0
LINE
  8
0
 62
     0
 10
279.47
 20
38.4926
 30
0.0
 11
279.593
 21
37.7183
 31
0.0
  0
LINE
  8
0
 62
     0
 10
279.593
 20
37.7183
 30
0.0
 11
279.947
 21
37.0223
 31
0.0
  0
LINE
  8
0
 62
     0
 10
279.947
 20
37.0223
 30
0.0
 11
280.501
 21
36.4684
 31
0.0
  0
LINE
  8
0
 62
     0
 10
280.501
 20
36.4684
 30
0.0
 11
281.197
 21
36.1128
 31
0.0
  0
LINE
  8
0
 62
     0
 10
281.197
 20
36.1128
 30
0.0
 11
281.97
 21
35.9914
 31
0.0
  0
LINE
  8
0
 62
     0
 10
281.97
 20
35.9914
 30
0.0
 11
285.47
 21
35.9914
 31
0.0
  0
LINE
  8
0
 62
     0
 10
285.47
 20
35.9914
 30
0.0
 11
285.47
 21
2.22691
 31
0.0
  0
LINE
  8
0
 62
     0
 10
285.47
 20
2.22691
 30
0.0
 11
285.465
 21
2.07257
 31
0.0
  0
LINE
  8
0
 62
     0
 10
285.465
 20
2.07257
 30
0.0
 11
285.446
 21
1.91685
 31
0.0
  0
LINE
  8
0
 62
     0
 10
285.446
 20
1.91685
 30
0.0
 11
285.415
 21
1.76251
 31
0.0
  0
LINE
  8
0
 62
     0
 10
285.415
 20
1.76251
 30
0.0
 11
285.373
 21
1.61093
 31
0.0
  0
LINE
  8
0
 62
     0
 10
285.373
 20
1.61093
 30
0.0
 11
285.317
 21
1.4621
 31
0.0
  0
LINE
  8
0
 62
     0
 10
285.317
 20
1.4621
 30
0.0
 11
285.253
 21
1.32154
 31
0.0
  0
LINE
  8
0
 62
     0
 10
285.253
 20
1.32154
 30
0.0
 11
285.175
 21
1.18511
 31
0.0
  0
LINE
  8
0
 62
     0
 10
285.175
 20
1.18511
 30
0.0
 11
285.09
 21
1.0542
 31
0.0
  0
LINE
  8
0
 62
     0
 10
285.09
 20
1.0542
 30
0.0
 11
284.991
 21
0.930176
 31
0.0
  0
LINE
  8
0
 62
     0
 10
284.991
 20
0.930176
 30
0.0
 11
284.885
 21
0.813043
 31
0.0
  0
LINE
  8
0
 62
     0
 10
284.885
 20
0.813043
 30
0.0
 11
284.769
 21
0.708311
 31
0.0
  0
LINE
  8
0
 62
     0
 10
284.769
 20
0.708311
 30
0.0
 11
284.645
 21
0.610471
 31
0.0
  0
LINE
  8
0
 62
     0
 10
284.645
 20
0.610471
 30
0.0
 11
284.514
 21
0.523656
 31
0.0
  0
LINE
  8
0
 62
     0
 10
284.514
 20
0.523656
 30
0.0
 11
284.377
 21
0.446486
 31
0.0
  0
LINE
  8
0
 62
     0
 10
284.377
 20
0.446486
 30
0.0
 11
284.236
 21
0.381716
 31
0.0
  0
LINE
  8
0
 62
     0
 10
284.236
 20
0.381716
 30
0.0
 11
284.089
 21
0.325217
 31
0.0
  0
LINE
  8
0
 62
     0
 10
284.089
 20
0.325217
 30
0.0
 11
283.936
 21
0.283876
 31
0.0
  0
LINE
  8
0
 62
     0
 10
283.936
 20
0.283876
 30
0.0
 11
283.782
 21
0.253559
 31
0.0
  0
LINE
  8
0
 62
     0
 10
283.782
 20
0.253559
 30
0.0
 11
283.626
 21
0.235645
 31
0.0
  0
LINE
  8
0
 62
     0
 10
283.626
 20
0.235645
 30
0.0
 11
283.471
 21
0.230132
 31
0.0
  0
LINE
  8
0
 62
     0
 10
283.471
 20
0.230132
 30
0.0
 11
2.096
 21
0.227376
 31
0.0
  0
LINE
  8
0
 62
     0
 10
2.096
 20
0.227376
 30
0.0
 11
1.9389
 21
0.235645
 31
0.0
  0
LINE
  8
0
 62
     0
 10
1.9389
 20
0.235645
 30
0.0
 11
1.7818
 21
0.253559
 31
0.0
  0
LINE
  8
0
 62
     0
 10
1.7818
 20
0.253559
 30
0.0
 11
1.62884
 21
0.283876
 31
0.0
  0
LINE
  8
0
 62
     0
 10
1.62884
 20
0.283876
 30
0.0
 11
1.47588
 21
0.325217
 31
0.0
  0
LINE
  8
0
 62
     0
 10
1.47588
 20
0.325217
 30
0.0
 11
1.32981
 21
0.381716
 31
0.0
  0
LINE
  8
0
 62
     0
 10
1.32981
 20
0.381716
 30
0.0
 11
1.18787
 21
0.446486
 31
0.0
  0
LINE
  8
0
 62
     0
 10
1.18787
 20
0.446486
 30
0.0
 11
1.05006
 21
0.523656
 31
0.0
  0
LINE
  8
0
 62
     0
 10
1.05006
 20
0.523656
 30
0.0
 11
0.919152
 21
0.610471
 31
0.0
  0
LINE
  8
0
 62
     0
 10
0.919152
 20
0.610471
 30
0.0
 11
0.796505
 21
0.708311
 31
0.0
  0
LINE
  8
0
 62
     0
 10
0.796505
 20
0.708311
 30
0.0
 11
0.680752
 21
0.813043
 31
0.0
  0
LINE
  8
0
 62
     0
 10
0.680752
 20
0.813043
 30
0.0
 11
0.574643
 21
0.930176
 31
0.0
  0
LINE
  8
0
 62
     0
 10
0.574643
 20
0.930176
 30
0.0
 11
0.4768
 21
1.0542
 31
0.0
  0
LINE
  8
0
 62
     0
 10
0.4768
 20
1.0542
 30
0.0
 11
0.389985
 21
1.18511
 31
0.0
  0
LINE
  8
0
 62
     0
 10
0.389985
 20
1.18511
 30
0.0
 11
0.312815
 21
1.32154
 31
0.0
  0
LINE
  8
0
 62
     0
 10
0.312815
 20
1.32154
 30
0.0
 11
0.248047
 21
1.4621
 31
0.0
  0
LINE
  8
0
 62
     0
 10
0.248047
 20
1.4621
 30
0.0
 11
0.192925
 21
1.61093
 31
0.0
  0
LINE
  8
0
 62
     0
 10
0.192925
 20
1.61093
 30
0.0
 11
0.150206
 21
1.76251
 31
0.0
  0
LINE
  8
0
 62
     0
 10
0.150206
 20
1.76251
 30
0.0
 11
0.119889
 21
1.91685
 31
0.0
  0
LINE
  8
0
 62
     0
 10
0.119889
 20
1.91685
 30
0.0
 11
0.101975
 21
2.07257
 31
0.0
  0
LINE
  8
0
 62
     0
 10
0.101975
 20
2.07257
 30
0.0
 11
0.0950846
 21
2.22691
 31
0.0
  0
LINE
  8
0
 62
     0
 10
0.0950846
 20
2.22691
 30
0.0
 11
0.0950846
 21
35.9914
 31
0.0
  0
LINE
  8
0
 62
     0
 10
0.0950846
 20
35.9914
 30
0.0
 11
3.5953
 21
35.9914
 31
0.0
  0
LINE
  8
0
 62
     0
 10
3.5953
 20
35.9914
 30
0.0
 11
4.36838
 21
36.1128
 31
0.0
  0
LINE
  8
0
 62
     0
 10
4.36838
 20
36.1128
 30
0.0
 11
5.0643
 21
36.4684
 31
0.0
  0
LINE
  8
0
 62
     0
 10
5.0643
 20
36.4684
 30
0.0
 11
5.61689
 21
37.0223
 31
0.0
  0
LINE
  8
0
 62
     0
 10
5.61689
 20
37.0223
 30
0.0
 11
5.97242
 21
37.7183
 31
0.0
  0
LINE
  8
0
 62
     0
 10
5.97242
 20
37.7183
 30
0.0
 11
6.09505
 21
38.4912
 31
0.0
  0
LINE
  8
0
 62
     0
 10
6.09505
 20
38.4912
 30
0.0
 11
5.97242
 21
39.2645
 31
0.0
  0
LINE
  8
0
 62
     0
 10
5.97242
 20
39.2645
 30
0.0
 11
5.61689
 21
39.9616
 31
0.0
  0
LINE
  8
0
 62
     0
 10
5.61689
 20
39.9616
 30
0.0
 11
5.0643
 21
40.5144
 31
0.0
  0
LINE
  8
0
 62
     0
 10
5.0643
 20
40.5144
 30
0.0
 11
4.36838
 21
40.87
 31
0.0
  0
LINE
  8
0
 62
     0
 10
4.36838
 20
40.87
 30
0.0
 11
3.59668
 21
40.991
 31
0.0
  0
LINE
  8
0
 62
     0
 10
3.59668
 20
40.991
 30
0.0
 11
0.0950846
 21
40.991
 31
0.0
  0
LINE
  8
0
 62
     0
 10
0.0950846
 20
40.991
 30
0.0
 11
0.0950846
 21
93.1541
 31
0.0
  0
LINE
  8
0
 62
     0
 10
0.0950846
 20
93.1541
 30
0.0
 11
0.101975
 21
93.3111
 31
0.0
  0
LINE
  8
0
 62
     0
 10
0.101975
 20
93.3111
 30
0.0
 11
0.119889
 21
93.4681
 31
0.0
  0
LINE
  8
0
 62
     0
 10
0.119889
 20
93.4681
 30
0.0
 11
0.150206
 21
93.6212
 31
0.0
  0
LINE
  8
0
 62
     0
 10
0.150206
 20
93.6212
 30
0.0
 11
0.192925
 21
93.774
 31
0.0
  0
LINE
  8
0
 62
     0
 10
0.192925
 20
93.774
 30
0.0
 11
0.248047
 21
93.92
 31
0.0
  0
LINE
  8
0
 62
     0
 10
0.248047
 20
93.92
 30
0.0
 11
0.312815
 21
94.0622
 31
0.0
  0
LINE
  8
0
 62
     0
 10
0.312815
 20
94.0622
 30
0.0
 11
0.389985
 21
94.1998
 31
0.0
  0
LINE
  8
0
 62
     0
 10
0.389985
 20
94.1998
 30
0.0
 11
0.4768
 21
94.331
 31
0.0
  0
LINE
  8
0
 62
     0
 10
0.4768
 20
94.331
 30
0.0
 11
0.574643
 21
94.4534
 31
0.0
  0
LINE
  8
0
 62
     0
 10
0.574643
 20
94.4534
 30
0.0
 11
0.680752
 21
94.5691
 31
0.0
  0
LINE
  8
0
 62
     0
 10
0.680752
 20
94.5691
 30
0.0
 11
0.796505
 21
94.6753
 31
0.0
  0
LINE
  8
0
 62
     0
 10
0.796505
 20
94.6753
 30
0.0
 11
0.919152
 21
94.773
 31
0.0
  0
LINE
  8
0
 62
     0
 10
0.919152
 20
94.773
 30
0.0
 11
1.05006
 21
94.8602
 31
0.0
  0
LINE
  8
0
 62
     0
 10
1.05006
 20
94.8602
 30
0.0
 11
1.18787
 21
94.9371
 31
0.0
  0
LINE
  8
0
 62
     0
 10
1.18787
 20
94.9371
 30
0.0
 11
1.32981
 21
95.002
 31
0.0
  0
LINE
  8
0
 62
     0
 10
1.32981
 20
95.002
 30
0.0
 11
1.47588
 21
95.057
 31
0.0
  0
LINE
  8
0
 62
     0
 10
1.47588
 20
95.057
 30
0.0
 11
1.62884
 21
95.0997
 31
0.0
  0
LINE
  8
0
 62
     0
 10
1.62884
 20
95.0997
 30
0.0
 11
1.7818
 21
95.1301
 31
0.0
  0
LINE
  8
0
 62
     0
 10
1.7818
 20
95.1301
 30
0.0
 11
1.9389
 21
95.148
 31
0.0
  0
LINE
  8
0
 62
     0
 10
1.9389
 20
95.148
 30
0.0
 11
2.096
 21
95.1548
 31
0.0
  0
LINE
  8
0
 62
     0
 10
2.096
 20
95.1548
 30
0.0
 11
283.471
 21
95.1548
 31
0.0
  0
LINE
  8
0
 62
     0
 10
123.876
 20
16.593
 30
0.0
 11
123.876
 21
11.8925
 31
0.0
  0
LINE
  8
0
 62
     0
 10
123.876
 20
11.8925
 30
0.0
 11
84.2518
 21
11.8925
 31
0.0
  0
LINE
  8
0
 62
     0
 10
84.2518
 20
11.8925
 30
0.0
 11
84.2518
 21
15.1226
 31
0.0
  0
LINE
  8
0
 62
     0
 10
84.2518
 20
15.1226
 30
0.0
 11
82.5267
 21
15.1226
 31
0.0
  0
LINE
  8
0
 62
     0
 10
82.5267
 20
15.1226
 30
0.0
 11
82.5267
 21
16.0431
 31
0.0
  0
LINE
  8
0
 62
     0
 10
82.5267
 20
16.0431
 30
0.0
 11
79.2261
 21
16.0431
 31
0.0
  0
LINE
  8
0
 62
     0
 10
79.2261
 20
16.0431
 30
0.0
 11
79.2261
 21
15.1226
 31
0.0
  0
LINE
  8
0
 62
     0
 10
79.2261
 20
15.1226
 30
0.0
 11
77.501
 21
15.1226
 31
0.0
  0
LINE
  8
0
 62
     0
 10
77.501
 20
15.1226
 30
0.0
 11
77.501
 21
11.8925
 31
0.0
  0
LINE
  8
0
 62
     0
 10
77.501
 20
11.8925
 30
0.0
 11
76.677
 21
11.8925
 31
0.0
  0
LINE
  8
0
 62
     0
 10
76.677
 20
11.8925
 30
0.0
 11
76.677
 21
9.09228
 31
0.0
  0
LINE
  8
0
 62
     0
 10
76.677
 20
9.09228
 30
0.0
 11
77.501
 21
9.09228
 31
0.0
  0
LINE
  8
0
 62
     0
 10
77.501
 20
9.09228
 30
0.0
 11
77.501
 21
2.82222
 31
0.0
  0
LINE
  8
0
 62
     0
 10
77.501
 20
2.82222
 30
0.0
 11
79.2261
 21
2.82222
 31
0.0
  0
LINE
  8
0
 62
     0
 10
79.2261
 20
2.82222
 30
0.0
 11
79.2261
 21
1.84244
 31
0.0
  0
LINE
  8
0
 62
     0
 10
79.2261
 20
1.84244
 30
0.0
 11
82.5267
 21
1.84244
 31
0.0
  0
LINE
  8
0
 62
     0
 10
82.5267
 20
1.84244
 30
0.0
 11
82.5267
 21
2.82222
 31
0.0
  0
LINE
  8
0
 62
     0
 10
82.5267
 20
2.82222
 30
0.0
 11
84.2518
 21
2.82222
 31
0.0
  0
LINE
  8
0
 62
     0
 10
84.2518
 20
2.82222
 30
0.0
 11
84.2518
 21
7.29259
 31
0.0
  0
LINE
  8
0
 62
     0
 10
84.2518
 20
7.29259
 30
0.0
 11
123.876
 21
7.29259
 31
0.0
  0
LINE
  8
0
 62
     0
 10
123.876
 20
7.29259
 30
0.0
 11
123.876
 21
2.59209
 31
0.0
  0
LINE
  8
0
 62
     0
 10
123.876
 20
2.59209
 30
0.0
 11
137.877
 21
2.59209
 31
0.0
  0
LINE
  8
0
 62
     0
 10
137.877
 20
2.59209
 30
0.0
 11
137.877
 21
7.29259
 31
0.0
  0
LINE
  8
0
 62
     0
 10
137.877
 20
7.29259
 30
0.0
 11
177.501
 21
7.29259
 31
0.0
  0
LINE
  8
0
 62
     0
 10
177.501
 20
7.29259
 30
0.0
 11
177.501
 21
2.82222
 31
0.0
  0
LINE
  8
0
 62
     0
 10
177.501
 20
2.82222
 30
0.0
 11
179.226
 21
2.82222
 31
0.0
  0
LINE
  8
0
 62
     0
 10
179.226
 20
2.82222
 30
0.0
 11
179.226
 21
1.84244
 31
0.0
  0
LINE
  8
0
 62
     0
 10
179.226
 20
1.84244
 30
0.0
 11
182.527
 21
1.84244
 31
0.0
  0
LINE
  8
0
 62
     0
 10
182.527
 20
1.84244
 30
0.0
 11
182.527
 21
2.82222
 31
0.0
  0
LINE
  8
0
 62
     0
 10
182.527
 20
2.82222
 30
0.0
 11
184.252
 21
2.82222
 31
0.0
  0
LINE
  8
0
 62
     0
 10
184.252
 20
2.82222
 30
0.0
 11
184.252
 21
9.09228
 31
0.0
  0
LINE
  8
0
 62
     0
 10
184.252
 20
9.09228
 30
0.0
 11
185.076
 21
9.09228
 31
0.0
  0
LINE
  8
0
 62
     0
 10
185.076
 20
9.09228
 30
0.0
 11
185.076
 21
11.8925
 31
0.0
  0
LINE
  8
0
 62
     0
 10
185.076
 20
11.8925
 30
0.0
 11
184.252
 21
11.8925
 31
0.0
  0
LINE
  8
0
 62
     0
 10
184.252
 20
11.8925
 30
0.0
 11
184.252
 21
15.1226
 31
0.0
  0
LINE
  8
0
 62
     0
 10
184.252
 20
15.1226
 30
0.0
 11
182.527
 21
15.1226
 31
0.0
  0
LINE
  8
0
 62
     0
 10
182.527
 20
15.1226
 30
0.0
 11
182.527
 21
16.0431
 31
0.0
  0
LINE
  8
0
 62
     0
 10
182.527
 20
16.0431
 30
0.0
 11
179.226
 21
16.0431
 31
0.0
  0
LINE
  8
0
 62
     0
 10
179.226
 20
16.0431
 30
0.0
 11
179.226
 21
15.1226
 31
0.0
  0
LINE
  8
0
 62
     0
 10
179.226
 20
15.1226
 30
0.0
 11
177.501
 21
15.1226
 31
0.0
  0
LINE
  8
0
 62
     0
 10
177.501
 20
15.1226
 30
0.0
 11
177.501
 21
11.8925
 31
0.0
  0
LINE
  8
0
 62
     0
 10
177.501
 20
11.8925
 30
0.0
 11
137.877
 21
11.8925
 31
0.0
  0
LINE
  8
0
 62
     0
 10
137.877
 20
11.8925
 30
0.0
 11
137.877
 21
16.593
 31
0.0
  0
LINE
  8
0
 62
     0
 10
137.877
 20
16.593
 30
0.0
 11
123.876
 21
16.593
 31
0.0
  0
LINE
  8
0
 62
     0
 10
269.131
 20
16.593
 30
0.0
 11
283.132
 21
16.593
 31
0.0
  0
LINE
  8
0
 62
     0
 10
283.132
 20
16.593
 30
0.0
 11
283.132
 21
2.59209
 31
0.0
  0
LINE
  8
0
 62
     0
 10
283.132
 20
2.59209
 30
0.0
 11
269.131
 21
2.59209
 31
0.0
  0
LINE
  8
0
 62
     0
 10
269.131
 20
2.59209
 30
0.0
 11
269.131
 21
16.593
 31
0.0
  0
LINE
  8
0
 62
     0
 10
250.081
 20
16.593
 30
0.0
 11
264.082
 21
16.593
 31
0.0
  0
LINE
  8
0
 62
     0
 10
264.082
 20
16.593
 30
0.0
 11
264.082
 21
2.59209
 31
0.0
  0
LINE
  8
0
 62
     0
 10
264.082
 20
2.59209
 30
0.0
 11
250.081
 21
2.59209
 31
0.0
  0
LINE
  8
0
 62
     0
 10
250.081
 20
2.59209
 30
0.0
 11
250.081
 21
16.593
 31
0.0
  0
LINE
  8
0
 62
     0
 10
231.032
 20
16.593
 30
0.0
 11
245.033
 21
16.593
 31
0.0
  0
LINE
  8
0
 62
     0
 10
245.033
 20
16.593
 30
0.0
 11
245.033
 21
2.59209
 31
0.0
  0
LINE
  8
0
 62
     0
 10
245.033
 20
2.59209
 30
0.0
 11
231.032
 21
2.59209
 31
0.0
  0
LINE
  8
0
 62
     0
 10
231.032
 20
2.59209
 30
0.0
 11
231.032
 21
16.593
 31
0.0
  0
LINE
  8
0
 62
     0
 10
211.982
 20
16.593
 30
0.0
 11
225.983
 21
16.593
 31
0.0
  0
LINE
  8
0
 62
     0
 10
225.983
 20
16.593
 30
0.0
 11
225.983
 21
2.59209
 31
0.0
  0
LINE
  8
0
 62
     0
 10
225.983
 20
2.59209
 30
0.0
 11
211.982
 21
2.59209
 31
0.0
  0
LINE
  8
0
 62
     0
 10
211.982
 20
2.59209
 30
0.0
 11
211.982
 21
16.593
 31
0.0
  0
LINE
  8
0
 62
     0
 10
192.931
 20
16.593
 30
0.0
 11
192.931
 21
11.0119
 31
0.0
  0
LINE
  8
0
 62
     0
 10
192.931
 20
11.0119
 30
0.0
 11
192.805
 21
11.2613
 31
0.0
  0
LINE
  8
0
 62
     0
 10
192.805
 20
11.2613
 30
0.0
 11
192.253
 21
11.8139
 31
0.0
  0
LINE
  8
0
 62
     0
 10
192.253
 20
11.8139
 30
0.0
 11
191.556
 21
12.1695
 31
0.0
  0
LINE
  8
0
 62
     0
 10
191.556
 20
12.1695
 30
0.0
 11
190.783
 21
12.2921
 31
0.0
  0
LINE
  8
0
 62
     0
 10
190.783
 20
12.2921
 30
0.0
 11
190.009
 21
12.1695
 31
0.0
  0
LINE
  8
0
 62
     0
 10
190.009
 20
12.1695
 30
0.0
 11
189.312
 21
11.8139
 31
0.0
  0
LINE
  8
0
 62
     0
 10
189.312
 20
11.8139
 30
0.0
 11
188.759
 21
11.2613
 31
0.0
  0
LINE
  8
0
 62
     0
 10
188.759
 20
11.2613
 30
0.0
 11
188.406
 21
10.564
 31
0.0
  0
LINE
  8
0
 62
     0
 10
188.406
 20
10.564
 30
0.0
 11
188.283
 21
9.79096
 31
0.0
  0
LINE
  8
0
 62
     0
 10
188.283
 20
9.79096
 30
0.0
 11
188.406
 21
9.01788
 31
0.0
  0
LINE
  8
0
 62
     0
 10
188.406
 20
9.01788
 30
0.0
 11
188.759
 21
8.32196
 31
0.0
  0
LINE
  8
0
 62
     0
 10
188.759
 20
8.32196
 30
0.0
 11
189.312
 21
7.76799
 31
0.0
  0
LINE
  8
0
 62
     0
 10
189.312
 20
7.76799
 30
0.0
 11
190.009
 21
7.41384
 31
0.0
  0
LINE
  8
0
 62
     0
 10
190.009
 20
7.41384
 30
0.0
 11
190.783
 21
7.29121
 31
0.0
  0
LINE
  8
0
 62
     0
 10
190.783
 20
7.29121
 30
0.0
 11
191.556
 21
7.41384
 31
0.0
  0
LINE
  8
0
 62
     0
 10
191.556
 20
7.41384
 30
0.0
 11
192.253
 21
7.76799
 31
0.0
  0
LINE
  8
0
 62
     0
 10
192.253
 20
7.76799
 30
0.0
 11
192.805
 21
8.32196
 31
0.0
  0
LINE
  8
0
 62
     0
 10
192.805
 20
8.32196
 30
0.0
 11
192.931
 21
8.57141
 31
0.0
  0
LINE
  8
0
 62
     0
 10
192.931
 20
8.57141
 30
0.0
 11
192.931
 21
2.59209
 31
0.0
  0
LINE
  8
0
 62
     0
 10
192.931
 20
2.59209
 30
0.0
 11
206.932
 21
2.59209
 31
0.0
  0
LINE
  8
0
 62
     0
 10
206.932
 20
2.59209
 30
0.0
 11
206.932
 21
16.593
 31
0.0
  0
LINE
  8
0
 62
     0
 10
206.932
 20
16.593
 30
0.0
 11
192.931
 21
16.593
 31
0.0
  0
LINE
  8
0
 62
     0
 10
52.4387
 20
16.593
 30
0.0
 11
66.4379
 21
16.593
 31
0.0
  0
LINE
  8
0
 62
     0
 10
66.4379
 20
16.593
 30
0.0
 11
66.4379
 21
2.59209
 31
0.0
  0
LINE
  8
0
 62
     0
 10
66.4379
 20
2.59209
 30
0.0
 11
52.4387
 21
2.59209
 31
0.0
  0
LINE
  8
0
 62
     0
 10
52.4387
 20
2.59209
 30
0.0
 11
52.4387
 21
16.593
 31
0.0
  0
LINE
  8
0
 62
     0
 10
28.626
 20
16.593
 30
0.0
 11
42.6254
 21
16.593
 31
0.0
  0
LINE
  8
0
 62
     0
 10
42.6254
 20
16.593
 30
0.0
 11
42.6254
 21
2.59209
 31
0.0
  0
LINE
  8
0
 62
     0
 10
42.6254
 20
2.59209
 30
0.0
 11
28.626
 21
2.59209
 31
0.0
  0
LINE
  8
0
 62
     0
 10
28.626
 20
2.59209
 30
0.0
 11
28.626
 21
16.593
 31
0.0
  0
LINE
  8
0
 62
     0
 10
4.81348
 20
16.593
 30
0.0
 11
18.813
 21
16.593
 31
0.0
  0
LINE
  8
0
 62
     0
 10
18.813
 20
16.593
 30
0.0
 11
18.813
 21
2.59209
 31
0.0
  0
LINE
  8
0
 62
     0
 10
18.813
 20
2.59209
 30
0.0
 11
4.81348
 21
2.59209
 31
0.0
  0
LINE
  8
0
 62
     0
 10
4.81348
 20
2.59209
 30
0.0
 11
4.81348
 21
16.593
 31
0.0
  0
LINE
  8
0
 62
     0
 10
11.9558
 20
35.6429
 30
0.0
 11
11.9558
 21
30.9411
 31
0.0
  0
LINE
  8
0
 62
     0
 10
11.9558
 20
30.9411
 30
0.0
 11
10.4331
 21
30.9411
 31
0.0
  0
LINE
  8
0
 62
     0
 10
10.4331
 20
30.9411
 30
0.0
 11
10.4331
 21
34.1726
 31
0.0
  0
LINE
  8
0
 62
     0
 10
10.4331
 20
34.1726
 30
0.0
 11
8.70783
 21
34.1726
 31
0.0
  0
LINE
  8
0
 62
     0
 10
8.70783
 20
34.1726
 30
0.0
 11
8.70783
 21
35.0931
 31
0.0
  0
LINE
  8
0
 62
     0
 10
8.70783
 20
35.0931
 30
0.0
 11
5.40741
 21
35.0931
 31
0.0
  0
LINE
  8
0
 62
     0
 10
5.40741
 20
35.0931
 30
0.0
 11
5.40741
 21
34.1726
 31
0.0
  0
LINE
  8
0
 62
     0
 10
5.40741
 20
34.1726
 30
0.0
 11
3.68212
 21
34.1726
 31
0.0
  0
LINE
  8
0
 62
     0
 10
3.68212
 20
34.1726
 30
0.0
 11
3.68212
 21
30.9411
 31
0.0
  0
LINE
  8
0
 62
     0
 10
3.68212
 20
30.9411
 30
0.0
 11
2.85805
 21
30.9411
 31
0.0
  0
LINE
  8
0
 62
     0
 10
2.85805
 20
30.9411
 30
0.0
 11
2.85805
 21
28.1423
 31
0.0
  0
LINE
  8
0
 62
     0
 10
2.85805
 20
28.1423
 30
0.0
 11
3.68212
 21
28.1423
 31
0.0
  0
LINE
  8
0
 62
     0
 10
3.68212
 20
28.1423
 30
0.0
 11
3.68212
 21
21.8722
 31
0.0
  0
LINE
  8
0
 62
     0
 10
3.68212
 20
21.8722
 30
0.0
 11
5.40741
 21
21.8722
 31
0.0
  0
LINE
  8
0
 62
     0
 10
5.40741
 20
21.8722
 30
0.0
 11
5.40741
 21
20.8925
 31
0.0
  0
LINE
  8
0
 62
     0
 10
5.40741
 20
20.8925
 30
0.0
 11
8.70783
 21
20.8925
 31
0.0
  0
LINE
  8
0
 62
     0
 10
8.70783
 20
20.8925
 30
0.0
 11
8.70783
 21
21.8722
 31
0.0
  0
LINE
  8
0
 62
     0
 10
8.70783
 20
21.8722
 30
0.0
 11
10.4331
 21
21.8722
 31
0.0
  0
LINE
  8
0
 62
     0
 10
10.4331
 20
21.8722
 30
0.0
 11
10.4331
 21
26.3426
 31
0.0
  0
LINE
  8
0
 62
     0
 10
10.4331
 20
26.3426
 30
0.0
 11
11.9558
 21
26.3426
 31
0.0
  0
LINE
  8
0
 62
     0
 10
11.9558
 20
26.3426
 30
0.0
 11
11.9558
 21
21.6421
 31
0.0
  0
LINE
  8
0
 62
     0
 10
11.9558
 20
21.6421
 30
0.0
 11
25.9567
 21
21.6421
 31
0.0
  0
LINE
  8
0
 62
     0
 10
25.9567
 20
21.6421
 30
0.0
 11
25.9567
 21
26.3426
 31
0.0
  0
LINE
  8
0
 62
     0
 10
25.9567
 20
26.3426
 30
0.0
 11
27.4822
 21
26.3426
 31
0.0
  0
LINE
  8
0
 62
     0
 10
27.4822
 20
26.3426
 30
0.0
 11
27.4822
 21
21.8722
 31
0.0
  0
LINE
  8
0
 62
     0
 10
27.4822
 20
21.8722
 30
0.0
 11
29.2062
 21
21.8722
 31
0.0
  0
LINE
  8
0
 62
     0
 10
29.2062
 20
21.8722
 30
0.0
 11
29.2062
 21
20.8925
 31
0.0
  0
LINE
  8
0
 62
     0
 10
29.2062
 20
20.8925
 30
0.0
 11
32.5065
 21
20.8925
 31
0.0
  0
LINE
  8
0
 62
     0
 10
32.5065
 20
20.8925
 30
0.0
 11
32.5065
 21
21.8722
 31
0.0
  0
LINE
  8
0
 62
     0
 10
32.5065
 20
21.8722
 30
0.0
 11
34.2319
 21
21.8722
 31
0.0
  0
LINE
  8
0
 62
     0
 10
34.2319
 20
21.8722
 30
0.0
 11
34.2319
 21
28.1423
 31
0.0
  0
LINE
  8
0
 62
     0
 10
34.2319
 20
28.1423
 30
0.0
 11
35.0573
 21
28.1423
 31
0.0
  0
LINE
  8
0
 62
     0
 10
35.0573
 20
28.1423
 30
0.0
 11
35.0573
 21
30.9411
 31
0.0
  0
LINE
  8
0
 62
     0
 10
35.0573
 20
30.9411
 30
0.0
 11
34.2319
 21
30.9411
 31
0.0
  0
LINE
  8
0
 62
     0
 10
34.2319
 20
30.9411
 30
0.0
 11
34.2319
 21
34.1726
 31
0.0
  0
LINE
  8
0
 62
     0
 10
34.2319
 20
34.1726
 30
0.0
 11
32.5065
 21
34.1726
 31
0.0
  0
LINE
  8
0
 62
     0
 10
32.5065
 20
34.1726
 30
0.0
 11
32.5065
 21
35.0931
 31
0.0
  0
LINE
  8
0
 62
     0
 10
32.5065
 20
35.0931
 30
0.0
 11
29.2062
 21
35.0931
 31
0.0
  0
LINE
  8
0
 62
     0
 10
29.2062
 20
35.0931
 30
0.0
 11
29.2062
 21
34.1726
 31
0.0
  0
LINE
  8
0
 62
     0
 10
29.2062
 20
34.1726
 30
0.0
 11
27.4822
 21
34.1726
 31
0.0
  0
LINE
  8
0
 62
     0
 10
27.4822
 20
34.1726
 30
0.0
 11
27.4822
 21
30.9411
 31
0.0
  0
LINE
  8
0
 62
     0
 10
27.4822
 20
30.9411
 30
0.0
 11
25.9567
 21
30.9411
 31
0.0
  0
LINE
  8
0
 62
     0
 10
25.9567
 20
30.9411
 30
0.0
 11
25.9567
 21
35.6429
 31
0.0
  0
LINE
  8
0
 62
     0
 10
25.9567
 20
35.6429
 30
0.0
 11
11.9558
 21
35.6429
 31
0.0
  0
LINE
  8
0
 62
     0
 10
269.131
 20
35.6429
 30
0.0
 11
283.132
 21
35.6429
 31
0.0
  0
LINE
  8
0
 62
     0
 10
283.132
 20
35.6429
 30
0.0
 11
283.132
 21
21.6421
 31
0.0
  0
LINE
  8
0
 62
     0
 10
283.132
 20
21.6421
 30
0.0
 11
269.131
 21
21.6421
 31
0.0
  0
LINE
  8
0
 62
     0
 10
269.131
 20
21.6421
 30
0.0
 11
269.131
 21
35.6429
 31
0.0
  0
LINE
  8
0
 62
     0
 10
250.081
 20
35.6429
 30
0.0
 11
264.082
 21
35.6429
 31
0.0
  0
LINE
  8
0
 62
     0
 10
264.082
 20
35.6429
 30
0.0
 11
264.082
 21
21.6421
 31
0.0
  0
LINE
  8
0
 62
     0
 10
264.082
 20
21.6421
 30
0.0
 11
250.081
 21
21.6421
 31
0.0
  0
LINE
  8
0
 62
     0
 10
250.081
 20
21.6421
 30
0.0
 11
250.081
 21
35.6429
 31
0.0
  0
LINE
  8
0
 62
     0
 10
231.032
 20
35.6429
 30
0.0
 11
245.033
 21
35.6429
 31
0.0
  0
LINE
  8
0
 62
     0
 10
245.033
 20
35.6429
 30
0.0
 11
245.033
 21
21.6421
 31
0.0
  0
LINE
  8
0
 62
     0
 10
245.033
 20
21.6421
 30
0.0
 11
231.032
 21
21.6421
 31
0.0
  0
LINE
  8
0
 62
     0
 10
231.032
 20
21.6421
 30
0.0
 11
231.032
 21
35.6429
 31
0.0
  0
LINE
  8
0
 62
     0
 10
211.982
 20
35.6429
 30
0.0
 11
225.983
 21
35.6429
 31
0.0
  0
LINE
  8
0
 62
     0
 10
225.983
 20
35.6429
 30
0.0
 11
225.983
 21
21.6421
 31
0.0
  0
LINE
  8
0
 62
     0
 10
225.983
 20
21.6421
 30
0.0
 11
211.982
 21
21.6421
 31
0.0
  0
LINE
  8
0
 62
     0
 10
211.982
 20
21.6421
 30
0.0
 11
211.982
 21
35.6429
 31
0.0
  0
LINE
  8
0
 62
     0
 10
192.931
 20
35.6429
 30
0.0
 11
206.932
 21
35.6429
 31
0.0
  0
LINE
  8
0
 62
     0
 10
206.932
 20
35.6429
 30
0.0
 11
206.932
 21
21.6421
 31
0.0
  0
LINE
  8
0
 62
     0
 10
206.932
 20
21.6421
 30
0.0
 11
192.931
 21
21.6421
 31
0.0
  0
LINE
  8
0
 62
     0
 10
192.931
 20
21.6421
 30
0.0
 11
192.931
 21
35.6429
 31
0.0
  0
LINE
  8
0
 62
     0
 10
173.882
 20
35.6429
 30
0.0
 11
187.883
 21
35.6429
 31
0.0
  0
LINE
  8
0
 62
     0
 10
187.883
 20
35.6429
 30
0.0
 11
187.883
 21
21.6421
 31
0.0
  0
LINE
  8
0
 62
     0
 10
187.883
 20
21.6421
 30
0.0
 11
173.882
 21
21.6421
 31
0.0
  0
LINE
  8
0
 62
     0
 10
173.882
 20
21.6421
 30
0.0
 11
173.882
 21
35.6429
 31
0.0
  0
LINE
  8
0
 62
     0
 10
154.831
 20
35.6429
 30
0.0
 11
168.832
 21
35.6429
 31
0.0
  0
LINE
  8
0
 62
     0
 10
168.832
 20
35.6429
 30
0.0
 11
168.832
 21
21.6421
 31
0.0
  0
LINE
  8
0
 62
     0
 10
168.832
 20
21.6421
 30
0.0
 11
154.831
 21
21.6421
 31
0.0
  0
LINE
  8
0
 62
     0
 10
154.831
 20
21.6421
 30
0.0
 11
154.831
 21
35.6429
 31
0.0
  0
LINE
  8
0
 62
     0
 10
135.782
 20
35.6429
 30
0.0
 11
149.783
 21
35.6429
 31
0.0
  0
LINE
  8
0
 62
     0
 10
149.783
 20
35.6429
 30
0.0
 11
149.783
 21
21.6421
 31
0.0
  0
LINE
  8
0
 62
     0
 10
149.783
 20
21.6421
 30
0.0
 11
135.782
 21
21.6421
 31
0.0
  0
LINE
  8
0
 62
     0
 10
135.782
 20
21.6421
 30
0.0
 11
135.782
 21
35.6429
 31
0.0
  0
LINE
  8
0
 62
     0
 10
116.732
 20
35.6429
 30
0.0
 11
130.733
 21
35.6429
 31
0.0
  0
LINE
  8
0
 62
     0
 10
130.733
 20
35.6429
 30
0.0
 11
130.733
 21
21.6421
 31
0.0
  0
LINE
  8
0
 62
     0
 10
130.733
 20
21.6421
 30
0.0
 11
116.732
 21
21.6421
 31
0.0
  0
LINE
  8
0
 62
     0
 10
116.732
 20
21.6421
 30
0.0
 11
116.732
 21
35.6429
 31
0.0
  0
LINE
  8
0
 62
     0
 10
97.6824
 20
35.6429
 30
0.0
 11
111.683
 21
35.6429
 31
0.0
  0
LINE
  8
0
 62
     0
 10
111.683
 20
35.6429
 30
0.0
 11
111.683
 21
21.6421
 31
0.0
  0
LINE
  8
0
 62
     0
 10
111.683
 20
21.6421
 30
0.0
 11
97.6824
 21
21.6421
 31
0.0
  0
LINE
  8
0
 62
     0
 10
97.6824
 20
21.6421
 30
0.0
 11
97.6824
 21
35.6429
 31
0.0
  0
LINE
  8
0
 62
     0
 10
78.6324
 20
35.6429
 30
0.0
 11
92.6331
 21
35.6429
 31
0.0
  0
LINE
  8
0
 62
     0
 10
92.6331
 20
35.6429
 30
0.0
 11
92.6331
 21
21.6421
 31
0.0
  0
LINE
  8
0
 62
     0
 10
92.6331
 20
21.6421
 30
0.0
 11
78.6324
 21
21.6421
 31
0.0
  0
LINE
  8
0
 62
     0
 10
78.6324
 20
21.6421
 30
0.0
 11
78.6324
 21
35.6429
 31
0.0
  0
LINE
  8
0
 62
     0
 10
59.581
 20
35.6429
 30
0.0
 11
73.5817
 21
35.6429
 31
0.0
  0
LINE
  8
0
 62
     0
 10
73.5817
 20
35.6429
 30
0.0
 11
73.5817
 21
21.6421
 31
0.0
  0
LINE
  8
0
 62
     0
 10
73.5817
 20
21.6421
 30
0.0
 11
59.581
 21
21.6421
 31
0.0
  0
LINE
  8
0
 62
     0
 10
59.581
 20
21.6421
 30
0.0
 11
59.581
 21
35.6429
 31
0.0
  0
LINE
  8
0
 62
     0
 10
40.5324
 20
35.6429
 30
0.0
 11
54.5331
 21
35.6429
 31
0.0
  0
LINE
  8
0
 62
     0
 10
54.5331
 20
35.6429
 30
0.0
 11
54.5331
 21
21.6421
 31
0.0
  0
LINE
  8
0
 62
     0
 10
54.5331
 20
21.6421
 30
0.0
 11
40.5324
 21
21.6421
 31
0.0
  0
LINE
  8
0
 62
     0
 10
40.5324
 20
21.6421
 30
0.0
 11
40.5324
 21
35.6429
 31
0.0
  0
LINE
  8
0
 62
     0
 10
257.225
 20
54.6915
 30
0.0
 11
257.225
 21
49.9925
 31
0.0
  0
LINE
  8
0
 62
     0
 10
257.225
 20
49.9925
 30
0.0
 11
255.7
 21
49.9925
 31
0.0
  0
LINE
  8
0
 62
     0
 10
255.7
 20
49.9925
 30
0.0
 11
255.7
 21
53.2211
 31
0.0
  0
LINE
  8
0
 62
     0
 10
255.7
 20
53.2211
 30
0.0
 11
253.974
 21
53.2211
 31
0.0
  0
LINE
  8
0
 62
     0
 10
253.974
 20
53.2211
 30
0.0
 11
253.974
 21
54.1433
 31
0.0
  0
LINE
  8
0
 62
     0
 10
253.974
 20
54.1433
 30
0.0
 11
250.676
 21
54.1433
 31
0.0
  0
LINE
  8
0
 62
     0
 10
250.676
 20
54.1433
 30
0.0
 11
250.676
 21
53.2211
 31
0.0
  0
LINE
  8
0
 62
     0
 10
250.676
 20
53.2211
 30
0.0
 11
248.951
 21
53.2211
 31
0.0
  0
LINE
  8
0
 62
     0
 10
248.951
 20
53.2211
 30
0.0
 11
248.951
 21
49.9925
 31
0.0
  0
LINE
  8
0
 62
     0
 10
248.951
 20
49.9925
 30
0.0
 11
248.127
 21
49.9925
 31
0.0
  0
LINE
  8
0
 62
     0
 10
248.127
 20
49.9925
 30
0.0
 11
248.127
 21
47.1911
 31
0.0
  0
LINE
  8
0
 62
     0
 10
248.127
 20
47.1911
 30
0.0
 11
248.951
 21
47.1911
 31
0.0
  0
LINE
  8
0
 62
     0
 10
248.951
 20
47.1911
 30
0.0
 11
248.951
 21
40.9222
 31
0.0
  0
LINE
  8
0
 62
     0
 10
248.951
 20
40.9222
 30
0.0
 11
250.676
 21
40.9222
 31
0.0
  0
LINE
  8
0
 62
     0
 10
250.676
 20
40.9222
 30
0.0
 11
250.676
 21
39.9411
 31
0.0
  0
LINE
  8
0
 62
     0
 10
250.676
 20
39.9411
 30
0.0
 11
253.974
 21
39.9411
 31
0.0
  0
LINE
  8
0
 62
     0
 10
253.974
 20
39.9411
 30
0.0
 11
253.974
 21
40.9222
 31
0.0
  0
LINE
  8
0
 62
     0
 10
253.974
 20
40.9222
 30
0.0
 11
255.7
 21
40.9222
 31
0.0
  0
LINE
  8
0
 62
     0
 10
255.7
 20
40.9222
 30
0.0
 11
255.7
 21
45.3926
 31
0.0
  0
LINE
  8
0
 62
     0
 10
255.7
 20
45.3926
 30
0.0
 11
257.225
 21
45.3926
 31
0.0
  0
LINE
  8
0
 62
     0
 10
257.225
 20
45.3926
 30
0.0
 11
257.225
 21
40.6922
 31
0.0
  0
LINE
  8
0
 62
     0
 10
257.225
 20
40.6922
 30
0.0
 11
271.225
 21
40.6922
 31
0.0
  0
LINE
  8
0
 62
     0
 10
271.225
 20
40.6922
 30
0.0
 11
271.225
 21
45.3926
 31
0.0
  0
LINE
  8
0
 62
     0
 10
271.225
 20
45.3926
 30
0.0
 11
272.751
 21
45.3926
 31
0.0
  0
LINE
  8
0
 62
     0
 10
272.751
 20
45.3926
 30
0.0
 11
272.751
 21
40.9222
 31
0.0
  0
LINE
  8
0
 62
     0
 10
272.751
 20
40.9222
 30
0.0
 11
274.475
 21
40.9222
 31
0.0
  0
LINE
  8
0
 62
     0
 10
274.475
 20
40.9222
 30
0.0
 11
274.475
 21
39.9411
 31
0.0
  0
LINE
  8
0
 62
     0
 10
274.475
 20
39.9411
 30
0.0
 11
277.775
 21
39.9411
 31
0.0
  0
LINE
  8
0
 62
     0
 10
277.775
 20
39.9411
 30
0.0
 11
277.775
 21
40.9222
 31
0.0
  0
LINE
  8
0
 62
     0
 10
277.775
 20
40.9222
 30
0.0
 11
279.501
 21
40.9222
 31
0.0
  0
LINE
  8
0
 62
     0
 10
279.501
 20
40.9222
 30
0.0
 11
279.501
 21
47.1911
 31
0.0
  0
LINE
  8
0
 62
     0
 10
279.501
 20
47.1911
 30
0.0
 11
280.326
 21
47.1911
 31
0.0
  0
LINE
  8
0
 62
     0
 10
280.326
 20
47.1911
 30
0.0
 11
280.326
 21
49.9925
 31
0.0
  0
LINE
  8
0
 62
     0
 10
280.326
 20
49.9925
 30
0.0
 11
279.501
 21
49.9925
 31
0.0
  0
LINE
  8
0
 62
     0
 10
279.501
 20
49.9925
 30
0.0
 11
279.501
 21
53.2211
 31
0.0
  0
LINE
  8
0
 62
     0
 10
279.501
 20
53.2211
 30
0.0
 11
277.775
 21
53.2211
 31
0.0
  0
LINE
  8
0
 62
     0
 10
277.775
 20
53.2211
 30
0.0
 11
277.775
 21
54.1433
 31
0.0
  0
LINE
  8
0
 62
     0
 10
277.775
 20
54.1433
 30
0.0
 11
274.475
 21
54.1433
 31
0.0
  0
LINE
  8
0
 62
     0
 10
274.475
 20
54.1433
 30
0.0
 11
274.475
 21
53.2211
 31
0.0
  0
LINE
  8
0
 62
     0
 10
274.475
 20
53.2211
 30
0.0
 11
272.751
 21
53.2211
 31
0.0
  0
LINE
  8
0
 62
     0
 10
272.751
 20
53.2211
 30
0.0
 11
272.751
 21
49.9925
 31
0.0
  0
LINE
  8
0
 62
     0
 10
272.751
 20
49.9925
 30
0.0
 11
271.225
 21
49.9925
 31
0.0
  0
LINE
  8
0
 62
     0
 10
271.225
 20
49.9925
 30
0.0
 11
271.225
 21
54.6915
 31
0.0
  0
LINE
  8
0
 62
     0
 10
271.225
 20
54.6915
 30
0.0
 11
257.225
 21
54.6915
 31
0.0
  0
LINE
  8
0
 62
     0
 10
226.271
 20
54.6915
 30
0.0
 11
240.271
 21
54.6915
 31
0.0
  0
LINE
  8
0
 62
     0
 10
240.271
 20
54.6915
 30
0.0
 11
240.271
 21
40.6922
 31
0.0
  0
LINE
  8
0
 62
     0
 10
240.271
 20
40.6922
 30
0.0
 11
226.271
 21
40.6922
 31
0.0
  0
LINE
  8
0
 62
     0
 10
226.271
 20
40.6922
 30
0.0
 11
226.271
 21
54.6915
 31
0.0
  0
LINE
  8
0
 62
     0
 10
207.221
 20
54.6915
 30
0.0
 11
221.221
 21
54.6915
 31
0.0
  0
LINE
  8
0
 62
     0
 10
221.221
 20
54.6915
 30
0.0
 11
221.221
 21
40.6922
 31
0.0
  0
LINE
  8
0
 62
     0
 10
221.221
 20
40.6922
 30
0.0
 11
207.221
 21
40.6922
 31
0.0
  0
LINE
  8
0
 62
     0
 10
207.221
 20
40.6922
 30
0.0
 11
207.221
 21
54.6915
 31
0.0
  0
LINE
  8
0
 62
     0
 10
188.17
 20
54.6915
 30
0.0
 11
202.169
 21
54.6915
 31
0.0
  0
LINE
  8
0
 62
     0
 10
202.169
 20
54.6915
 30
0.0
 11
202.169
 21
40.6922
 31
0.0
  0
LINE
  8
0
 62
     0
 10
202.169
 20
40.6922
 30
0.0
 11
188.17
 21
40.6922
 31
0.0
  0
LINE
  8
0
 62
     0
 10
188.17
 20
40.6922
 30
0.0
 11
188.17
 21
54.6915
 31
0.0
  0
LINE
  8
0
 62
     0
 10
169.121
 20
54.6915
 30
0.0
 11
183.121
 21
54.6915
 31
0.0
  0
LINE
  8
0
 62
     0
 10
183.121
 20
54.6915
 30
0.0
 11
183.121
 21
40.6922
 31
0.0
  0
LINE
  8
0
 62
     0
 10
183.121
 20
40.6922
 30
0.0
 11
169.121
 21
40.6922
 31
0.0
  0
LINE
  8
0
 62
     0
 10
169.121
 20
40.6922
 30
0.0
 11
169.121
 21
54.6915
 31
0.0
  0
LINE
  8
0
 62
     0
 10
150.07
 20
54.6915
 30
0.0
 11
164.069
 21
54.6915
 31
0.0
  0
LINE
  8
0
 62
     0
 10
164.069
 20
54.6915
 30
0.0
 11
164.069
 21
40.6922
 31
0.0
  0
LINE
  8
0
 62
     0
 10
164.069
 20
40.6922
 30
0.0
 11
150.07
 21
40.6922
 31
0.0
  0
LINE
  8
0
 62
     0
 10
150.07
 20
40.6922
 30
0.0
 11
150.07
 21
54.6915
 31
0.0
  0
LINE
  8
0
 62
     0
 10
131.02
 20
54.6915
 30
0.0
 11
145.019
 21
54.6915
 31
0.0
  0
LINE
  8
0
 62
     0
 10
145.019
 20
54.6915
 30
0.0
 11
145.019
 21
40.6922
 31
0.0
  0
LINE
  8
0
 62
     0
 10
145.019
 20
40.6922
 30
0.0
 11
131.02
 21
40.6922
 31
0.0
  0
LINE
  8
0
 62
     0
 10
131.02
 20
40.6922
 30
0.0
 11
131.02
 21
54.6915
 31
0.0
  0
LINE
  8
0
 62
     0
 10
111.968
 20
54.6915
 30
0.0
 11
125.971
 21
54.6915
 31
0.0
  0
LINE
  8
0
 62
     0
 10
125.971
 20
54.6915
 30
0.0
 11
125.971
 21
40.6922
 31
0.0
  0
LINE
  8
0
 62
     0
 10
125.971
 20
40.6922
 30
0.0
 11
111.968
 21
40.6922
 31
0.0
  0
LINE
  8
0
 62
     0
 10
111.968
 20
40.6922
 30
0.0
 11
111.968
 21
54.6915
 31
0.0
  0
LINE
  8
0
 62
     0
 10
92.9199
 20
54.6915
 30
0.0
 11
106.919
 21
54.6915
 31
0.0
  0
LINE
  8
0
 62
     0
 10
106.919
 20
54.6915
 30
0.0
 11
106.919
 21
40.6922
 31
0.0
  0
LINE
  8
0
 62
     0
 10
106.919
 20
40.6922
 30
0.0
 11
92.9199
 21
40.6922
 31
0.0
  0
LINE
  8
0
 62
     0
 10
92.9199
 20
40.6922
 30
0.0
 11
92.9199
 21
54.6915
 31
0.0
  0
LINE
  8
0
 62
     0
 10
73.8699
 20
54.6915
 30
0.0
 11
87.8692
 21
54.6915
 31
0.0
  0
LINE
  8
0
 62
     0
 10
87.8692
 20
54.6915
 30
0.0
 11
87.8692
 21
40.6922
 31
0.0
  0
LINE
  8
0
 62
     0
 10
87.8692
 20
40.6922
 30
0.0
 11
73.8699
 21
40.6922
 31
0.0
  0
LINE
  8
0
 62
     0
 10
73.8699
 20
40.6922
 30
0.0
 11
73.8699
 21
54.6915
 31
0.0
  0
LINE
  8
0
 62
     0
 10
54.8185
 20
54.6915
 30
0.0
 11
68.8192
 21
54.6915
 31
0.0
  0
LINE
  8
0
 62
     0
 10
68.8192
 20
54.6915
 30
0.0
 11
68.8192
 21
40.6922
 31
0.0
  0
LINE
  8
0
 62
     0
 10
68.8192
 20
40.6922
 30
0.0
 11
54.8185
 21
40.6922
 31
0.0
  0
LINE
  8
0
 62
     0
 10
54.8185
 20
40.6922
 30
0.0
 11
54.8185
 21
54.6915
 31
0.0
  0
LINE
  8
0
 62
     0
 10
35.771
 20
54.6915
 30
0.0
 11
49.7706
 21
54.6915
 31
0.0
  0
LINE
  8
0
 62
     0
 10
49.7706
 20
54.6915
 30
0.0
 11
49.7706
 21
40.6922
 31
0.0
  0
LINE
  8
0
 62
     0
 10
49.7706
 20
40.6922
 30
0.0
 11
35.771
 21
40.6922
 31
0.0
  0
LINE
  8
0
 62
     0
 10
35.771
 20
40.6922
 30
0.0
 11
35.771
 21
54.6915
 31
0.0
  0
LINE
  8
0
 62
     0
 10
9.57598
 20
54.6915
 30
0.0
 11
23.5768
 21
54.6915
 31
0.0
  0
LINE
  8
0
 62
     0
 10
23.5768
 20
54.6915
 30
0.0
 11
23.5768
 21
40.6922
 31
0.0
  0
LINE
  8
0
 62
     0
 10
23.5768
 20
40.6922
 30
0.0
 11
9.57598
 21
40.6922
 31
0.0
  0
LINE
  8
0
 62
     0
 10
9.57598
 20
40.6922
 30
0.0
 11
9.57598
 21
54.6915
 31
0.0
  0
LINE
  8
0
 62
     0
 10
127.711
 20
50.0697
 30
0.0
 11
127.014
 21
49.7141
 31
0.0
  0
LINE
  8
0
 62
     0
 10
127.014
 20
49.7141
 30
0.0
 11
126.46
 21
49.1603
 31
0.0
  0
LINE
  8
0
 62
     0
 10
126.46
 20
49.1603
 30
0.0
 11
126.103
 21
48.4643
 31
0.0
  0
LINE
  8
0
 62
     0
 10
126.103
 20
48.4643
 30
0.0
 11
125.983
 21
47.6913
 31
0.0
  0
LINE
  8
0
 62
     0
 10
125.983
 20
47.6913
 30
0.0
 11
126.103
 21
46.9194
 31
0.0
  0
LINE
  8
0
 62
     0
 10
126.103
 20
46.9194
 30
0.0
 11
126.46
 21
46.222
 31
0.0
  0
LINE
  8
0
 62
     0
 10
126.46
 20
46.222
 30
0.0
 11
127.014
 21
45.6696
 31
0.0
  0
LINE
  8
0
 62
     0
 10
127.014
 20
45.6696
 30
0.0
 11
127.711
 21
45.314
 31
0.0
  0
LINE
  8
0
 62
     0
 10
127.711
 20
45.314
 30
0.0
 11
128.484
 21
45.1901
 31
0.0
  0
LINE
  8
0
 62
     0
 10
128.484
 20
45.1901
 30
0.0
 11
129.256
 21
45.314
 31
0.0
  0
LINE
  8
0
 62
     0
 10
129.256
 20
45.314
 30
0.0
 11
129.953
 21
45.6696
 31
0.0
  0
LINE
  8
0
 62
     0
 10
129.953
 20
45.6696
 30
0.0
 11
130.506
 21
46.222
 31
0.0
  0
LINE
  8
0
 62
     0
 10
130.506
 20
46.222
 30
0.0
 11
130.86
 21
46.9194
 31
0.0
  0
LINE
  8
0
 62
     0
 10
130.86
 20
46.9194
 30
0.0
 11
130.984
 21
47.6913
 31
0.0
  0
LINE
  8
0
 62
     0
 10
130.984
 20
47.6913
 30
0.0
 11
130.86
 21
48.4643
 31
0.0
  0
LINE
  8
0
 62
     0
 10
130.86
 20
48.4643
 30
0.0
 11
130.506
 21
49.1603
 31
0.0
  0
LINE
  8
0
 62
     0
 10
130.506
 20
49.1603
 30
0.0
 11
129.953
 21
49.7141
 31
0.0
  0
LINE
  8
0
 62
     0
 10
129.953
 20
49.7141
 30
0.0
 11
129.256
 21
50.0697
 31
0.0
  0
LINE
  8
0
 62
     0
 10
129.256
 20
50.0697
 30
0.0
 11
128.484
 21
50.1908
 31
0.0
  0
LINE
  8
0
 62
     0
 10
128.484
 20
50.1908
 30
0.0
 11
127.711
 21
50.0697
 31
0.0
  0
LINE
  8
0
 62
     0
 10
264.37
 20
73.7429
 30
0.0
 11
278.369
 21
73.7429
 31
0.0
  0
LINE
  8
0
 62
     0
 10
278.369
 20
73.7429
 30
0.0
 11
278.369
 21
59.7422
 31
0.0
  0
LINE
  8
0
 62
     0
 10
278.369
 20
59.7422
 30
0.0
 11
264.37
 21
59.7422
 31
0.0
  0
LINE
  8
0
 62
     0
 10
264.37
 20
59.7422
 30
0.0
 11
264.37
 21
73.7429
 31
0.0
  0
LINE
  8
0
 62
     0
 10
240.556
 20
73.7429
 30
0.0
 11
254.557
 21
73.7429
 31
0.0
  0
LINE
  8
0
 62
     0
 10
254.557
 20
73.7429
 30
0.0
 11
254.557
 21
59.7422
 31
0.0
  0
LINE
  8
0
 62
     0
 10
254.557
 20
59.7422
 30
0.0
 11
240.556
 21
59.7422
 31
0.0
  0
LINE
  8
0
 62
     0
 10
240.556
 20
59.7422
 30
0.0
 11
240.556
 21
73.7429
 31
0.0
  0
LINE
  8
0
 62
     0
 10
221.507
 20
73.7429
 30
0.0
 11
235.508
 21
73.7429
 31
0.0
  0
LINE
  8
0
 62
     0
 10
235.508
 20
73.7429
 30
0.0
 11
235.508
 21
59.7422
 31
0.0
  0
LINE
  8
0
 62
     0
 10
235.508
 20
59.7422
 30
0.0
 11
221.507
 21
59.7422
 31
0.0
  0
LINE
  8
0
 62
     0
 10
221.507
 20
59.7422
 30
0.0
 11
221.507
 21
73.7429
 31
0.0
  0
LINE
  8
0
 62
     0
 10
202.456
 20
73.7429
 30
0.0
 11
216.457
 21
73.7429
 31
0.0
  0
LINE
  8
0
 62
     0
 10
216.457
 20
73.7429
 30
0.0
 11
216.457
 21
59.7422
 31
0.0
  0
LINE
  8
0
 62
     0
 10
216.457
 20
59.7422
 30
0.0
 11
202.456
 21
59.7422
 31
0.0
  0
LINE
  8
0
 62
     0
 10
202.456
 20
59.7422
 30
0.0
 11
202.456
 21
73.7429
 31
0.0
  0
LINE
  8
0
 62
     0
 10
183.407
 20
73.7429
 30
0.0
 11
197.408
 21
73.7429
 31
0.0
  0
LINE
  8
0
 62
     0
 10
197.408
 20
73.7429
 30
0.0
 11
197.408
 21
59.7422
 31
0.0
  0
LINE
  8
0
 62
     0
 10
197.408
 20
59.7422
 30
0.0
 11
183.407
 21
59.7422
 31
0.0
  0
LINE
  8
0
 62
     0
 10
183.407
 20
59.7422
 30
0.0
 11
183.407
 21
73.7429
 31
0.0
  0
LINE
  8
0
 62
     0
 10
164.357
 20
73.7429
 30
0.0
 11
178.358
 21
73.7429
 31
0.0
  0
LINE
  8
0
 62
     0
 10
178.358
 20
73.7429
 30
0.0
 11
178.358
 21
59.7422
 31
0.0
  0
LINE
  8
0
 62
     0
 10
178.358
 20
59.7422
 30
0.0
 11
164.357
 21
59.7422
 31
0.0
  0
LINE
  8
0
 62
     0
 10
164.357
 20
59.7422
 30
0.0
 11
164.357
 21
73.7429
 31
0.0
  0
LINE
  8
0
 62
     0
 10
145.306
 20
73.7429
 30
0.0
 11
159.307
 21
73.7429
 31
0.0
  0
LINE
  8
0
 62
     0
 10
159.307
 20
73.7429
 30
0.0
 11
159.307
 21
59.7422
 31
0.0
  0
LINE
  8
0
 62
     0
 10
159.307
 20
59.7422
 30
0.0
 11
145.306
 21
59.7422
 31
0.0
  0
LINE
  8
0
 62
     0
 10
145.306
 20
59.7422
 30
0.0
 11
145.306
 21
73.7429
 31
0.0
  0
LINE
  8
0
 62
     0
 10
126.257
 20
73.7429
 30
0.0
 11
140.258
 21
73.7429
 31
0.0
  0
LINE
  8
0
 62
     0
 10
140.258
 20
73.7429
 30
0.0
 11
140.258
 21
59.7422
 31
0.0
  0
LINE
  8
0
 62
     0
 10
140.258
 20
59.7422
 30
0.0
 11
126.257
 21
59.7422
 31
0.0
  0
LINE
  8
0
 62
     0
 10
126.257
 20
59.7422
 30
0.0
 11
126.257
 21
73.7429
 31
0.0
  0
LINE
  8
0
 62
     0
 10
107.206
 20
73.7429
 30
0.0
 11
121.207
 21
73.7429
 31
0.0
  0
LINE
  8
0
 62
     0
 10
121.207
 20
73.7429
 30
0.0
 11
121.207
 21
59.7422
 31
0.0
  0
LINE
  8
0
 62
     0
 10
121.207
 20
59.7422
 30
0.0
 11
107.206
 21
59.7422
 31
0.0
  0
LINE
  8
0
 62
     0
 10
107.206
 20
59.7422
 30
0.0
 11
107.206
 21
73.7429
 31
0.0
  0
LINE
  8
0
 62
     0
 10
88.1574
 20
73.7429
 30
0.0
 11
102.158
 21
73.7429
 31
0.0
  0
LINE
  8
0
 62
     0
 10
102.158
 20
73.7429
 30
0.0
 11
102.158
 21
59.7422
 31
0.0
  0
LINE
  8
0
 62
     0
 10
102.158
 20
59.7422
 30
0.0
 11
88.1574
 21
59.7422
 31
0.0
  0
LINE
  8
0
 62
     0
 10
88.1574
 20
59.7422
 30
0.0
 11
88.1574
 21
73.7429
 31
0.0
  0
LINE
  8
0
 62
     0
 10
69.1074
 20
73.7429
 30
0.0
 11
83.1081
 21
73.7429
 31
0.0
  0
LINE
  8
0
 62
     0
 10
83.1081
 20
73.7429
 30
0.0
 11
83.1081
 21
59.7422
 31
0.0
  0
LINE
  8
0
 62
     0
 10
83.1081
 20
59.7422
 30
0.0
 11
69.1074
 21
59.7422
 31
0.0
  0
LINE
  8
0
 62
     0
 10
69.1074
 20
59.7422
 30
0.0
 11
69.1074
 21
73.7429
 31
0.0
  0
LINE
  8
0
 62
     0
 10
50.0574
 20
73.7429
 30
0.0
 11
64.0581
 21
73.7429
 31
0.0
  0
LINE
  8
0
 62
     0
 10
64.0581
 20
73.7429
 30
0.0
 11
64.0581
 21
59.7422
 31
0.0
  0
LINE
  8
0
 62
     0
 10
64.0581
 20
59.7422
 30
0.0
 11
50.0574
 21
59.7422
 31
0.0
  0
LINE
  8
0
 62
     0
 10
50.0574
 20
59.7422
 30
0.0
 11
50.0574
 21
73.7429
 31
0.0
  0
LINE
  8
0
 62
     0
 10
31.0059
 20
73.7429
 30
0.0
 11
45.0067
 21
73.7429
 31
0.0
  0
LINE
  8
0
 62
     0
 10
45.0067
 20
73.7429
 30
0.0
 11
45.0067
 21
59.7422
 31
0.0
  0
LINE
  8
0
 62
     0
 10
45.0067
 20
59.7422
 30
0.0
 11
31.0059
 21
59.7422
 31
0.0
  0
LINE
  8
0
 62
     0
 10
31.0059
 20
59.7422
 30
0.0
 11
31.0059
 21
73.7429
 31
0.0
  0
LINE
  8
0
 62
     0
 10
7.1961
 20
73.7429
 30
0.0
 11
21.1956
 21
73.7429
 31
0.0
  0
LINE
  8
0
 62
     0
 10
21.1956
 20
73.7429
 30
0.0
 11
21.1956
 21
59.7422
 31
0.0
  0
LINE
  8
0
 62
     0
 10
21.1956
 20
59.7422
 30
0.0
 11
7.1961
 21
59.7422
 31
0.0
  0
LINE
  8
0
 62
     0
 10
7.1961
 20
59.7422
 30
0.0
 11
7.1961
 21
73.7429
 31
0.0
  0
LINE
  8
0
 62
     0
 10
259.559
 20
69.4697
 30
0.0
 11
258.863
 21
69.1141
 31
0.0
  0
LINE
  8
0
 62
     0
 10
258.863
 20
69.1141
 30
0.0
 11
258.309
 21
68.5617
 31
0.0
  0
LINE
  8
0
 62
     0
 10
258.309
 20
68.5617
 30
0.0
 11
257.955
 21
67.8642
 31
0.0
  0
LINE
  8
0
 62
     0
 10
257.955
 20
67.8642
 30
0.0
 11
257.832
 21
67.0913
 31
0.0
  0
LINE
  8
0
 62
     0
 10
257.832
 20
67.0913
 30
0.0
 11
257.955
 21
66.3194
 31
0.0
  0
LINE
  8
0
 62
     0
 10
257.955
 20
66.3194
 30
0.0
 11
258.309
 21
65.6223
 31
0.0
  0
LINE
  8
0
 62
     0
 10
258.309
 20
65.6223
 30
0.0
 11
258.863
 21
65.0695
 31
0.0
  0
LINE
  8
0
 62
     0
 10
258.863
 20
65.0695
 30
0.0
 11
259.559
 21
64.7139
 31
0.0
  0
LINE
  8
0
 62
     0
 10
259.559
 20
64.7139
 30
0.0
 11
260.332
 21
64.5901
 31
0.0
  0
LINE
  8
0
 62
     0
 10
260.332
 20
64.5901
 30
0.0
 11
261.105
 21
64.7139
 31
0.0
  0
LINE
  8
0
 62
     0
 10
261.105
 20
64.7139
 30
0.0
 11
261.801
 21
65.0695
 31
0.0
  0
LINE
  8
0
 62
     0
 10
261.801
 20
65.0695
 30
0.0
 11
262.355
 21
65.6223
 31
0.0
  0
LINE
  8
0
 62
     0
 10
262.355
 20
65.6223
 30
0.0
 11
262.709
 21
66.3194
 31
0.0
  0
LINE
  8
0
 62
     0
 10
262.709
 20
66.3194
 30
0.0
 11
262.832
 21
67.0913
 31
0.0
  0
LINE
  8
0
 62
     0
 10
262.832
 20
67.0913
 30
0.0
 11
262.709
 21
67.8642
 31
0.0
  0
LINE
  8
0
 62
     0
 10
262.709
 20
67.8642
 30
0.0
 11
262.355
 21
68.5617
 31
0.0
  0
LINE
  8
0
 62
     0
 10
262.355
 20
68.5617
 30
0.0
 11
261.801
 21
69.1141
 31
0.0
  0
LINE
  8
0
 62
     0
 10
261.801
 20
69.1141
 30
0.0
 11
261.105
 21
69.4697
 31
0.0
  0
LINE
  8
0
 62
     0
 10
261.105
 20
69.4697
 30
0.0
 11
260.332
 21
69.5911
 31
0.0
  0
LINE
  8
0
 62
     0
 10
260.332
 20
69.5911
 30
0.0
 11
259.559
 21
69.4697
 31
0.0
  0
LINE
  8
0
 62
     0
 10
24.7096
 20
69.4697
 30
0.0
 11
24.0137
 21
69.1141
 31
0.0
  0
LINE
  8
0
 62
     0
 10
24.0137
 20
69.1141
 30
0.0
 11
23.4597
 21
68.5617
 31
0.0
  0
LINE
  8
0
 62
     0
 10
23.4597
 20
68.5617
 30
0.0
 11
23.1056
 21
67.8642
 31
0.0
  0
LINE
  8
0
 62
     0
 10
23.1056
 20
67.8642
 30
0.0
 11
22.9829
 21
67.0913
 31
0.0
  0
LINE
  8
0
 62
     0
 10
22.9829
 20
67.0913
 30
0.0
 11
23.1056
 21
66.3194
 31
0.0
  0
LINE
  8
0
 62
     0
 10
23.1056
 20
66.3194
 30
0.0
 11
23.4597
 21
65.6223
 31
0.0
  0
LINE
  8
0
 62
     0
 10
23.4597
 20
65.6223
 30
0.0
 11
24.0137
 21
65.0695
 31
0.0
  0
LINE
  8
0
 62
     0
 10
24.0137
 20
65.0695
 30
0.0
 11
24.7096
 21
64.7139
 31
0.0
  0
LINE
  8
0
 62
     0
 10
24.7096
 20
64.7139
 30
0.0
 11
25.4841
 21
64.5901
 31
0.0
  0
LINE
  8
0
 62
     0
 10
25.4841
 20
64.5901
 30
0.0
 11
26.2558
 21
64.7139
 31
0.0
  0
LINE
  8
0
 62
     0
 10
26.2558
 20
64.7139
 30
0.0
 11
26.953
 21
65.0695
 31
0.0
  0
LINE
  8
0
 62
     0
 10
26.953
 20
65.0695
 30
0.0
 11
27.5029
 21
65.6223
 31
0.0
  0
LINE
  8
0
 62
     0
 10
27.5029
 20
65.6223
 30
0.0
 11
27.8612
 21
66.3194
 31
0.0
  0
LINE
  8
0
 62
     0
 10
27.8612
 20
66.3194
 30
0.0
 11
27.9824
 21
67.0913
 31
0.0
  0
LINE
  8
0
 62
     0
 10
27.9824
 20
67.0913
 30
0.0
 11
27.8612
 21
67.8642
 31
0.0
  0
LINE
  8
0
 62
     0
 10
27.8612
 20
67.8642
 30
0.0
 11
27.5029
 21
68.5617
 31
0.0
  0
LINE
  8
0
 62
     0
 10
27.5029
 20
68.5617
 30
0.0
 11
26.953
 21
69.1141
 31
0.0
  0
LINE
  8
0
 62
     0
 10
26.953
 20
69.1141
 30
0.0
 11
26.2558
 21
69.4697
 31
0.0
  0
LINE
  8
0
 62
     0
 10
26.2558
 20
69.4697
 30
0.0
 11
25.4841
 21
69.5911
 31
0.0
  0
LINE
  8
0
 62
     0
 10
25.4841
 20
69.5911
 30
0.0
 11
24.7096
 21
69.4697
 31
0.0
  0
LINE
  8
0
 62
     0
 10
259.606
 20
92.7929
 30
0.0
 11
259.606
 21
88.0925
 31
0.0
  0
LINE
  8
0
 62
     0
 10
259.606
 20
88.0925
 30
0.0
 11
258.082
 21
88.0925
 31
0.0
  0
LINE
  8
0
 62
     0
 10
258.082
 20
88.0925
 30
0.0
 11
258.082
 21
91.3225
 31
0.0
  0
LINE
  8
0
 62
     0
 10
258.082
 20
91.3225
 30
0.0
 11
256.357
 21
91.3225
 31
0.0
  0
LINE
  8
0
 62
     0
 10
256.357
 20
91.3225
 30
0.0
 11
256.357
 21
92.2433
 31
0.0
  0
LINE
  8
0
 62
     0
 10
256.357
 20
92.2433
 30
0.0
 11
253.056
 21
92.2433
 31
0.0
  0
LINE
  8
0
 62
     0
 10
253.056
 20
92.2433
 30
0.0
 11
253.056
 21
91.3225
 31
0.0
  0
LINE
  8
0
 62
     0
 10
253.056
 20
91.3225
 30
0.0
 11
251.332
 21
91.3225
 31
0.0
  0
LINE
  8
0
 62
     0
 10
251.332
 20
91.3225
 30
0.0
 11
251.332
 21
88.0925
 31
0.0
  0
LINE
  8
0
 62
     0
 10
251.332
 20
88.0925
 30
0.0
 11
250.508
 21
88.0925
 31
0.0
  0
LINE
  8
0
 62
     0
 10
250.508
 20
88.0925
 30
0.0
 11
250.508
 21
85.2921
 31
0.0
  0
LINE
  8
0
 62
     0
 10
250.508
 20
85.2921
 30
0.0
 11
251.332
 21
85.2921
 31
0.0
  0
LINE
  8
0
 62
     0
 10
251.332
 20
85.2921
 30
0.0
 11
251.332
 21
79.0208
 31
0.0
  0
LINE
  8
0
 62
     0
 10
251.332
 20
79.0208
 30
0.0
 11
253.056
 21
79.0208
 31
0.0
  0
LINE
  8
0
 62
     0
 10
253.056
 20
79.0208
 30
0.0
 11
253.056
 21
78.0426
 31
0.0
  0
LINE
  8
0
 62
     0
 10
253.056
 20
78.0426
 30
0.0
 11
256.357
 21
78.0426
 31
0.0
  0
LINE
  8
0
 62
     0
 10
256.357
 20
78.0426
 30
0.0
 11
256.357
 21
79.0208
 31
0.0
  0
LINE
  8
0
 62
     0
 10
256.357
 20
79.0208
 30
0.0
 11
258.082
 21
79.0208
 31
0.0
  0
LINE
  8
0
 62
     0
 10
258.082
 20
79.0208
 30
0.0
 11
258.082
 21
83.4926
 31
0.0
  0
LINE
  8
0
 62
     0
 10
258.082
 20
83.4926
 30
0.0
 11
259.606
 21
83.4926
 31
0.0
  0
LINE
  8
0
 62
     0
 10
259.606
 20
83.4926
 30
0.0
 11
259.606
 21
78.7922
 31
0.0
  0
LINE
  8
0
 62
     0
 10
259.606
 20
78.7922
 30
0.0
 11
273.607
 21
78.7922
 31
0.0
  0
LINE
  8
0
 62
     0
 10
273.607
 20
78.7922
 30
0.0
 11
273.607
 21
83.4926
 31
0.0
  0
LINE
  8
0
 62
     0
 10
273.607
 20
83.4926
 30
0.0
 11
275.131
 21
83.4926
 31
0.0
  0
LINE
  8
0
 62
     0
 10
275.131
 20
83.4926
 30
0.0
 11
275.131
 21
79.0208
 31
0.0
  0
LINE
  8
0
 62
     0
 10
275.131
 20
79.0208
 30
0.0
 11
276.856
 21
79.0208
 31
0.0
  0
LINE
  8
0
 62
     0
 10
276.856
 20
79.0208
 30
0.0
 11
276.856
 21
78.0426
 31
0.0
  0
LINE
  8
0
 62
     0
 10
276.856
 20
78.0426
 30
0.0
 11
280.157
 21
78.0426
 31
0.0
  0
LINE
  8
0
 62
     0
 10
280.157
 20
78.0426
 30
0.0
 11
280.157
 21
79.0208
 31
0.0
  0
LINE
  8
0
 62
     0
 10
280.157
 20
79.0208
 30
0.0
 11
281.882
 21
79.0208
 31
0.0
  0
LINE
  8
0
 62
     0
 10
281.882
 20
79.0208
 30
0.0
 11
281.882
 21
85.2921
 31
0.0
  0
LINE
  8
0
 62
     0
 10
281.882
 20
85.2921
 30
0.0
 11
282.706
 21
85.2921
 31
0.0
  0
LINE
  8
0
 62
     0
 10
282.706
 20
85.2921
 30
0.0
 11
282.706
 21
88.0925
 31
0.0
  0
LINE
  8
0
 62
     0
 10
282.706
 20
88.0925
 30
0.0
 11
281.882
 21
88.0925
 31
0.0
  0
LINE
  8
0
 62
     0
 10
281.882
 20
88.0925
 30
0.0
 11
281.882
 21
91.3225
 31
0.0
  0
LINE
  8
0
 62
     0
 10
281.882
 20
91.3225
 30
0.0
 11
280.157
 21
91.3225
 31
0.0
  0
LINE
  8
0
 62
     0
 10
280.157
 20
91.3225
 30
0.0
 11
280.157
 21
92.2433
 31
0.0
  0
LINE
  8
0
 62
     0
 10
280.157
 20
92.2433
 30
0.0
 11
276.856
 21
92.2433
 31
0.0
  0
LINE
  8
0
 62
     0
 10
276.856
 20
92.2433
 30
0.0
 11
276.856
 21
91.3225
 31
0.0
  0
LINE
  8
0
 62
     0
 10
276.856
 20
91.3225
 30
0.0
 11
275.131
 21
91.3225
 31
0.0
  0
LINE
  8
0
 62
     0
 10
275.131
 20
91.3225
 30
0.0
 11
275.131
 21
88.0925
 31
0.0
  0
LINE
  8
0
 62
     0
 10
275.131
 20
88.0925
 30
0.0
 11
273.607
 21
88.0925
 31
0.0
  0
LINE
  8
0
 62
     0
 10
273.607
 20
88.0925
 30
0.0
 11
273.607
 21
92.7929
 31
0.0
  0
LINE
  8
0
 62
     0
 10
273.607
 20
92.7929
 30
0.0
 11
259.606
 21
92.7929
 31
0.0
  0
LINE
  8
0
 62
     0
 10
231.032
 20
92.7929
 30
0.0
 11
245.033
 21
92.7929
 31
0.0
  0
LINE
  8
0
 62
     0
 10
245.033
 20
92.7929
 30
0.0
 11
245.033
 21
78.7922
 31
0.0
  0
LINE
  8
0
 62
     0
 10
245.033
 20
78.7922
 30
0.0
 11
231.032
 21
78.7922
 31
0.0
  0
LINE
  8
0
 62
     0
 10
231.032
 20
78.7922
 30
0.0
 11
231.032
 21
92.7929
 31
0.0
  0
LINE
  8
0
 62
     0
 10
211.982
 20
92.7929
 30
0.0
 11
225.983
 21
92.7929
 31
0.0
  0
LINE
  8
0
 62
     0
 10
225.983
 20
92.7929
 30
0.0
 11
225.983
 21
78.7922
 31
0.0
  0
LINE
  8
0
 62
     0
 10
225.983
 20
78.7922
 30
0.0
 11
211.982
 21
78.7922
 31
0.0
  0
LINE
  8
0
 62
     0
 10
211.982
 20
78.7922
 30
0.0
 11
211.982
 21
92.7929
 31
0.0
  0
LINE
  8
0
 62
     0
 10
192.931
 20
92.7929
 30
0.0
 11
206.932
 21
92.7929
 31
0.0
  0
LINE
  8
0
 62
     0
 10
206.932
 20
92.7929
 30
0.0
 11
206.932
 21
78.7922
 31
0.0
  0
LINE
  8
0
 62
     0
 10
206.932
 20
78.7922
 30
0.0
 11
192.931
 21
78.7922
 31
0.0
  0
LINE
  8
0
 62
     0
 10
192.931
 20
78.7922
 30
0.0
 11
192.931
 21
92.7929
 31
0.0
  0
LINE
  8
0
 62
     0
 10
173.882
 20
92.7929
 30
0.0
 11
187.883
 21
92.7929
 31
0.0
  0
LINE
  8
0
 62
     0
 10
187.883
 20
92.7929
 30
0.0
 11
187.883
 21
78.7922
 31
0.0
  0
LINE
  8
0
 62
     0
 10
187.883
 20
78.7922
 30
0.0
 11
173.882
 21
78.7922
 31
0.0
  0
LINE
  8
0
 62
     0
 10
173.882
 20
78.7922
 30
0.0
 11
173.882
 21
92.7929
 31
0.0
  0
LINE
  8
0
 62
     0
 10
154.831
 20
92.7929
 30
0.0
 11
168.832
 21
92.7929
 31
0.0
  0
LINE
  8
0
 62
     0
 10
168.832
 20
92.7929
 30
0.0
 11
168.832
 21
78.7922
 31
0.0
  0
LINE
  8
0
 62
     0
 10
168.832
 20
78.7922
 30
0.0
 11
154.831
 21
78.7922
 31
0.0
  0
LINE
  8
0
 62
     0
 10
154.831
 20
78.7922
 30
0.0
 11
154.831
 21
92.7929
 31
0.0
  0
LINE
  8
0
 62
     0
 10
135.782
 20
92.7929
 30
0.0
 11
149.783
 21
92.7929
 31
0.0
  0
LINE
  8
0
 62
     0
 10
149.783
 20
92.7929
 30
0.0
 11
149.783
 21
78.7922
 31
0.0
  0
LINE
  8
0
 62
     0
 10
149.783
 20
78.7922
 30
0.0
 11
135.782
 21
78.7922
 31
0.0
  0
LINE
  8
0
 62
     0
 10
135.782
 20
78.7922
 30
0.0
 11
135.782
 21
92.7929
 31
0.0
  0
LINE
  8
0
 62
     0
 10
116.732
 20
92.7929
 30
0.0
 11
130.733
 21
92.7929
 31
0.0
  0
LINE
  8
0
 62
     0
 10
130.733
 20
92.7929
 30
0.0
 11
130.733
 21
78.7922
 31
0.0
  0
LINE
  8
0
 62
     0
 10
130.733
 20
78.7922
 30
0.0
 11
116.732
 21
78.7922
 31
0.0
  0
LINE
  8
0
 62
     0
 10
116.732
 20
78.7922
 30
0.0
 11
116.732
 21
92.7929
 31
0.0
  0
LINE
  8
0
 62
     0
 10
97.6824
 20
92.7929
 30
0.0
 11
111.683
 21
92.7929
 31
0.0
  0
LINE
  8
0
 62
     0
 10
111.683
 20
92.7929
 30
0.0
 11
111.683
 21
78.7922
 31
0.0
  0
LINE
  8
0
 62
     0
 10
111.683
 20
78.7922
 30
0.0
 11
97.6824
 21
78.7922
 31
0.0
  0
LINE
  8
0
 62
     0
 10
97.6824
 20
78.7922
 30
0.0
 11
97.6824
 21
92.7929
 31
0.0
  0
LINE
  8
0
 62
     0
 10
78.6324
 20
92.7929
 30
0.0
 11
92.6331
 21
92.7929
 31
0.0
  0
LINE
  8
0
 62
     0
 10
92.6331
 20
92.7929
 30
0.0
 11
92.6331
 21
78.7922
 31
0.0
  0
LINE
  8
0
 62
     0
 10
92.6331
 20
78.7922
 30
0.0
 11
78.6324
 21
78.7922
 31
0.0
  0
LINE
  8
0
 62
     0
 10
78.6324
 20
78.7922
 30
0.0
 11
78.6324
 21
92.7929
 31
0.0
  0
LINE
  8
0
 62
     0
 10
59.581
 20
92.7929
 30
0.0
 11
73.5817
 21
92.7929
 31
0.0
  0
LINE
  8
0
 62
     0
 10
73.5817
 20
92.7929
 30
0.0
 11
73.5817
 21
78.7922
 31
0.0
  0
LINE
  8
0
 62
     0
 10
73.5817
 20
78.7922
 30
0.0
 11
59.581
 21
78.7922
 31
0.0
  0
LINE
  8
0
 62
     0
 10
59.581
 20
78.7922
 30
0.0
 11
59.581
 21
92.7929
 31
0.0
  0
LINE
  8
0
 62
     0
 10
40.5324
 20
92.7929
 30
0.0
 11
54.5331
 21
92.7929
 31
0.0
  0
LINE
  8
0
 62
     0
 10
54.5331
 20
92.7929
 30
0.0
 11
54.5331
 21
78.7922
 31
0.0
  0
LINE
  8
0
 62
     0
 10
54.5331
 20
78.7922
 30
0.0
 11
40.5324
 21
78.7922
 31
0.0
  0
LINE
  8
0
 62
     0
 10
40.5324
 20
78.7922
 30
0.0
 11
40.5324
 21
92.7929
 31
0.0
  0
LINE
  8
0
 62
     0
 10
21.4822
 20
92.7929
 30
0.0
 11
35.4831
 21
92.7929
 31
0.0
  0
LINE
  8
0
 62
     0
 10
35.4831
 20
92.7929
 30
0.0
 11
35.4831
 21
78.7922
 31
0.0
  0
LINE
  8
0
 62
     0
 10
35.4831
 20
78.7922
 30
0.0
 11
21.4822
 21
78.7922
 31
0.0
  0
LINE
  8
0
 62
     0
 10
21.4822
 20
78.7922
 30
0.0
 11
21.4822
 21
92.7929
 31
0.0
  0
LINE
  8
0
 62
     0
 10
2.43224
 20
92.7929
 30
0.0
 11
16.4331
 21
92.7929
 31
0.0
  0
LINE
  8
0
 62
     0
 10
16.4331
 20
92.7929
 30
0.0
 11
16.4331
 21
78.7922
 31
0.0
  0
LINE
  8
0
 62
     0
 10
16.4331
 20
78.7922
 30
0.0
 11
2.43224
 21
78.7922
 31
0.0
  0
LINE
  8
0
 62
     0
 10
2.43224
 20
78.7922
 30
0.0
 11
2.43224
 21
92.7929
 31
0.0
  0
ENDSEC
  0
EOF
